<svg width="1440" height="1224" viewBox="0 0 1440 1224" fill="none" xmlns="http://www.w3.org/2000/svg">
<path opacity="0.05" d="M-109.169 568.22L-144.227 444.574L-81.9134 426.906L-78.404 446.761L-114.713 457.056L-105.624 489.113L-79.9458 481.832L-74.1955 502.113L-99.8733 509.393L-85.683 559.44L-109.169 568.22ZM-43.7052 548.598L-52.2265 420.079L-18.4613 408.915L42.536 523.085L16.6458 531.487L4.76373 506.407L-24.5122 514.707L-22.2798 542.523L-43.7052 548.598ZM-25.6611 493.829L-5.21699 488.032L-33.1501 432.517L-25.6611 493.829ZM90.0364 513.151C75.9708 517.139 64.2401 513.574 54.8441 502.456C45.5571 491.306 38.2704 476.409 32.9838 457.764C30.1396 447.733 28.712 437.712 28.701 427.702C28.69 417.692 30.7238 408.869 34.8023 401.234C38.959 393.459 45.5077 388.303 54.4486 385.768C61.3178 383.821 67.9176 384.246 74.248 387.046C80.6874 389.814 86.2438 394.246 90.9174 400.343C95.6691 406.299 99.096 412.985 101.198 420.399L78.2984 428.129C76.9072 423.222 74.5128 417.893 71.1151 412.142C67.6864 406.282 63.5188 404.047 58.6122 405.438C53.4876 406.891 51.1033 411.985 51.4593 420.719C51.8153 429.453 53.6164 439.545 56.8625 450.993C60.8816 465.168 65.2026 476.253 69.8256 484.248C74.4177 492.135 79.8213 495.197 86.0363 493.435C90.3977 492.198 92.7787 488.755 93.1793 483.105C93.5489 477.345 92.9552 470.681 91.3981 463.112L112.399 459.278C114.625 467.129 115.388 474.805 114.687 482.307C113.956 489.7 111.546 496.156 107.456 501.674C103.366 507.193 97.5598 511.018 90.0364 513.151ZM141.472 496.094L106.692 373.429L169.006 355.761L172.469 375.453L136.16 385.748L144.461 415.024L170.302 407.697L175.982 428.351L150.304 435.631L160.089 470.141L199.669 458.919L203.132 478.611L141.472 496.094ZM253.566 466.785C243.644 469.598 234.475 469.253 226.06 465.748C217.723 462.104 210.66 456.097 204.87 447.725L222.461 432.489L225.351 435.203C230.059 439.759 234.263 443.161 237.964 445.41C241.773 447.628 245.859 448.119 250.22 446.883C253.055 446.079 255.177 444.005 256.584 440.661C258.101 437.285 258.396 433.962 257.468 430.691C256.603 427.638 255.051 425.074 252.814 422.999C250.576 420.924 248.042 419.464 245.21 418.617L220.167 411.935C212.963 410.208 206.75 407.199 201.528 402.907C196.306 398.616 192.752 393.144 190.866 386.493C188.857 379.406 188.699 372.618 190.393 366.13C192.197 359.611 195.501 354.021 200.305 349.36C205.218 344.669 211.273 341.303 218.469 339.262C226.865 336.882 234.594 336.929 241.657 339.402C248.719 341.876 254.827 346.8 259.981 354.174L242.297 369.083C241.614 368.335 240.131 366.635 237.848 363.984C235.564 361.333 233.202 359.647 230.759 358.926C228.394 358.065 225.74 358.051 222.796 358.886C219.198 359.906 216.742 361.84 215.429 364.686C214.225 367.501 214.132 370.708 215.153 374.306C215.895 376.923 217.283 379.121 219.319 380.899C221.433 382.538 223.696 383.664 226.108 384.276L249.19 390.277C266.15 394.421 276.929 403.145 281.526 416.449C283.721 424.19 283.924 431.554 282.135 438.54C280.424 445.387 277.034 451.295 271.965 456.267C267.004 461.207 260.872 464.713 253.566 466.785ZM308.019 449.932L273.517 328.248L297.003 319.469L311.1 369.189L333.997 362.697L320.456 314.939L343.942 306.16L378.444 427.843L354.958 436.623L340.212 384.613L317.314 391.105L331.504 441.152L308.019 449.932ZM392.169 425.012L383.648 296.492L417.413 285.328L478.411 399.499L452.52 407.9L440.638 382.82L411.362 391.121L413.595 418.937L392.169 425.012ZM410.213 370.242L430.658 364.446L402.724 308.93L410.213 370.242ZM457.117 274.071L472.491 269.711C484.812 266.218 494.78 263.981 502.394 263C509.978 261.91 517.307 263.248 524.383 267.014C531.568 270.749 536.83 278.504 540.168 290.28C543.198 300.966 543.103 309.769 539.882 316.69C536.739 323.471 531.926 328.723 525.442 332.446C519.037 336.03 511.309 339.104 502.259 341.67L515.661 388.937L492.175 397.717L457.117 274.071ZM500.993 321.002C507.317 319.209 511.907 316.494 514.763 312.857C517.729 309.189 518.222 303.865 516.243 296.887C514.296 290.018 511.292 285.863 507.231 284.423C503.171 282.982 497.488 283.298 490.183 285.369L486.748 286.343L496.904 322.161L500.993 321.002ZM579.104 372.009L544.324 249.344L606.637 231.676L610.1 251.368L573.792 261.663L582.093 290.939L607.934 283.612L613.613 304.266L587.936 311.547L597.72 346.056L637.3 334.834L640.763 354.526L579.104 372.009ZM698.373 339.252L663.315 215.606L725.628 197.938L729.138 217.793L692.829 228.088L701.918 260.145L727.596 252.864L733.346 273.144L707.669 280.425L721.859 330.472L698.373 339.252ZM763.837 319.63L755.315 191.111L789.081 179.947L850.078 294.117L824.188 302.518L812.306 277.439L783.03 285.739L785.262 313.555L763.837 319.63ZM781.881 264.861L802.325 259.064L774.392 203.549L781.881 264.861ZM897.578 284.183C883.513 288.171 871.782 284.606 862.386 273.488C853.099 262.338 845.812 247.441 840.526 228.796C837.681 218.765 836.254 208.744 836.243 198.734C836.232 188.724 838.266 179.901 842.344 172.266C846.501 164.49 853.05 159.335 861.991 156.8C868.86 154.852 875.46 155.278 881.79 158.078C888.229 160.846 893.786 165.278 898.459 171.375C903.211 177.331 906.638 184.016 908.74 191.431L885.84 199.161C884.449 194.254 882.055 188.925 878.657 183.174C875.228 177.314 871.061 175.079 866.154 176.47C861.029 177.923 858.645 183.017 859.001 191.751C859.357 200.485 861.158 210.577 864.404 222.025C868.423 236.2 872.744 247.285 877.368 255.28C881.96 263.167 887.363 266.229 893.578 264.467C897.94 263.23 900.321 259.787 900.721 254.136C901.091 248.377 900.497 241.713 898.94 234.144L919.941 230.31C922.167 238.161 922.929 245.837 922.229 253.339C921.498 260.732 919.088 267.188 914.998 272.706C910.908 278.224 905.102 282.05 897.578 284.183ZM949.014 267.125L914.234 144.461L976.548 126.793L980.011 146.485L943.702 156.78L952.003 186.056L977.844 178.729L983.524 199.383L957.846 206.663L967.631 241.173L1007.21 229.951L1010.67 249.643L949.014 267.125ZM1061.11 237.817C1051.19 240.63 1042.02 240.284 1033.6 236.78C1025.27 233.136 1018.2 227.129 1012.41 218.757L1030 203.521L1032.89 206.235C1037.6 210.791 1041.81 214.193 1045.51 216.442C1049.32 218.66 1053.4 219.151 1057.76 217.914C1060.6 217.111 1062.72 215.037 1064.13 211.692C1065.64 208.317 1065.94 204.994 1065.01 201.723C1064.14 198.67 1062.59 196.106 1060.36 194.031C1058.12 191.956 1055.58 190.496 1052.75 189.649L1027.71 182.967C1020.51 181.24 1014.29 178.231 1009.07 173.939C1003.85 169.648 1000.29 164.176 998.408 157.525C996.398 150.438 996.241 143.65 997.935 137.162C999.739 130.643 1003.04 125.053 1007.85 120.392C1012.76 115.701 1018.81 112.335 1026.01 110.294C1034.41 107.914 1042.14 107.96 1049.2 110.434C1056.26 112.908 1062.37 117.832 1067.52 125.206L1049.84 140.115C1049.16 139.367 1047.67 137.667 1045.39 135.016C1043.11 132.365 1040.74 130.678 1038.3 129.957C1035.94 129.096 1033.28 129.083 1030.34 129.918C1026.74 130.938 1024.28 132.871 1022.97 135.718C1021.77 138.533 1021.67 141.74 1022.69 145.338C1023.44 147.955 1024.83 150.153 1026.86 151.931C1028.98 153.57 1031.24 154.696 1033.65 155.308L1056.73 161.309C1073.69 165.453 1084.47 174.177 1089.07 187.481C1091.26 195.222 1091.47 202.586 1089.68 209.572C1087.97 216.419 1084.58 222.327 1079.51 227.299C1074.55 232.239 1068.41 235.745 1061.11 237.817ZM1115.56 220.964L1081.06 99.2804L1104.54 90.5009L1118.64 140.221L1141.54 133.729L1128 85.9712L1151.48 77.1917L1185.99 198.875L1162.5 207.655L1147.75 155.645L1124.86 162.137L1139.05 212.184L1115.56 220.964ZM1199.71 196.044L1191.19 67.524L1224.96 56.36L1285.95 170.531L1260.06 178.932L1248.18 153.852L1218.9 162.153L1221.14 189.969L1199.71 196.044ZM1217.76 141.274L1238.2 135.478L1210.27 79.9619L1217.76 141.274ZM1264.66 45.1025L1280.03 40.7434C1292.35 37.25 1302.32 35.0127 1309.94 34.0318C1317.52 32.9417 1324.85 34.2797 1331.92 38.0458C1339.11 41.7809 1344.37 49.5363 1347.71 61.3121C1350.74 71.9976 1350.64 80.8009 1347.42 87.7219C1344.28 94.5031 1339.47 99.7552 1332.98 103.478C1326.58 107.062 1318.85 110.136 1309.8 112.702L1323.2 159.969L1299.72 168.748L1264.66 45.1025ZM1308.53 92.0337C1314.86 90.2406 1319.45 87.5255 1322.31 83.8884C1325.27 80.2205 1325.76 74.8973 1323.79 67.9191C1321.84 61.0499 1318.83 56.8951 1314.77 55.4547C1310.71 54.0143 1305.03 54.3298 1297.72 56.4011L1294.29 57.3749L1304.45 93.193L1308.53 92.0337ZM1386.65 143.041L1351.87 20.3761L1414.18 2.70789L1417.64 22.4001L1381.33 32.6949L1389.63 61.9709L1415.48 54.6439L1421.16 75.2979L1395.48 82.5785L1405.26 117.088L1444.84 105.866L1448.31 125.558L1386.65 143.041ZM-16.4223 895.325L-51.4805 771.679L10.8332 754.011L14.3426 773.867L-21.9661 784.162L-12.877 816.218L12.8008 808.938L18.5511 829.218L-7.12669 836.499L7.06353 886.546L-16.4223 895.325ZM49.0413 875.704L40.5201 747.184L74.2853 736.02L135.283 850.191L109.392 858.592L97.5103 833.512L68.2343 841.813L70.4668 869.629L49.0413 875.704ZM67.0855 820.935L87.5296 815.138L59.5964 759.622L67.0855 820.935ZM182.783 840.257C168.717 844.245 156.987 840.68 147.591 829.561C138.304 818.412 131.017 803.514 125.73 784.869C122.886 774.838 121.459 764.818 121.448 754.808C121.437 744.798 123.47 735.975 127.549 728.34C131.706 720.564 138.254 715.409 147.195 712.874C154.064 710.926 160.664 711.352 166.995 714.151C173.434 716.92 178.99 721.352 183.664 727.448C188.416 733.405 191.843 740.09 193.945 747.505L171.045 755.234C169.654 750.328 167.259 744.999 163.862 739.248C160.433 733.387 156.265 731.153 151.359 732.544C146.234 733.997 143.85 739.091 144.206 747.825C144.562 756.559 146.363 766.65 149.609 778.099C153.628 792.274 157.949 803.359 162.572 811.354C167.164 819.24 172.568 822.303 178.783 820.54C183.144 819.304 185.525 815.86 185.926 810.21C186.295 804.451 185.702 797.787 184.145 790.218L205.145 786.384C207.371 794.234 208.134 801.911 207.434 809.413C206.703 816.806 204.293 823.262 200.203 828.78C196.113 834.298 190.306 838.124 182.783 840.257ZM234.219 823.199L199.439 700.535L261.753 682.866L265.216 702.558L228.907 712.853L237.208 742.129L263.049 734.802L268.728 755.456L243.051 762.737L252.835 797.247L292.415 786.024L295.878 805.716L234.219 823.199ZM346.313 793.89C336.391 796.704 327.222 796.358 318.807 792.854C310.47 789.21 303.407 783.202 297.617 774.831L315.208 759.594L318.098 762.309C322.806 766.864 327.01 770.266 330.71 772.516C334.52 774.734 338.605 775.225 342.967 773.988C345.802 773.184 347.923 771.11 349.331 767.766C350.848 764.391 351.142 761.068 350.215 757.797C349.349 754.744 347.798 752.18 345.56 750.105C343.323 748.03 340.788 746.569 337.957 745.723L312.914 739.041C305.71 737.314 299.497 734.304 294.274 730.013C289.052 725.721 285.498 720.25 283.613 713.599C281.603 706.511 281.446 699.724 283.14 693.235C284.943 686.716 288.247 681.126 293.051 676.466C297.965 671.774 304.019 668.408 311.216 666.368C319.611 663.987 327.341 664.034 334.403 666.508C341.466 668.982 347.574 673.906 352.728 681.28L335.044 696.189C334.361 695.44 332.877 693.74 330.594 691.089C328.311 688.438 325.948 686.752 323.506 686.031C321.141 685.17 318.487 685.157 315.543 685.992C311.945 687.012 309.489 688.945 308.175 691.791C306.971 694.607 306.879 697.813 307.899 701.412C308.641 704.028 310.03 706.226 312.066 708.005C314.18 709.644 316.443 710.769 318.854 711.381L341.937 717.382C358.897 721.526 369.675 730.25 374.272 743.554C376.467 751.296 376.67 758.66 374.882 765.646C373.171 772.492 369.781 778.401 364.711 783.372C359.751 788.313 353.618 791.819 346.313 793.89ZM400.765 777.037L366.263 655.354L389.749 646.575L403.847 696.295L426.744 689.802L413.203 642.045L436.689 633.265L471.191 754.949L447.705 763.728L432.958 711.718L410.061 718.211L424.251 768.258L400.765 777.037ZM484.916 752.117L476.395 623.598L510.16 612.434L571.157 726.604L545.267 735.005L533.385 709.926L504.109 718.226L506.341 746.042L484.916 752.117ZM502.96 697.348L523.404 691.551L495.471 636.036L502.96 697.348ZM549.864 601.176L565.238 596.817C577.558 593.324 587.526 591.086 595.141 590.105C602.724 589.015 610.054 590.353 617.13 594.119C624.314 597.855 629.576 605.61 632.915 617.386C635.945 628.071 635.849 636.875 632.628 643.796C629.486 650.577 624.672 655.829 618.189 659.552C611.783 663.135 604.056 666.21 595.006 668.776L608.408 716.043L584.922 724.822L549.864 601.176ZM593.74 648.107C600.064 646.314 604.654 643.599 607.51 639.962C610.475 636.294 610.968 630.971 608.99 623.993C607.042 617.124 604.038 612.969 599.978 611.528C595.918 610.088 590.235 610.403 582.93 612.475L579.495 613.449L589.651 649.267L593.74 648.107ZM671.85 699.114L637.07 576.45L699.384 558.782L702.847 578.474L666.538 588.769L674.839 618.045L700.68 610.718L706.36 631.372L680.682 638.652L690.467 673.162L730.047 661.94L733.51 681.632L671.85 699.114ZM791.12 666.357L756.061 542.711L818.375 525.043L821.884 544.899L785.576 555.194L794.665 587.25L820.343 579.97L826.093 600.25L800.415 607.531L814.605 657.578L791.12 666.357ZM856.583 646.736L848.062 518.216L881.827 507.052L942.824 621.223L916.934 629.624L905.052 604.544L875.776 612.845L878.009 640.661L856.583 646.736ZM874.627 591.967L895.071 586.17L867.138 530.654L874.627 591.967ZM990.325 611.289C976.259 615.277 964.529 611.712 955.133 600.593C945.846 589.444 938.559 574.546 933.272 555.901C930.428 545.87 929 535.85 928.989 525.84C928.979 515.83 931.012 507.007 935.091 499.371C939.247 491.596 945.796 486.441 954.737 483.906C961.606 481.958 968.206 482.384 974.536 485.183C980.976 487.952 986.532 492.384 991.206 498.48C995.958 504.437 999.385 511.122 1001.49 518.536L978.587 526.266C977.196 521.36 974.801 516.031 971.404 510.28C967.975 504.419 963.807 502.185 958.901 503.576C953.776 505.029 951.392 510.123 951.748 518.857C952.104 527.591 953.905 537.682 957.151 549.131C961.17 563.305 965.491 574.39 970.114 582.386C974.706 590.272 980.11 593.334 986.325 591.572C990.686 590.336 993.067 586.892 993.468 581.242C993.837 575.483 993.244 568.819 991.687 561.25L1012.69 557.416C1014.91 565.266 1015.68 572.943 1014.98 580.445C1014.24 587.838 1011.83 594.294 1007.74 599.812C1003.65 605.33 997.848 609.156 990.325 611.289ZM1041.76 594.231L1006.98 471.566L1069.29 453.898L1072.76 473.59L1036.45 483.885L1044.75 513.161L1070.59 505.834L1076.27 526.488L1050.59 533.769L1060.38 568.279L1099.96 557.056L1103.42 576.748L1041.76 594.231ZM1153.85 564.922C1143.93 567.735 1134.76 567.39 1126.35 563.886C1118.01 560.242 1110.95 554.234 1105.16 545.863L1122.75 530.626L1125.64 533.341C1130.35 537.896 1134.55 541.298 1138.25 543.548C1142.06 545.766 1146.15 546.257 1150.51 545.02C1153.34 544.216 1155.47 542.142 1156.87 538.798C1158.39 535.423 1158.68 532.1 1157.76 528.829C1156.89 525.776 1155.34 523.212 1153.1 521.137C1150.86 519.062 1148.33 517.601 1145.5 516.755L1120.46 510.073C1113.25 508.346 1107.04 505.336 1101.82 501.045C1096.59 496.753 1093.04 491.282 1091.15 484.631C1089.15 477.543 1088.99 470.756 1090.68 464.267C1092.49 457.748 1095.79 452.158 1100.59 447.498C1105.51 442.806 1111.56 439.44 1118.76 437.4C1127.15 435.019 1134.88 435.066 1141.95 437.54C1149.01 440.014 1155.12 444.938 1160.27 452.312L1142.59 467.221C1141.9 466.472 1140.42 464.772 1138.14 462.121C1135.85 459.47 1133.49 457.784 1131.05 457.063C1128.68 456.202 1126.03 456.189 1123.08 457.024C1119.49 458.044 1117.03 459.977 1115.72 462.823C1114.51 465.639 1114.42 468.845 1115.44 472.443C1116.18 475.06 1117.57 477.258 1119.61 479.037C1121.72 480.676 1123.98 481.801 1126.4 482.413L1149.48 488.414C1166.44 492.558 1177.22 501.282 1181.81 514.586C1184.01 522.328 1184.21 529.692 1182.42 536.678C1180.71 543.524 1177.32 549.433 1172.25 554.404C1167.29 559.345 1161.16 562.851 1153.85 564.922ZM1208.31 548.069L1173.81 426.386L1197.29 417.606L1211.39 467.326L1234.29 460.834L1220.74 413.077L1244.23 404.297L1278.73 525.981L1255.25 534.76L1240.5 482.75L1217.6 489.243L1231.79 539.29L1208.31 548.069ZM1292.46 523.149L1283.94 394.63L1317.7 383.466L1378.7 497.636L1352.81 506.037L1340.93 480.957L1311.65 489.258L1313.88 517.074L1292.46 523.149ZM1310.5 468.38L1330.95 462.583L1303.01 407.068L1310.5 468.38ZM1357.41 372.208L1372.78 367.849C1385.1 364.356 1395.07 362.118 1402.68 361.137C1410.27 360.047 1417.6 361.385 1424.67 365.151C1431.86 368.886 1437.12 376.642 1440.46 388.418C1443.49 399.103 1443.39 407.906 1440.17 414.828C1437.03 421.609 1432.21 426.861 1425.73 430.584C1419.33 434.167 1411.6 437.242 1402.55 439.808L1415.95 487.074L1392.46 495.854L1357.41 372.208ZM1401.28 419.139C1407.61 417.346 1412.2 414.631 1415.05 410.994C1418.02 407.326 1418.51 402.003 1416.53 395.025C1414.58 388.155 1411.58 384.001 1407.52 382.56C1403.46 381.12 1397.78 381.435 1390.47 383.507L1387.04 384.481L1397.19 420.299L1401.28 419.139ZM1479.39 470.146L1444.61 347.482L1506.93 329.813L1510.39 349.506L1474.08 359.801L1482.38 389.076L1508.22 381.749L1513.9 402.404L1488.22 409.684L1498.01 444.194L1537.59 432.971L1541.05 452.664L1479.39 470.146ZM76.3243 1222.43L41.2661 1098.79L103.58 1081.12L107.089 1100.97L70.7804 1111.27L79.8696 1143.32L105.547 1136.04L111.298 1156.32L85.6199 1163.6L99.8101 1213.65L76.3243 1222.43ZM141.788 1202.81L133.267 1074.29L167.032 1063.13L228.029 1177.3L202.139 1185.7L190.257 1160.62L160.981 1168.92L163.213 1196.73L141.788 1202.81ZM159.832 1148.04L180.276 1142.24L152.343 1086.73L159.832 1148.04ZM275.529 1167.36C261.464 1171.35 249.733 1167.79 240.337 1156.67C231.05 1145.52 223.764 1130.62 218.477 1111.98C215.633 1101.94 214.205 1091.92 214.194 1081.91C214.183 1071.9 216.217 1063.08 220.295 1055.45C224.452 1047.67 231.001 1042.51 239.942 1039.98C246.811 1038.03 253.411 1038.46 259.741 1041.26C266.181 1044.03 271.737 1048.46 276.411 1054.55C281.162 1060.51 284.589 1067.2 286.691 1074.61L263.792 1082.34C262.4 1077.43 260.006 1072.1 256.608 1066.35C253.18 1060.49 249.012 1058.26 244.105 1059.65C238.981 1061.1 236.596 1066.2 236.952 1074.93C237.308 1083.66 239.11 1093.76 242.356 1105.2C246.375 1119.38 250.696 1130.46 255.319 1138.46C259.911 1146.35 265.314 1149.41 271.529 1147.65C275.891 1146.41 278.272 1142.97 278.672 1137.32C279.042 1131.56 278.448 1124.89 276.891 1117.32L297.892 1113.49C300.118 1121.34 300.881 1129.02 300.181 1136.52C299.45 1143.91 297.039 1150.37 292.949 1155.89C288.86 1161.4 283.053 1165.23 275.529 1167.36ZM326.965 1150.3L292.185 1027.64L354.499 1009.97L357.962 1029.66L321.653 1039.96L329.954 1069.23L355.796 1061.91L361.475 1082.56L335.797 1089.84L345.582 1124.35L385.162 1113.13L388.625 1132.82L326.965 1150.3ZM439.059 1121C429.137 1123.81 419.968 1123.46 411.553 1119.96C403.217 1116.32 396.153 1110.31 390.363 1101.94L407.954 1086.7L410.844 1089.41C415.552 1093.97 419.756 1097.37 423.457 1099.62C427.267 1101.84 431.352 1102.33 435.713 1101.09C438.548 1100.29 440.67 1098.22 442.078 1094.87C443.594 1091.5 443.889 1088.17 442.962 1084.9C442.096 1081.85 440.544 1079.29 438.307 1077.21C436.069 1075.14 433.535 1073.67 430.703 1072.83L405.661 1066.15C398.456 1064.42 392.243 1061.41 387.021 1057.12C381.799 1052.83 378.245 1047.36 376.359 1040.7C374.35 1033.62 374.192 1026.83 375.886 1020.34C377.69 1013.82 380.994 1008.23 385.798 1003.57C390.711 998.88 396.766 995.514 403.962 993.473C412.358 991.093 420.087 991.14 427.15 993.614C434.212 996.087 440.321 1001.01 445.474 1008.39L427.791 1023.29C427.107 1022.55 425.624 1020.85 423.341 1018.19C421.058 1015.54 418.695 1013.86 416.252 1013.14C413.888 1012.28 411.233 1012.26 408.289 1013.1C404.691 1014.12 402.235 1016.05 400.922 1018.9C399.718 1021.71 399.626 1024.92 400.646 1028.52C401.388 1031.13 402.777 1033.33 404.812 1035.11C406.926 1036.75 409.189 1037.87 411.601 1038.49L434.683 1044.49C451.644 1048.63 462.422 1057.36 467.019 1070.66C469.214 1078.4 469.417 1085.77 467.628 1092.75C465.918 1099.6 462.527 1105.51 457.458 1110.48C452.498 1115.42 446.365 1118.92 439.059 1121ZM493.512 1104.14L459.01 982.46L482.496 973.68L496.593 1023.4L519.491 1016.91L505.95 969.15L529.435 960.371L563.937 1082.05L540.451 1090.83L525.705 1038.82L502.807 1045.32L516.997 1095.36L493.512 1104.14ZM577.662 1079.22L569.141 950.703L602.906 939.539L663.904 1053.71L638.013 1062.11L626.131 1037.03L596.855 1045.33L599.088 1073.15L577.662 1079.22ZM595.707 1024.45L616.151 1018.66L588.218 963.141L595.707 1024.45ZM642.61 928.282L657.984 923.923C670.305 920.429 680.273 918.192 687.887 917.211C695.471 916.121 702.801 917.459 709.876 921.225C717.061 924.96 722.323 932.716 725.662 944.491C728.691 955.177 728.596 963.98 725.375 970.901C722.232 977.682 717.419 982.934 710.935 986.658C704.53 990.241 696.802 993.315 687.752 995.881L701.154 1043.15L677.668 1051.93L642.61 928.282ZM686.486 975.213C692.81 973.42 697.4 970.705 700.257 967.068C703.222 963.4 703.715 958.077 701.736 951.098C699.789 944.229 696.785 940.074 692.725 938.634C688.664 937.194 682.982 937.509 675.676 939.58L672.242 940.554L682.397 976.372L686.486 975.213ZM764.597 1026.22L729.817 903.555L792.131 885.887L795.594 905.579L759.285 915.874L767.586 945.15L793.427 937.823L799.107 958.477L773.429 965.758L783.214 1000.27L822.793 989.045L826.256 1008.74L764.597 1026.22ZM883.866 993.463L848.808 869.817L911.122 852.149L914.631 872.004L878.322 882.299L887.411 914.356L913.089 907.075L918.84 927.356L893.162 934.636L907.352 984.683L883.866 993.463ZM949.33 973.841L940.809 845.322L974.574 834.158L1035.57 948.329L1009.68 956.73L997.799 931.65L968.523 939.95L970.755 967.766L949.33 973.841ZM967.374 919.072L987.818 913.275L959.885 857.76L967.374 919.072ZM1083.07 938.394C1069.01 942.383 1057.28 938.817 1047.88 927.699C1038.59 916.549 1031.31 901.652 1026.02 883.007C1023.17 872.976 1021.75 862.955 1021.74 852.945C1021.73 842.935 1023.76 834.112 1027.84 826.477C1031.99 818.702 1038.54 813.546 1047.48 811.011C1054.35 809.064 1060.95 809.489 1067.28 812.289C1073.72 815.057 1079.28 819.49 1083.95 825.586C1088.7 831.542 1092.13 838.228 1094.23 845.642L1071.33 853.372C1069.94 848.465 1067.55 843.136 1064.15 837.385C1060.72 831.525 1056.55 829.29 1051.65 830.681C1046.52 832.135 1044.14 837.228 1044.49 845.962C1044.85 854.696 1046.65 864.788 1049.9 876.236C1053.92 890.411 1058.24 901.496 1062.86 909.491C1067.45 917.378 1072.86 920.44 1079.07 918.678C1083.43 917.441 1085.81 913.998 1086.21 908.348C1086.58 902.588 1085.99 895.924 1084.43 888.355L1105.43 884.521C1107.66 892.372 1108.42 900.048 1107.72 907.55C1106.99 914.943 1104.58 921.399 1100.49 926.917C1096.4 932.436 1090.59 936.261 1083.07 938.394ZM1134.51 921.337L1099.73 798.672L1162.04 781.004L1165.5 800.696L1129.2 810.991L1137.5 840.267L1163.34 832.94L1169.02 853.594L1143.34 860.874L1153.12 895.384L1192.7 884.162L1196.17 903.854L1134.51 921.337ZM1246.6 892.028C1236.68 894.841 1227.51 894.496 1219.1 890.992C1210.76 887.348 1203.7 881.34 1197.91 872.968L1215.5 857.732L1218.39 860.447C1223.09 865.002 1227.3 868.404 1231 870.653C1234.81 872.871 1238.89 873.362 1243.26 872.126C1246.09 871.322 1248.21 869.248 1249.62 865.904C1251.14 862.529 1251.43 859.205 1250.5 855.934C1249.64 852.881 1248.09 850.317 1245.85 848.242C1243.61 846.167 1241.08 844.707 1238.25 843.86L1213.2 837.178C1206 835.451 1199.78 832.442 1194.56 828.15C1189.34 823.859 1185.79 818.387 1183.9 811.736C1181.89 804.649 1181.73 797.861 1183.43 791.373C1185.23 784.854 1188.54 779.264 1193.34 774.603C1198.25 769.912 1204.31 766.546 1211.5 764.505C1219.9 762.125 1227.63 762.172 1234.69 764.645C1241.75 767.119 1247.86 772.043 1253.02 779.417L1235.33 794.326C1234.65 793.578 1233.17 791.878 1230.88 789.227C1228.6 786.576 1226.24 784.89 1223.79 784.169C1221.43 783.308 1218.78 783.295 1215.83 784.129C1212.23 785.149 1209.78 787.083 1208.46 789.929C1207.26 792.744 1207.17 795.951 1208.19 799.549C1208.93 802.166 1210.32 804.364 1212.35 806.143C1214.47 807.781 1216.73 808.907 1219.14 809.519L1242.23 815.52C1259.19 819.664 1269.96 828.388 1274.56 841.692C1276.76 849.433 1276.96 856.797 1275.17 863.783C1273.46 870.63 1270.07 876.539 1265 881.51C1260.04 886.45 1253.91 889.956 1246.6 892.028ZM1301.05 875.175L1266.55 753.492L1290.04 744.712L1304.14 794.432L1327.03 787.94L1313.49 740.182L1336.98 731.403L1371.48 853.086L1347.99 861.866L1333.25 809.856L1310.35 816.348L1324.54 866.395L1301.05 875.175ZM1385.2 850.255L1376.68 721.735L1410.45 710.571L1471.45 824.742L1445.56 833.143L1433.67 808.063L1404.4 816.364L1406.63 844.18L1385.2 850.255ZM1403.25 795.485L1423.69 789.689L1395.76 734.173L1403.25 795.485ZM1450.15 699.314L1465.53 694.955C1477.85 691.461 1487.81 689.224 1495.43 688.243C1503.01 687.153 1510.34 688.491 1517.42 692.257C1524.6 695.992 1529.86 703.747 1533.2 715.523C1536.23 726.209 1536.14 735.012 1532.92 741.933C1529.77 748.714 1524.96 753.966 1518.48 757.69C1512.07 761.273 1504.34 764.347 1495.29 766.913L1508.7 814.18L1485.21 822.96L1450.15 699.314ZM1494.03 746.245C1500.35 744.452 1504.94 741.737 1507.8 738.1C1510.76 734.432 1511.26 729.108 1509.28 722.13C1507.33 715.261 1504.33 711.106 1500.27 709.666C1496.21 708.225 1490.52 708.541 1483.22 710.612L1479.78 711.586L1489.94 747.404L1494.03 746.245ZM1572.14 797.252L1537.36 674.587L1599.67 656.919L1603.14 676.611L1566.83 686.906L1575.13 716.182L1600.97 708.855L1606.65 729.509L1580.97 736.79L1590.76 771.299L1630.34 760.077L1633.8 779.769L1572.14 797.252Z" fill="#6F2D28"/>
</svg>
