<svg width="1440" height="1136" viewBox="0 0 1440 1136" fill="none" xmlns="http://www.w3.org/2000/svg">
<path opacity="0.05" d="M260.176 149.594L286.282 57.5129L237.557 142.121L222.837 137.948L224.061 39.5191L198.418 129.964L178.35 125.335L212.802 3.81453L248.245 12.8026L247.01 94.4414L287.2 26.8507L319.813 33.9765L285.593 154.679L260.176 149.594ZM298.717 159.46L358.918 45.5932L393.518 53.8124L385.515 183.008L359.068 176.571L362.118 148.986L332.842 140.686L320.142 165.535L298.717 159.46ZM342.822 122.312L363.266 128.108L368.627 66.1927L342.822 122.312ZM433.222 65.0689L448.596 69.4276C460.917 72.9208 470.576 76.2481 477.572 79.4096C484.599 82.4621 490.136 87.448 494.182 94.3673C498.337 101.318 498.746 110.681 495.407 122.456C492.377 133.142 487.676 140.585 481.302 144.786C475.067 148.908 468.214 150.853 460.741 150.619C453.408 150.307 445.216 148.868 436.166 146.302L422.766 193.569L398.167 188.716L433.222 65.0689ZM445.937 128.045C452.261 129.838 457.593 129.936 461.933 128.339C466.382 126.773 469.596 122.501 471.574 115.523C473.522 108.654 473.146 103.541 470.446 100.184C467.746 96.8264 462.743 94.1123 455.437 92.0411L452.003 91.0674L441.848 126.886L445.937 128.045ZM517.387 223.929C507.465 221.116 499.842 216.01 494.518 208.611C489.335 201.133 486.476 192.312 485.941 182.148L508.911 178.412L509.946 182.239C511.563 188.587 513.356 193.69 515.325 197.547C517.404 201.434 520.623 203.996 524.985 205.233C527.82 206.037 530.714 205.385 533.668 203.277C536.73 201.2 538.725 198.526 539.653 195.255C540.518 192.202 540.543 189.206 539.728 186.265C538.912 183.324 537.521 180.751 535.555 178.544L517.747 159.713C512.521 154.461 508.812 148.639 506.619 142.245C504.427 135.851 504.273 129.329 506.159 122.678C508.168 115.59 511.597 109.73 516.444 105.096C521.401 100.494 527.147 97.4698 533.682 96.0243C540.327 94.6097 547.247 94.9225 554.444 96.9627C562.839 99.343 569.394 103.439 574.107 109.252C578.821 115.065 581.435 122.462 581.952 131.443L559.074 134.853C558.886 133.857 558.515 131.631 557.963 128.176C557.411 124.721 556.285 122.046 554.584 120.15C553.024 118.176 550.771 116.772 547.827 115.937C544.229 114.917 541.124 115.274 538.512 117.007C536.009 118.772 534.248 121.453 533.228 125.051C532.486 127.668 532.515 130.268 533.314 132.85C534.253 135.355 535.588 137.5 537.32 139.287L553.818 156.51C566.079 168.939 570.675 182.022 567.605 195.759C565.41 203.5 561.718 209.875 556.529 214.883C551.479 219.812 545.493 223.063 538.568 224.634C531.753 226.235 524.693 226.001 517.387 223.929ZM694.616 272.762L720.722 180.681L671.997 265.289L657.277 261.116L658.501 162.687L632.858 253.133L612.79 248.503L647.243 126.983L682.685 135.971L681.45 217.61L721.64 150.019L754.253 157.145L720.033 277.848L694.616 272.762ZM733.157 282.629L793.358 168.762L827.958 176.981L819.955 306.177L793.508 299.739L796.558 272.155L767.282 263.855L754.583 288.703L733.157 282.629ZM777.262 245.48L797.706 251.276L803.068 189.361L777.262 245.48ZM867.662 188.237L883.036 192.596C895.357 196.089 905.016 199.416 912.012 202.578C919.04 205.63 924.576 210.616 928.622 217.536C932.777 224.486 933.186 233.849 929.847 245.625C926.818 256.31 922.116 263.753 915.742 267.954C909.508 272.077 902.654 274.021 895.181 273.787C887.848 273.475 879.657 272.036 870.607 269.471L857.206 316.738L832.607 311.884L867.662 188.237ZM880.377 251.213C886.701 253.006 892.033 253.104 896.373 251.508C900.822 249.942 904.036 245.67 906.015 238.691C907.962 231.822 907.586 226.709 904.886 223.352C902.186 219.995 897.183 217.281 889.878 215.209L886.443 214.236L876.288 250.054L880.377 251.213ZM951.827 347.098C941.905 344.285 934.282 339.179 928.958 331.779C923.775 324.302 920.916 315.481 920.381 305.316L943.351 301.58L944.387 305.407C946.003 311.756 947.796 316.858 949.765 320.715C951.844 324.603 955.064 327.165 959.425 328.401C962.26 329.205 965.154 328.553 968.108 326.445C971.17 324.369 973.165 321.695 974.093 318.424C974.958 315.371 974.983 312.374 974.168 309.433C973.352 306.493 971.961 303.919 969.995 301.712L952.187 282.881C946.961 277.63 943.252 271.807 941.059 265.413C938.867 259.02 938.713 252.497 940.599 245.846C942.608 238.759 946.037 232.898 950.884 228.265C955.841 223.662 961.587 220.638 968.123 219.193C974.767 217.778 981.687 218.091 988.884 220.131C997.28 222.511 1003.83 226.608 1008.55 232.42C1013.26 238.233 1015.88 245.63 1016.39 254.612L993.515 258.021C993.326 257.025 992.955 254.799 992.403 251.345C991.852 247.89 990.725 245.214 989.025 243.319C987.464 241.345 985.211 239.94 982.267 239.106C978.669 238.086 975.564 238.442 972.952 240.176C970.45 241.94 968.688 244.621 967.668 248.219C966.926 250.836 966.955 253.436 967.754 256.018C968.693 258.523 970.029 260.669 971.76 262.455L988.258 279.678C1000.52 292.107 1005.12 305.19 1002.05 318.927C999.85 326.669 996.158 333.043 990.969 338.051C985.92 342.981 979.933 346.231 973.008 347.802C966.193 349.404 959.133 349.169 951.827 347.098ZM1129.06 395.93L1155.16 303.85L1106.44 388.457L1091.72 384.284L1092.94 285.856L1067.3 376.301L1047.23 371.672L1081.68 250.151L1117.13 259.139L1115.89 340.778L1156.08 273.187L1188.69 280.313L1154.47 401.016L1129.06 395.93ZM1167.6 405.797L1227.8 291.93L1262.4 300.149L1254.4 429.345L1227.95 422.907L1231 395.323L1201.72 387.023L1189.02 411.871L1167.6 405.797ZM1211.7 368.649L1232.15 374.445L1237.51 312.529L1211.7 368.649ZM1302.1 311.406L1317.48 315.764C1329.8 319.257 1339.46 322.585 1346.45 325.746C1353.48 328.799 1359.02 333.785 1363.06 340.704C1367.22 347.654 1367.63 357.017 1364.29 368.793C1361.26 379.479 1356.56 386.922 1350.18 391.122C1343.95 395.245 1337.09 397.189 1329.62 396.956C1322.29 396.644 1314.1 395.205 1305.05 392.639L1291.65 439.906L1267.05 435.052L1302.1 311.406ZM1314.82 374.382C1321.14 376.175 1326.47 376.273 1330.81 374.676C1335.26 373.11 1338.48 368.838 1340.45 361.86C1342.4 354.99 1342.03 349.877 1339.33 346.52C1336.63 343.163 1331.62 340.449 1324.32 338.378L1320.88 337.404L1310.73 373.222L1314.82 374.382ZM1386.27 470.266C1376.35 467.453 1368.72 462.347 1363.4 454.948C1358.21 447.47 1355.36 438.649 1354.82 428.485L1377.79 424.748L1378.83 428.576C1380.44 434.924 1382.24 440.027 1384.21 443.883C1386.28 447.771 1389.5 450.333 1393.87 451.57C1396.7 452.373 1399.59 451.721 1402.55 449.614C1405.61 447.537 1407.61 444.863 1408.53 441.592C1409.4 438.539 1409.42 435.542 1408.61 432.602C1407.79 429.661 1406.4 427.087 1404.44 424.881L1386.63 406.049C1381.4 400.798 1377.69 394.976 1375.5 388.582C1373.31 382.188 1373.15 375.665 1375.04 369.014C1377.05 361.927 1380.48 356.067 1385.32 351.433C1390.28 346.831 1396.03 343.806 1402.56 342.361C1409.21 340.946 1416.13 341.259 1423.32 343.299C1431.72 345.68 1438.27 349.776 1442.99 355.589C1447.7 361.401 1450.32 368.799 1450.83 377.78L1427.95 381.189C1427.77 380.193 1427.4 377.968 1426.84 374.513C1426.29 371.058 1425.17 368.383 1423.46 366.487C1421.9 364.513 1419.65 363.109 1416.71 362.274C1413.11 361.254 1410 361.611 1407.39 363.344C1404.89 365.108 1403.13 367.789 1402.11 371.388C1401.37 374.004 1401.39 376.604 1402.19 379.187C1403.13 381.691 1404.47 383.837 1406.2 385.624L1422.7 402.847C1434.96 415.276 1439.56 428.359 1436.49 442.095C1434.29 449.837 1430.6 456.212 1425.41 461.219C1420.36 466.149 1414.37 469.399 1407.45 470.97C1400.63 472.572 1393.57 472.337 1386.27 470.266ZM167.437 476.702L193.543 384.621L144.818 469.229L130.098 465.055L131.322 366.627L105.68 457.072L85.6116 452.443L120.064 330.922L155.506 339.91L154.272 421.549L194.462 353.959L227.075 361.084L192.854 481.787L167.437 476.702ZM205.978 486.568L266.179 372.701L300.78 380.92L292.777 510.116L266.33 503.678L269.379 476.094L240.103 467.794L227.404 492.643L205.978 486.568ZM250.083 449.42L270.528 455.216L275.889 393.301L250.083 449.42ZM340.484 392.177L355.858 396.535C368.179 400.029 377.837 403.356 384.834 406.517C391.861 409.57 397.397 414.556 401.444 421.475C405.599 428.425 406.007 437.788 402.668 449.564C399.639 460.25 394.937 467.693 388.563 471.894C382.329 476.016 375.475 477.961 368.002 477.727C360.669 477.415 352.478 475.976 343.428 473.41L330.027 520.677L305.428 515.824L340.484 392.177ZM353.198 455.153C359.522 456.946 364.855 457.044 369.195 455.447C373.644 453.881 376.858 449.609 378.836 442.631C380.783 435.762 380.407 430.648 377.707 427.291C375.007 423.934 370.004 421.22 362.699 419.149L359.264 418.175L349.109 453.994L353.198 455.153ZM424.649 551.037C414.726 548.224 407.103 543.118 401.78 535.719C396.596 528.241 393.737 519.42 393.203 509.256L416.173 505.519L417.208 509.347C418.824 515.695 420.617 520.798 422.587 524.655C424.665 528.542 427.885 531.104 432.246 532.341C435.081 533.145 437.976 532.493 440.929 530.385C443.992 528.308 445.987 525.634 446.914 522.363C447.78 519.31 447.805 516.313 446.989 513.373C446.174 510.432 444.783 507.859 442.817 505.652L425.008 486.82C419.782 481.569 416.073 475.747 413.881 469.353C411.688 462.959 411.535 456.437 413.42 449.785C415.43 442.698 418.858 436.838 423.706 432.204C428.662 427.602 434.409 424.578 440.944 423.132C447.588 421.718 454.509 422.03 461.705 424.071C470.101 426.451 476.655 430.547 481.369 436.36C486.082 442.173 488.697 449.57 489.213 458.551L466.336 461.96C466.147 460.964 465.777 458.739 465.225 455.284C464.673 451.829 463.547 449.154 461.846 447.258C460.285 445.284 458.033 443.88 455.089 443.045C451.491 442.025 448.386 442.382 445.774 444.115C443.271 445.879 441.51 448.561 440.489 452.159C439.747 454.776 439.776 457.375 440.575 459.958C441.515 462.462 442.85 464.608 444.582 466.395L461.079 483.618C473.341 496.047 477.937 509.13 474.867 522.867C472.672 530.608 468.98 536.983 463.79 541.991C458.741 546.92 452.754 550.171 445.83 551.741C439.014 553.343 431.954 553.108 424.649 551.037ZM601.878 599.87L627.983 507.789L579.258 592.397L564.538 588.224L565.762 489.795L540.12 580.241L520.052 575.611L554.504 454.091L589.946 463.079L588.712 544.718L628.902 477.127L661.515 484.253L627.294 604.955L601.878 599.87ZM640.418 609.737L700.62 495.869L735.22 504.089L727.217 633.285L700.77 626.847L703.819 599.263L674.543 590.963L661.844 615.811L640.418 609.737ZM684.523 572.588L704.968 578.384L710.329 516.469L684.523 572.588ZM774.924 515.345L790.298 519.704C802.619 523.197 812.278 526.524 819.274 529.686C826.301 532.738 831.838 537.724 835.884 544.644C840.039 551.594 840.447 560.957 837.109 572.733C834.079 583.418 829.377 590.861 823.003 595.062C816.769 599.185 809.915 601.129 802.443 600.895C795.11 600.583 786.918 599.144 777.868 596.578L764.467 643.846L739.869 638.992L774.924 515.345ZM787.638 578.321C793.963 580.114 799.295 580.212 803.635 578.615C808.084 577.05 811.298 572.778 813.276 565.799C815.224 558.93 814.847 553.817 812.147 550.46C809.447 547.103 804.445 544.388 797.139 542.317L793.704 541.344L783.55 577.162L787.638 578.321ZM859.089 674.206C849.166 671.393 841.544 666.286 836.22 658.887C831.036 651.41 828.177 642.589 827.643 632.424L850.613 628.688L851.648 632.515C853.264 638.864 855.057 643.966 857.027 647.823C859.105 651.711 862.325 654.273 866.687 655.509C869.521 656.313 872.416 655.661 875.369 653.553C878.432 651.477 880.427 648.803 881.354 645.532C882.22 642.479 882.245 639.482 881.429 636.541C880.614 633.601 879.223 631.027 877.257 628.82L859.448 609.989C854.222 604.738 850.513 598.915 848.321 592.521C846.128 586.127 845.975 579.605 847.86 572.954C849.87 565.866 853.298 560.006 858.146 555.373C863.103 550.77 868.849 547.746 875.384 546.3C882.029 544.886 888.949 545.199 896.145 547.239C904.541 549.619 911.096 553.716 915.809 559.528C920.522 565.341 923.137 572.738 923.653 581.719L900.776 585.129C900.587 584.133 900.217 581.907 899.665 578.452C899.113 574.998 897.987 572.322 896.286 570.427C894.725 568.453 892.473 567.048 889.529 566.214C885.931 565.194 882.826 565.55 880.214 567.284C877.711 569.048 875.95 571.729 874.93 575.327C874.188 577.944 874.216 580.544 875.015 583.126C875.955 585.631 877.29 587.776 879.022 589.563L895.52 606.786C907.781 619.215 912.377 632.298 909.307 646.035C907.112 653.777 903.42 660.151 898.231 665.159C893.181 670.089 887.194 673.339 880.27 674.91C873.455 676.512 866.394 676.277 859.089 674.206ZM1036.32 723.038L1062.42 630.957L1013.7 715.565L998.979 711.392L1000.2 612.964L974.56 703.409L954.492 698.78L988.944 577.259L1024.39 586.247L1023.15 667.886L1063.34 600.295L1095.95 607.421L1061.73 728.124L1036.32 723.038ZM1074.86 732.905L1135.06 619.038L1169.66 627.257L1161.66 756.453L1135.21 750.015L1138.26 722.431L1108.98 714.131L1096.28 738.979L1074.86 732.905ZM1118.96 695.756L1139.41 701.553L1144.77 639.637L1118.96 695.756ZM1209.36 638.513L1224.74 642.872C1237.06 646.365 1246.72 649.693 1253.71 652.854C1260.74 655.907 1266.28 660.893 1270.32 667.812C1274.48 674.762 1274.89 684.125 1271.55 695.901C1268.52 706.587 1263.82 714.03 1257.44 718.23C1251.21 722.353 1244.36 724.297 1236.88 724.063C1229.55 723.751 1221.36 722.313 1212.31 719.747L1198.91 767.014L1174.31 762.16L1209.36 638.513ZM1222.08 701.489C1228.4 703.282 1233.73 703.381 1238.07 701.784C1242.52 700.218 1245.74 695.946 1247.72 688.968C1249.66 682.098 1249.29 676.985 1246.59 673.628C1243.89 670.271 1238.88 667.557 1231.58 665.486L1228.14 664.512L1217.99 700.33L1222.08 701.489ZM1293.53 797.374C1283.61 794.561 1275.98 789.455 1270.66 782.055C1265.48 774.578 1262.62 765.757 1262.08 755.593L1285.05 751.856L1286.09 755.684C1287.7 762.032 1289.5 767.134 1291.47 770.991C1293.55 774.879 1296.77 777.441 1301.13 778.677C1303.96 779.481 1306.86 778.829 1309.81 776.722C1312.87 774.645 1314.87 771.971 1315.79 768.7C1316.66 765.647 1316.68 762.65 1315.87 759.709C1315.05 756.769 1313.66 754.195 1311.7 751.989L1293.89 733.157C1288.66 727.906 1284.95 722.083 1282.76 715.69C1280.57 709.296 1280.41 702.773 1282.3 696.122C1284.31 689.035 1287.74 683.174 1292.59 678.541C1297.54 673.938 1303.29 670.914 1309.82 669.469C1316.47 668.054 1323.39 668.367 1330.59 670.407C1338.98 672.788 1345.54 676.884 1350.25 682.697C1354.96 688.509 1357.58 695.906 1358.09 704.888L1335.22 708.297C1335.03 707.301 1334.66 705.076 1334.11 701.621C1333.55 698.166 1332.43 695.491 1330.73 693.595C1329.17 691.621 1326.91 690.217 1323.97 689.382C1320.37 688.362 1317.27 688.719 1314.65 690.452C1312.15 692.216 1310.39 694.897 1309.37 698.495C1308.63 701.112 1308.66 703.712 1309.46 706.295C1310.39 708.799 1311.73 710.945 1313.46 712.731L1329.96 729.954C1342.22 742.384 1346.82 755.466 1343.75 769.203C1341.55 776.945 1337.86 783.32 1332.67 788.327C1327.62 793.257 1321.63 796.507 1314.71 798.078C1307.89 799.68 1300.83 799.445 1293.53 797.374ZM74.6989 803.81L100.805 711.729L52.0796 796.337L37.3597 792.163L38.5835 693.735L12.9413 784.18L-7.12693 779.551L27.3254 658.03L62.7677 667.018L61.5331 748.657L101.723 681.066L134.336 688.192L100.116 808.895L74.6989 803.81ZM113.24 813.676L173.441 699.809L208.041 708.028L200.038 837.224L173.591 830.786L176.641 803.202L147.365 794.902L134.665 819.75L113.24 813.676ZM157.345 776.528L177.789 782.324L183.15 720.408L157.345 776.528ZM247.745 719.285L263.119 723.643C275.44 727.137 285.099 730.464 292.095 733.625C299.122 736.678 304.659 741.664 308.705 748.583C312.86 755.533 313.269 764.896 309.93 776.672C306.9 787.358 302.199 794.801 295.825 799.002C289.59 803.124 282.737 805.068 275.264 804.835C267.931 804.523 259.739 803.084 250.689 800.518L237.289 847.785L212.69 842.931L247.745 719.285ZM260.46 782.261C266.784 784.054 272.116 784.152 276.456 782.555C280.905 780.989 284.119 776.717 286.097 769.739C288.045 762.87 287.669 757.756 284.969 754.399C282.269 751.042 277.266 748.328 269.96 746.257L266.526 745.283L256.371 781.101L260.46 782.261ZM331.91 878.145C321.988 875.332 314.365 870.226 309.041 862.827C303.858 855.349 300.999 846.528 300.464 836.364L323.434 832.627L324.469 836.455C326.086 842.803 327.879 847.906 329.848 851.762C331.927 855.65 335.146 858.212 339.508 859.449C342.343 860.252 345.237 859.6 348.191 857.493C351.253 855.416 353.248 852.742 354.176 849.471C355.041 846.418 355.066 843.421 354.251 840.481C353.435 837.54 352.044 834.966 350.078 832.76L332.27 813.928C327.044 808.677 323.335 802.855 321.142 796.461C318.95 790.067 318.796 783.545 320.682 776.893C322.691 769.806 326.12 763.946 330.967 759.312C335.924 754.71 341.67 751.686 348.205 750.24C354.85 748.825 361.77 749.138 368.967 751.178C377.362 753.559 383.917 757.655 388.63 763.468C393.343 769.281 395.958 776.678 396.475 785.659L373.597 789.068C373.409 788.072 373.038 785.847 372.486 782.392C371.934 778.937 370.808 776.262 369.107 774.366C367.547 772.392 365.294 770.988 362.35 770.153C358.752 769.133 355.647 769.49 353.035 771.223C350.532 772.987 348.771 775.668 347.751 779.267C347.009 781.884 347.038 784.483 347.837 787.066C348.776 789.57 350.111 791.716 351.843 793.503L368.341 810.726C380.602 823.155 385.198 836.238 382.128 849.975C379.933 857.716 376.241 864.091 371.052 869.098C366.002 874.028 360.016 877.278 353.091 878.849C346.276 880.451 339.216 880.216 331.91 878.145ZM509.139 926.978L535.245 834.897L486.52 919.505L471.8 915.332L473.024 816.903L447.381 907.349L427.313 902.719L461.766 781.199L497.208 790.187L495.973 871.825L536.163 804.235L568.776 811.361L534.556 932.063L509.139 926.978ZM547.68 936.844L607.881 822.977L642.481 831.196L634.478 960.392L608.031 953.955L611.081 926.371L581.805 918.07L569.106 942.919L547.68 936.844ZM591.785 899.696L612.229 905.492L617.591 843.577L591.785 899.696ZM682.185 842.453L697.559 846.812C709.88 850.305 719.539 853.632 726.535 856.794C733.562 859.846 739.099 864.832 743.145 871.751C747.3 878.702 747.709 888.065 744.37 899.841C741.341 910.526 736.639 917.969 730.265 922.17C724.03 926.292 717.177 928.237 709.704 928.003C702.371 927.691 694.18 926.252 685.13 923.686L671.729 970.953L647.13 966.1L682.185 842.453ZM694.9 905.429C701.224 907.222 706.556 907.32 710.896 905.723C715.345 904.157 718.559 899.885 720.538 892.907C722.485 886.038 722.109 880.925 719.409 877.568C716.709 874.21 711.706 871.496 704.401 869.425L700.966 868.451L690.811 904.27L694.9 905.429ZM766.35 1001.31C756.428 998.5 748.805 993.394 743.481 985.995C738.298 978.518 735.439 969.697 734.904 959.532L757.874 955.796L758.91 959.623C760.526 965.971 762.319 971.074 764.288 974.931C766.367 978.818 769.587 981.38 773.948 982.617C776.783 983.421 779.677 982.769 782.631 980.661C785.693 978.584 787.688 975.91 788.616 972.639C789.481 969.586 789.506 966.59 788.691 963.649C787.875 960.708 786.484 958.135 784.518 955.928L766.71 937.097C761.484 931.845 757.775 926.023 755.582 919.629C753.39 913.235 753.236 906.713 755.122 900.062C757.131 892.974 760.56 887.114 765.407 882.48C770.364 877.878 776.11 874.854 782.646 873.408C789.29 871.994 796.21 872.307 803.407 874.347C811.803 876.727 818.357 880.824 823.07 886.636C827.784 892.449 830.398 899.846 830.915 908.827L808.038 912.237C807.849 911.241 807.478 909.015 806.926 905.56C806.375 902.105 805.248 899.43 803.548 897.534C801.987 895.56 799.734 894.156 796.79 893.322C793.192 892.301 790.087 892.658 787.475 894.391C784.973 896.156 783.211 898.837 782.191 902.435C781.449 905.052 781.478 907.652 782.277 910.234C783.216 912.739 784.552 914.884 786.283 916.671L802.781 933.894C815.042 946.323 819.638 959.406 816.568 973.143C814.373 980.884 810.681 987.259 805.492 992.267C800.443 997.196 794.456 1000.45 787.531 1002.02C780.716 1003.62 773.656 1003.38 766.35 1001.31ZM943.579 1050.15L969.685 958.065L920.96 1042.67L906.24 1038.5L907.464 940.072L881.822 1030.52L861.753 1025.89L896.206 904.367L931.648 913.355L930.413 994.994L970.603 927.403L1003.22 934.529L968.996 1055.23L943.579 1050.15ZM982.12 1060.01L1042.32 946.146L1076.92 954.365L1068.92 1083.56L1042.47 1077.12L1045.52 1049.54L1016.24 1041.24L1003.55 1066.09L982.12 1060.01ZM1026.23 1022.86L1046.67 1028.66L1052.03 966.745L1026.23 1022.86ZM1116.63 965.621L1132 969.98C1144.32 973.473 1153.98 976.801 1160.98 979.962C1168 983.015 1173.54 988 1177.59 994.92C1181.74 1001.87 1182.15 1011.23 1178.81 1023.01C1175.78 1033.69 1171.08 1041.14 1164.7 1045.34C1158.47 1049.46 1151.62 1051.41 1144.14 1051.17C1136.81 1050.86 1128.62 1049.42 1119.57 1046.85L1106.17 1094.12L1081.57 1089.27L1116.63 965.621ZM1129.34 1028.6C1135.66 1030.39 1141 1030.49 1145.34 1028.89C1149.79 1027.33 1153 1023.05 1154.98 1016.08C1156.93 1009.21 1156.55 1004.09 1153.85 1000.74C1151.15 997.379 1146.15 994.665 1138.84 992.594L1135.41 991.62L1125.25 1027.44L1129.34 1028.6ZM1200.79 1124.48C1190.87 1121.67 1183.25 1116.56 1177.92 1109.16C1172.74 1101.69 1169.88 1092.86 1169.34 1082.7L1192.31 1078.96L1193.35 1082.79C1194.97 1089.14 1196.76 1094.24 1198.73 1098.1C1200.81 1101.99 1204.03 1104.55 1208.39 1105.79C1211.22 1106.59 1214.12 1105.94 1217.07 1103.83C1220.13 1101.75 1222.13 1099.08 1223.06 1095.81C1223.92 1092.75 1223.95 1089.76 1223.13 1086.82C1222.32 1083.88 1220.92 1081.3 1218.96 1079.1L1201.15 1060.26C1195.92 1055.01 1192.21 1049.19 1190.02 1042.8C1187.83 1036.4 1187.68 1029.88 1189.56 1023.23C1191.57 1016.14 1195 1010.28 1199.85 1005.65C1204.8 1001.05 1210.55 998.022 1217.09 996.577C1223.73 995.162 1230.65 995.475 1237.85 997.515C1246.24 999.895 1252.8 1003.99 1257.51 1009.8C1262.22 1015.62 1264.84 1023.01 1265.36 1032L1242.48 1035.4C1242.29 1034.41 1241.92 1032.18 1241.37 1028.73C1240.81 1025.27 1239.69 1022.6 1237.99 1020.7C1236.43 1018.73 1234.17 1017.32 1231.23 1016.49C1227.63 1015.47 1224.53 1015.83 1221.92 1017.56C1219.41 1019.32 1217.65 1022.01 1216.63 1025.6C1215.89 1028.22 1215.92 1030.82 1216.72 1033.4C1217.66 1035.91 1218.99 1038.05 1220.72 1039.84L1237.22 1057.06C1249.48 1069.49 1254.08 1082.57 1251.01 1096.31C1248.81 1104.05 1245.12 1110.43 1239.93 1115.44C1234.88 1120.36 1228.9 1123.62 1221.97 1125.19C1215.16 1126.79 1208.1 1126.55 1200.79 1124.48Z" fill="#6F2D28"/>
</svg>
