<svg width="1179" height="1054" viewBox="0 0 1179 1054" fill="none" xmlns="http://www.w3.org/2000/svg">
<path opacity="0.05" d="M211.054 133.814L240.684 29.3033L215.66 22.2088L222.884 3.58303L294.848 23.9855L287.46 42.5649L264.563 36.0732L235.489 138.622L211.054 133.814ZM273.133 151.414L307.631 29.7301L332.23 34.5838L297.732 156.268L273.133 151.414ZM355.146 41.0805L370.52 45.4393C382.841 48.9324 392.5 52.2597 399.496 55.4213C406.523 58.4738 412.06 63.4597 416.106 70.379C420.261 77.3292 420.669 86.6923 417.331 98.4681C414.301 109.154 409.599 116.597 403.225 120.797C396.991 124.92 390.138 126.864 382.665 126.63C375.332 126.319 367.14 124.88 358.09 122.314L344.689 169.581L320.091 164.727L355.146 41.0805ZM367.861 104.057C374.185 105.85 379.517 105.948 383.857 104.351C388.306 102.785 391.52 98.513 393.498 91.5347C395.446 84.6654 395.069 79.5522 392.369 76.1951C389.669 72.8381 384.667 70.1239 377.361 68.0528L373.927 67.079L363.772 102.897L367.861 104.057ZM439.311 199.941C429.389 197.128 421.766 192.022 416.442 184.623C411.258 177.145 408.399 168.324 407.865 158.16L430.835 154.423L431.87 158.251C433.487 164.599 435.279 169.702 437.249 173.558C439.327 177.446 442.547 180.008 446.909 181.245C449.744 182.048 452.638 181.396 455.591 179.289C458.654 177.212 460.649 174.538 461.576 171.267C462.442 168.214 462.467 165.217 461.651 162.277C460.836 159.336 459.445 156.762 457.479 154.556L439.67 135.724C434.444 130.473 430.735 124.651 428.543 118.257C426.35 111.863 426.197 105.34 428.083 98.6892C430.092 91.6019 433.52 85.7415 438.368 81.108C443.325 76.5055 449.071 73.4815 455.606 72.0359C462.251 70.6213 469.171 70.9341 476.367 72.9744C484.763 75.3546 491.318 79.4511 496.031 85.2638C500.744 91.0764 503.359 98.4735 503.876 107.455L480.998 110.864C480.809 109.868 480.439 107.643 479.887 104.188C479.335 100.733 478.209 98.0577 476.508 96.162C474.947 94.1881 472.695 92.7838 469.751 91.9491C466.153 90.929 463.048 91.2856 460.436 93.0189C457.933 94.7832 456.172 97.4644 455.152 101.063C454.41 103.679 454.438 106.279 455.238 108.862C456.177 111.366 457.512 113.512 459.244 115.299L475.742 132.522C488.003 144.951 492.599 158.034 489.529 171.77C487.334 179.512 483.642 185.887 478.453 190.894C473.403 195.824 467.416 199.074 460.492 200.645C453.677 202.247 446.616 202.012 439.311 199.941ZM556.472 233.157C550.366 231.426 545.37 228.479 541.485 224.314C537.71 220.181 535.193 215.345 533.937 209.805C532.82 204.188 533.081 198.489 534.719 192.711C536.945 184.86 541.042 178.718 547.011 174.285C552.98 169.851 560.048 166.319 568.216 163.687C566.368 158.569 565.112 153.029 564.446 147.068C563.78 141.107 564.204 135.455 565.719 130.112C567.326 124.443 570.026 119.907 573.817 116.505C577.749 113.026 582.329 110.79 587.558 109.799C592.786 108.808 598.181 109.1 603.742 110.677C609.085 112.191 613.643 114.603 617.417 117.911C621.191 121.219 623.776 125.192 625.171 129.828C626.566 134.464 626.537 139.345 625.084 144.469C621.807 156.027 611.714 164.828 594.804 170.871L603.15 198.152C605.495 195.283 607.978 191.923 610.602 188.072C613.365 184.144 615.723 180.395 617.677 176.826L634.209 187.697C629.122 197.328 621.514 206.716 611.382 215.859C613.179 219.078 615.239 221.782 617.563 223.973C619.996 226.194 623.059 228.063 626.752 229.582L620.909 250.189C614.912 248.489 610.308 246.654 607.098 244.683C603.996 242.744 601.68 240.732 600.15 238.649C598.651 236.457 596.534 232.912 593.8 228.014C587.875 231.046 581.637 233.106 575.085 234.194C568.673 235.203 562.469 234.858 556.472 233.157ZM589.567 156.311C589.769 156.015 592.124 154.149 596.631 150.715C601.248 147.312 604.221 143.266 605.55 138.578C606.354 135.743 606.006 133.229 604.507 131.037C603.148 128.767 601.324 127.308 599.034 126.659C596.744 126.009 594.425 126.294 592.077 127.513C589.76 128.623 588.184 130.65 587.349 133.594C586.762 135.666 586.588 138.149 586.827 141.045C587.207 143.862 587.86 147.581 588.788 152.202L589.567 156.311ZM568.014 213.636C571.067 214.501 574.181 214.736 577.356 214.34C580.64 213.976 583.534 213.324 586.039 212.385L573.199 179.766C569.341 180.91 565.99 182.964 563.147 185.927C560.444 188.813 558.598 192 557.609 195.489C556.465 199.524 556.761 203.259 558.496 206.696C560.262 210.024 563.435 212.337 568.014 213.636ZM692.132 270.205L721.762 165.694L696.739 158.6L703.963 139.974L775.927 160.376L768.539 178.956L745.641 172.464L716.568 275.012L692.132 270.205ZM802.946 242.427L793.624 239.784L778.647 292.612L754.211 287.805L788.988 165.14L818.379 172.412C832.445 176.4 842.654 182.357 849.006 190.283C855.389 198.101 856.942 207.789 853.665 219.346C851.501 226.979 848.197 232.816 843.753 236.857C839.418 240.929 833.952 243.796 827.355 245.46L830.755 275.226L834.365 304.875L809.004 304.576L802.946 242.427ZM806.809 224.439C812.479 226.047 817.22 226.154 821.031 224.76C824.982 223.289 827.885 219.282 829.74 212.74C832.615 202.6 829.037 196.108 819.005 193.264L807.72 190.064L798.632 222.121L806.809 224.439ZM846.69 314.024L881.188 192.34L905.787 197.193L871.288 318.877L846.69 314.024ZM926.641 338.104C912.576 334.117 904.462 324.925 902.3 310.529C900.247 296.165 901.863 279.66 907.149 261.015C909.993 250.983 914.038 241.705 919.282 233.179C924.527 224.652 930.888 218.21 938.367 213.851C945.986 209.415 954.266 208.464 963.207 210.999C970.077 212.946 975.471 216.773 979.39 222.478C983.418 228.214 985.821 234.903 986.6 242.545C987.518 250.109 986.926 257.598 984.824 265.013L961.275 259.573C962.666 254.667 963.425 248.874 963.551 242.195C963.709 235.408 961.334 231.318 956.427 229.927C951.303 228.474 946.6 231.558 942.319 239.18C938.038 246.801 934.274 256.336 931.028 267.785C927.01 281.959 924.87 293.663 924.608 302.895C924.378 312.018 927.37 317.46 933.585 319.222C937.946 320.459 941.78 318.778 945.087 314.178C948.424 309.47 951.417 303.486 954.064 296.226L973.952 303.985C971.726 311.836 968.346 318.77 963.813 324.788C959.31 330.698 953.87 334.928 947.493 337.478C941.115 340.029 934.165 340.237 926.641 338.104ZM1033.4 368.195L1028.32 305.087L1014.41 318.636L1003.42 357.398L979.376 350.582L1013.6 229.879L1038.2 234.732L1022.99 288.378L1067.31 242.986L1092.82 250.22L1052.12 293.456L1059.35 369.543L1033.4 368.195ZM1103.27 388.18C1093.35 385.367 1085.72 380.261 1080.4 372.862C1075.22 365.384 1072.36 356.563 1071.82 346.399L1094.79 342.663L1095.83 346.49C1097.45 352.838 1099.24 357.941 1101.21 361.798C1103.29 365.685 1106.51 368.247 1110.87 369.484C1113.7 370.288 1116.6 369.636 1119.55 367.528C1122.61 365.451 1124.61 362.777 1125.53 359.506C1126.4 356.453 1126.43 353.456 1125.61 350.516C1124.79 347.575 1123.4 345.002 1121.44 342.795L1103.63 323.963C1098.4 318.712 1094.69 312.89 1092.5 306.496C1090.31 300.102 1090.16 293.58 1092.04 286.928C1094.05 279.841 1097.48 273.981 1102.33 269.347C1107.28 264.745 1113.03 261.721 1119.56 260.275C1126.21 258.861 1133.13 259.173 1140.33 261.214C1148.72 263.594 1155.28 267.69 1159.99 273.503C1164.7 279.316 1167.32 286.713 1167.83 295.694L1144.96 299.103C1144.77 298.107 1144.4 295.882 1143.85 292.427C1143.29 288.972 1142.17 286.297 1140.47 284.401C1138.91 282.427 1136.65 281.023 1133.71 280.188C1130.11 279.168 1127.01 279.525 1124.39 281.258C1121.89 283.022 1120.13 285.704 1119.11 289.302C1118.37 291.919 1118.4 294.518 1119.2 297.101C1120.14 299.605 1121.47 301.751 1123.2 303.538L1139.7 320.761C1151.96 333.19 1156.56 346.273 1153.49 360.01C1151.29 367.751 1147.6 374.126 1142.41 379.134C1137.36 384.063 1131.37 387.314 1124.45 388.884C1117.64 390.486 1110.57 390.252 1103.27 388.18ZM118.315 460.922L147.945 356.411L122.921 349.317L130.146 330.691L202.11 351.093L194.722 369.673L171.824 363.181L142.751 465.729L118.315 460.922ZM180.394 478.522L214.893 356.838L239.492 361.692L204.993 483.376L180.394 478.522ZM262.407 368.188L277.781 372.547C290.102 376.04 299.761 379.368 306.757 382.529C313.785 385.582 319.321 390.568 323.367 397.487C327.522 404.437 327.931 413.8 324.592 425.576C321.563 436.262 316.861 443.705 310.487 447.905C304.253 452.028 297.399 453.972 289.926 453.738C282.593 453.426 274.402 451.988 265.352 449.422L251.951 496.689L227.352 491.835L262.407 368.188ZM275.122 431.164C281.446 432.957 286.778 433.055 291.118 431.459C295.567 429.893 298.781 425.621 300.76 418.643C302.707 411.773 302.331 406.66 299.631 403.303C296.931 399.946 291.928 397.232 284.623 395.161L281.188 394.187L271.033 430.005L275.122 431.164ZM346.572 527.049C336.65 524.236 329.027 519.13 323.703 511.73C318.52 504.253 315.661 495.432 315.126 485.267L338.096 481.531L339.132 485.359C340.748 491.707 342.541 496.809 344.51 500.666C346.589 504.554 349.809 507.116 354.17 508.352C357.005 509.156 359.899 508.504 362.853 506.397C365.915 504.32 367.91 501.646 368.838 498.375C369.703 495.322 369.728 492.325 368.913 489.384C368.097 486.444 366.707 483.87 364.741 481.664L346.932 462.832C341.706 457.581 337.997 451.758 335.804 445.365C333.612 438.971 333.458 432.448 335.344 425.797C337.353 418.71 340.782 412.849 345.629 408.216C350.586 403.613 356.332 400.589 362.868 399.144C369.512 397.729 376.433 398.042 383.629 400.082C392.025 402.463 398.579 406.559 403.292 412.372C408.006 418.184 410.621 425.581 411.137 434.563L388.26 437.972C388.071 436.976 387.7 434.751 387.149 431.296C386.597 427.841 385.47 425.166 383.77 423.27C382.209 421.296 379.956 419.892 377.012 419.057C373.414 418.037 370.309 418.393 367.697 420.127C365.195 421.891 363.433 424.572 362.413 428.17C361.671 430.787 361.7 433.387 362.499 435.97C363.438 438.474 364.774 440.62 366.505 442.406L383.003 459.629C395.264 472.058 399.86 485.141 396.79 498.878C394.595 506.62 390.903 512.994 385.714 518.002C380.665 522.932 374.678 526.182 367.753 527.753C360.938 529.355 353.878 529.12 346.572 527.049ZM463.733 560.265C457.627 558.534 452.632 555.587 448.747 551.422C444.971 547.289 442.455 542.453 441.198 536.913C440.081 531.296 440.342 525.597 441.981 519.818C444.206 511.968 448.304 505.826 454.273 501.392C460.241 496.959 467.31 493.426 475.477 490.794C473.63 485.677 472.373 480.137 471.707 474.176C471.041 468.215 471.466 462.563 472.98 457.22C474.588 451.55 477.287 447.015 481.079 443.613C485.01 440.134 489.59 437.898 494.819 436.907C500.048 435.915 505.443 436.208 511.003 437.785C516.346 439.299 520.905 441.711 524.679 445.019C528.453 448.327 531.037 452.299 532.432 456.936C533.827 461.572 533.798 466.452 532.345 471.577C529.069 483.135 518.975 491.936 502.066 497.979L510.411 525.26C512.756 522.391 515.24 519.031 517.863 515.18C520.626 511.252 522.985 507.503 524.939 503.934L541.47 514.805C536.384 524.436 528.775 533.824 518.644 542.967C520.44 546.186 522.501 548.89 524.825 551.08C527.258 553.302 530.321 555.171 534.013 556.689L528.171 577.297C522.174 575.597 517.57 573.762 514.359 571.791C511.257 569.851 508.941 567.84 507.411 565.757C505.912 563.565 503.796 560.02 501.061 555.122C495.136 558.154 488.898 560.214 482.346 561.302C475.934 562.311 469.73 561.966 463.733 560.265ZM496.829 483.419C497.031 483.122 499.385 481.257 503.893 477.823C508.509 474.42 511.482 470.374 512.812 465.686C513.615 462.851 513.268 460.337 511.769 458.145C510.41 455.875 508.585 454.416 506.296 453.766C504.006 453.117 501.687 453.402 499.339 454.621C497.021 455.731 495.445 457.758 494.611 460.702C494.023 462.774 493.849 465.257 494.089 468.152C494.468 470.969 495.122 474.689 496.05 479.31L496.829 483.419ZM475.276 540.743C478.329 541.609 481.443 541.844 484.618 541.448C487.902 541.083 490.796 540.432 493.3 539.492L480.461 506.873C476.602 508.018 473.252 510.072 470.409 513.035C467.706 515.921 465.86 519.108 464.871 522.597C463.727 526.632 464.022 530.367 465.757 533.804C467.523 537.132 470.696 539.445 475.276 540.743ZM599.394 597.313L629.024 492.802L604 485.707L611.224 467.082L683.188 487.484L675.8 506.064L652.903 499.572L623.829 602.12L599.394 597.313ZM710.208 569.535L700.885 566.892L685.908 619.72L661.473 614.913L696.25 492.248L725.641 499.52C739.706 503.508 749.915 509.465 756.267 517.391C762.65 525.209 764.203 534.896 760.927 546.454C758.763 554.087 755.459 559.924 751.015 563.965C746.68 568.037 741.214 570.904 734.616 572.568L738.016 602.334L741.626 631.983L716.266 631.684L710.208 569.535ZM714.071 551.547C719.741 553.154 724.481 553.262 728.293 551.868C732.244 550.397 735.147 546.39 737.001 539.848C739.876 529.708 736.298 523.215 726.267 520.371L714.982 517.172L705.893 549.228L714.071 551.547ZM753.951 641.132L788.45 519.447L813.049 524.301L778.55 645.985L753.951 641.132ZM833.903 665.212C819.837 661.225 811.723 652.033 809.561 637.637C807.508 623.273 809.125 606.768 814.411 588.123C817.255 578.091 821.299 568.813 826.544 560.286C831.788 551.76 838.15 545.318 845.629 540.959C853.248 536.523 861.528 535.572 870.469 538.106C877.338 540.054 882.732 543.88 886.651 549.586C890.68 555.322 893.083 562.011 893.861 569.653C894.78 577.217 894.188 584.706 892.086 592.121L868.536 586.681C869.927 581.775 870.686 575.982 870.813 569.303C870.97 562.515 868.596 558.426 863.689 557.035C858.564 555.582 853.861 558.666 849.58 566.287C845.299 573.909 841.536 583.444 838.29 594.892C834.271 609.067 832.131 620.771 831.87 630.003C831.639 639.126 834.631 644.568 840.847 646.33C845.208 647.567 849.042 645.885 852.348 641.286C855.686 636.578 858.678 630.594 861.325 623.334L881.213 631.093C878.988 638.944 875.608 645.878 871.075 651.896C866.572 657.806 861.132 662.036 854.754 664.586C848.377 667.137 841.426 667.345 833.903 665.212ZM940.662 695.303L935.583 632.195L921.67 645.743L910.68 684.506L886.638 677.689L920.858 556.987L945.457 561.84L930.248 615.486L974.57 570.094L1000.08 577.328L959.377 620.564L966.608 696.651L940.662 695.303ZM1010.53 715.288C1000.61 712.475 992.986 707.369 987.662 699.97C982.478 692.492 979.619 683.671 979.085 673.507L1002.06 669.77L1003.09 673.598C1004.71 679.946 1006.5 685.049 1008.47 688.905C1010.55 692.793 1013.77 695.355 1018.13 696.592C1020.96 697.395 1023.86 696.743 1026.81 694.636C1029.87 692.559 1031.87 689.885 1032.8 686.614C1033.66 683.561 1033.69 680.564 1032.87 677.624C1032.06 674.683 1030.67 672.109 1028.7 669.903L1010.89 651.071C1005.66 645.82 1001.96 639.998 999.763 633.604C997.57 627.21 997.417 620.688 999.303 614.036C1001.31 606.949 1004.74 601.089 1009.59 596.455C1014.54 591.853 1020.29 588.829 1026.83 587.383C1033.47 585.968 1040.39 586.281 1047.59 588.321C1055.98 590.702 1062.54 594.798 1067.25 600.611C1071.96 606.424 1074.58 613.821 1075.1 622.802L1052.22 626.211C1052.03 625.215 1051.66 622.99 1051.11 619.535C1050.56 616.08 1049.43 613.405 1047.73 611.509C1046.17 609.535 1043.92 608.131 1040.97 607.296C1037.37 606.276 1034.27 606.633 1031.66 608.366C1029.15 610.13 1027.39 612.812 1026.37 616.41C1025.63 619.027 1025.66 621.626 1026.46 624.209C1027.4 626.713 1028.73 628.859 1030.46 630.646L1046.96 647.869C1059.22 660.298 1063.82 673.381 1060.75 687.118C1058.55 694.859 1054.86 701.234 1049.67 706.242C1044.62 711.171 1038.64 714.421 1031.71 715.992C1024.9 717.594 1017.84 717.359 1010.53 715.288ZM25.5768 788.03L55.2067 683.519L30.183 676.425L37.4073 657.799L109.371 678.201L101.983 696.781L79.0856 690.289L50.0121 792.837L25.5768 788.03ZM87.6557 805.63L122.154 683.946L146.753 688.8L112.255 810.484L87.6557 805.63ZM169.669 695.296L185.043 699.655C197.364 703.148 207.023 706.475 214.019 709.637C221.046 712.689 226.583 717.675 230.629 724.595C234.784 731.545 235.192 740.908 231.854 752.684C228.824 763.369 224.122 770.812 217.748 775.013C211.514 779.136 204.66 781.08 197.188 780.846C189.855 780.534 181.663 779.095 172.613 776.53L159.212 823.797L134.614 818.943L169.669 695.296ZM182.384 758.272C188.708 760.065 194.04 760.163 198.38 758.567C202.829 757.001 206.043 752.729 208.021 745.75C209.969 738.881 209.592 733.768 206.892 730.411C204.192 727.054 199.19 724.34 191.884 722.269L188.45 721.295L178.295 757.113L182.384 758.272ZM253.834 854.157C243.912 851.344 236.289 846.238 230.965 838.838C225.781 831.361 222.922 822.54 222.388 812.375L245.358 808.639L246.393 812.467C248.01 818.815 249.802 823.917 251.772 827.774C253.85 831.662 257.07 834.224 261.432 835.46C264.266 836.264 267.161 835.612 270.114 833.504C273.177 831.428 275.172 828.754 276.099 825.483C276.965 822.43 276.99 819.433 276.174 816.492C275.359 813.552 273.968 810.978 272.002 808.771L254.193 789.94C248.967 784.689 245.258 778.866 243.066 772.472C240.873 766.079 240.72 759.556 242.606 752.905C244.615 745.818 248.043 739.957 252.891 735.324C257.848 730.721 263.594 727.697 270.129 726.252C276.774 724.837 283.694 725.15 290.89 727.19C299.286 729.57 305.841 733.667 310.554 739.48C315.267 745.292 317.882 752.689 318.399 761.671L295.521 765.08C295.332 764.084 294.962 761.859 294.41 758.404C293.858 754.949 292.732 752.273 291.031 750.378C289.47 748.404 287.218 747 284.274 746.165C280.676 745.145 277.571 745.501 274.959 747.235C272.456 748.999 270.695 751.68 269.675 755.278C268.933 757.895 268.961 760.495 269.761 763.077C270.7 765.582 272.035 767.728 273.767 769.514L290.265 786.737C302.526 799.166 307.122 812.249 304.052 825.986C301.857 833.728 298.165 840.102 292.976 845.11C287.926 850.04 281.939 853.29 275.015 854.861C268.2 856.463 261.139 856.228 253.834 854.157ZM370.995 887.373C364.889 885.642 359.893 882.694 356.008 878.53C352.233 874.397 349.716 869.561 348.46 864.021C347.343 858.403 347.604 852.705 349.242 846.926C351.468 839.076 355.565 832.934 361.534 828.5C367.503 824.067 374.571 820.534 382.739 817.902C380.891 812.784 379.635 807.245 378.969 801.284C378.303 795.323 378.727 789.671 380.242 784.328C381.849 778.658 384.549 774.123 388.34 770.721C392.272 767.242 396.852 765.006 402.081 764.015C407.309 763.023 412.704 763.316 418.265 764.892C423.608 766.407 428.166 768.819 431.94 772.127C435.714 775.435 438.299 779.407 439.694 784.044C441.089 788.68 441.06 793.56 439.607 798.685C436.33 810.243 426.237 819.043 409.327 825.087L417.673 852.368C420.017 849.499 422.501 846.139 425.125 842.288C427.888 838.359 430.246 834.611 432.2 831.042L448.732 841.913C443.645 851.544 436.036 860.931 425.905 870.075C427.702 873.293 429.762 875.998 432.086 878.188C434.519 880.41 437.582 882.279 441.275 883.797L435.432 904.405C429.435 902.705 424.831 900.869 421.62 898.899C418.519 896.959 416.203 894.948 414.673 892.865C413.174 890.673 411.057 887.128 408.323 882.23C402.398 885.262 396.159 887.322 389.608 888.409C383.196 889.419 376.992 889.073 370.995 887.373ZM404.09 810.526C404.292 810.23 406.647 808.365 411.154 804.931C415.771 801.528 418.744 797.482 420.073 792.794C420.877 789.959 420.529 787.445 419.03 785.253C417.671 782.983 415.847 781.524 413.557 780.874C411.267 780.225 408.948 780.51 406.6 781.729C404.283 782.839 402.707 784.866 401.872 787.81C401.285 789.882 401.111 792.365 401.35 795.26C401.73 798.077 402.383 801.797 403.311 806.418L404.09 810.526ZM382.537 867.851C385.59 868.717 388.704 868.952 391.879 868.556C395.163 868.191 398.057 867.539 400.562 866.6L387.722 833.981C383.864 835.126 380.513 837.18 377.67 840.143C374.967 843.029 373.121 846.216 372.132 849.705C370.988 853.739 371.284 857.475 373.019 860.912C374.785 864.24 377.958 866.553 382.537 867.851ZM506.655 924.421L536.285 819.91L511.262 812.815L518.486 794.19L590.45 814.592L583.062 833.171L560.164 826.68L531.091 929.228L506.655 924.421ZM617.469 896.643L608.147 894L593.17 946.828L568.734 942.021L603.511 819.355L632.902 826.628C646.968 830.616 657.177 836.573 663.529 844.499C669.912 852.317 671.465 862.004 668.188 873.562C666.024 881.195 662.72 887.031 658.276 891.072C653.941 895.144 648.475 898.012 641.878 899.676L645.278 929.442L648.888 959.091L623.527 958.792L617.469 896.643ZM621.332 878.655C627.002 880.262 631.743 880.369 635.554 878.976C639.505 877.505 642.408 873.498 644.263 866.956C647.138 856.815 643.56 850.323 633.528 847.479L622.243 844.28L613.155 876.336L621.332 878.655ZM661.213 968.239L695.711 846.555L720.31 851.409L685.811 973.093L661.213 968.239ZM741.164 992.32C727.099 988.332 718.985 979.141 716.823 964.745C714.77 950.381 716.386 933.876 721.672 915.23C724.516 905.199 728.561 895.92 733.805 887.394C739.049 878.868 745.411 872.426 752.89 868.067C760.509 863.63 768.789 862.679 777.73 865.214C784.6 867.162 789.994 870.988 793.913 876.694C797.941 882.43 800.344 889.119 801.123 896.761C802.041 904.325 801.449 911.814 799.347 919.229L775.798 913.789C777.189 908.882 777.948 903.09 778.074 896.411C778.232 889.623 775.857 885.534 770.95 884.143C765.826 882.69 761.123 885.774 756.842 893.395C752.561 901.017 748.797 910.552 745.551 922C741.533 936.175 739.393 947.878 739.131 957.111C738.901 966.234 741.893 971.676 748.108 973.438C752.469 974.675 756.303 972.993 759.61 968.394C762.947 963.686 765.94 957.702 768.587 950.442L788.475 958.201C786.249 966.051 782.869 972.986 778.336 979.004C773.833 984.913 768.393 989.143 762.016 991.694C755.638 994.244 748.688 994.453 741.164 992.32ZM847.923 1022.41L842.844 959.302L828.931 972.851L817.942 1011.61L793.899 1004.8L828.12 884.094L852.719 888.948L837.509 942.594L881.831 897.202L907.346 904.435L866.639 947.672L873.869 1023.76L847.923 1022.41ZM917.792 1042.4C907.87 1039.58 900.247 1034.48 894.924 1027.08C889.74 1019.6 886.881 1010.78 886.346 1000.61L909.317 996.878L910.352 1000.71C911.968 1007.05 913.761 1012.16 915.73 1016.01C917.809 1019.9 921.029 1022.46 925.39 1023.7C928.225 1024.5 931.119 1023.85 934.073 1021.74C937.136 1019.67 939.131 1016.99 940.058 1013.72C940.923 1010.67 940.948 1007.67 940.133 1004.73C939.317 1001.79 937.927 999.217 935.961 997.011L918.152 978.179C912.926 972.928 909.217 967.105 907.024 960.712C904.832 954.318 904.679 947.795 906.564 941.144C908.574 934.057 912.002 928.196 916.85 923.563C921.806 918.961 927.552 915.936 934.088 914.491C940.732 913.076 947.653 913.389 954.849 915.429C963.245 917.81 969.799 921.906 974.513 927.719C979.226 933.531 981.841 940.928 982.357 949.91L959.48 953.319C959.291 952.323 958.921 950.098 958.369 946.643C957.817 943.188 956.69 940.513 954.99 938.617C953.429 936.643 951.177 935.239 948.233 934.404C944.634 933.384 941.529 933.741 938.918 935.474C936.415 937.238 934.653 939.919 933.633 943.518C932.891 946.134 932.92 948.734 933.719 951.317C934.658 953.821 935.994 955.967 937.725 957.754L954.223 974.977C966.485 987.406 971.08 1000.49 968.01 1014.23C965.816 1021.97 962.124 1028.34 956.934 1033.35C951.885 1038.28 945.898 1041.53 938.974 1043.1C932.158 1044.7 925.098 1044.47 917.792 1042.4Z" fill="#6F2D28"/>
</svg>
