<svg width="115" height="78" viewBox="0 0 115 78" fill="none" xmlns="http://www.w3.org/2000/svg">
<path d="M14.4375 43.3984C14.4375 43.1797 14.4792 42.974 14.5625 42.7812C14.6458 42.5833 14.7604 42.4141 14.9062 42.2734C15.0521 42.1276 15.2214 42.013 15.4141 41.9297C15.612 41.8411 15.8203 41.7969 16.0391 41.7969H22.1172C22.3359 41.7969 22.5417 41.8411 22.7344 41.9297C22.9323 42.013 23.1042 42.1276 23.25 42.2734C23.3958 42.4141 23.5104 42.5833 23.5938 42.7812C23.6771 42.974 23.7188 43.1797 23.7188 43.3984V44.8438H22.1172V43.3984H16.0391V51.3984H22.1172V48.6797H19.0781V47.0781H23.7188V51.3984C23.7188 51.6172 23.6771 51.8255 23.5938 52.0234C23.5104 52.2161 23.3958 52.3854 23.25 52.5312C23.1042 52.6771 22.9323 52.7917 22.7344 52.875C22.5417 52.9583 22.3359 53 22.1172 53H16.0391C15.8203 53 15.612 52.9583 15.4141 52.875C15.2214 52.7917 15.0521 52.6771 14.9062 52.5312C14.7604 52.3854 14.6458 52.2161 14.5625 52.0234C14.4792 51.8255 14.4375 51.6172 14.4375 51.3984V43.3984ZM28.2887 41.4766V53H26.7575V41.4766H28.2887ZM31.1712 49.3672C31.1712 49.1536 31.2103 48.9557 31.2884 48.7734C31.3718 48.5859 31.4811 48.4219 31.6166 48.2812C31.7572 48.1406 31.9212 48.0312 32.1087 47.9531C32.2962 47.8698 32.4942 47.8281 32.7025 47.8281H36.6712V46.2188H31.6478V44.6797H36.6712C36.8848 44.6797 37.0853 44.7214 37.2728 44.8047C37.4603 44.8828 37.6218 44.9922 37.7572 45.1328C37.8978 45.2682 38.0072 45.4297 38.0853 45.6172C38.1686 45.8047 38.2103 46.0052 38.2103 46.2188V53H36.6712V51.5938C36.6556 51.7865 36.6035 51.9688 36.515 52.1406C36.4265 52.3125 36.3119 52.4635 36.1712 52.5938C36.0358 52.7188 35.8796 52.8177 35.7025 52.8906C35.5254 52.9635 35.3379 53 35.14 53H32.7025C32.4942 53 32.2962 52.9609 32.1087 52.8828C31.9212 52.7995 31.7572 52.6901 31.6166 52.5547C31.4811 52.4141 31.3718 52.25 31.2884 52.0625C31.2103 51.875 31.1712 51.6745 31.1712 51.4609V49.3672ZM32.7025 51.4609H36.6712V49.3672H32.7025V51.4609ZM46.1241 51.4609V49.5312H42.4756C42.2621 49.5312 42.0616 49.4922 41.8741 49.4141C41.6866 49.3307 41.5225 49.2214 41.3819 49.0859C41.2465 48.9453 41.1371 48.7812 41.0537 48.5938C40.9756 48.4062 40.9366 48.2057 40.9366 47.9922V46.2188C40.9366 46.0052 40.9756 45.8047 41.0537 45.6172C41.1371 45.4297 41.2465 45.2682 41.3819 45.1328C41.5225 44.9922 41.6866 44.8828 41.8741 44.8047C42.0616 44.7214 42.2621 44.6797 42.4756 44.6797H47.3428V46.2188H42.4756V47.9922H46.1241C46.3376 47.9922 46.5355 48.0339 46.7178 48.1172C46.9053 48.1953 47.0694 48.3047 47.21 48.4453C47.3506 48.5807 47.46 48.7422 47.5381 48.9297C47.6215 49.1172 47.6631 49.3177 47.6631 49.5312V51.4609C47.6631 51.6745 47.6215 51.875 47.5381 52.0625C47.46 52.25 47.3506 52.4141 47.21 52.5547C47.0694 52.6901 46.9053 52.7995 46.7178 52.8828C46.5355 52.9609 46.3376 53 46.1241 53H40.9366V51.4609H46.1241ZM55.4128 51.4609V49.5312H51.7644C51.5508 49.5312 51.3503 49.4922 51.1628 49.4141C50.9753 49.3307 50.8112 49.2214 50.6706 49.0859C50.5352 48.9453 50.4258 48.7812 50.3425 48.5938C50.2644 48.4062 50.2253 48.2057 50.2253 47.9922V46.2188C50.2253 46.0052 50.2644 45.8047 50.3425 45.6172C50.4258 45.4297 50.5352 45.2682 50.6706 45.1328C50.8112 44.9922 50.9753 44.8828 51.1628 44.8047C51.3503 44.7214 51.5508 44.6797 51.7644 44.6797H56.6316V46.2188H51.7644V47.9922H55.4128C55.6264 47.9922 55.8243 48.0339 56.0066 48.1172C56.1941 48.1953 56.3581 48.3047 56.4987 48.4453C56.6394 48.5807 56.7487 48.7422 56.8269 48.9297C56.9102 49.1172 56.9519 49.3177 56.9519 49.5312V51.4609C56.9519 51.6745 56.9102 51.875 56.8269 52.0625C56.7487 52.25 56.6394 52.4141 56.4987 52.5547C56.3581 52.6901 56.1941 52.7995 56.0066 52.8828C55.8243 52.9609 55.6264 53 55.4128 53H50.2253V51.4609H55.4128Z" fill="black"/>
<path d="M0.129645 26.8356C0.25929 50.7608 0.388935 54.0136 1.03716 56.282C3.28434 63.9432 8.81586 70.7056 15.6006 74.0012C24.2868 78.1956 35.0906 78.11 44.1225 73.7444C48.1415 71.8184 53.673 66.554 55.5745 62.8304C56.3091 61.4608 56.9574 60.348 57.087 60.348C57.2167 60.348 57.8649 61.4608 58.5995 62.8304C59.3342 64.2856 61.2789 66.6824 63.3532 68.7368C69.0576 74.472 75.6695 77.04 84.5285 77.04C93.2148 77.04 99.8699 74.472 105.488 68.9508C109.248 65.27 110.587 63.0444 112.532 57.566L113.915 53.714L114.044 26.8356L114.174 -7.62939e-06H110.241H106.352V15.0228V30.0456L103.759 27.4348C99.1352 22.8552 94.0358 20.5012 87.3807 19.7308C81.1146 19.046 74.9348 20.2016 69.4033 23.0264C65.6004 24.9952 60.7603 29.6604 58.7724 33.2556C57.9513 34.7536 57.2167 35.952 57.087 35.952C56.9574 35.952 56.2227 34.7536 55.4016 33.2556C54.5805 31.8004 52.5927 29.2752 50.8641 27.606C45.5054 22.3416 38.7639 19.688 30.7259 19.6024C22.0397 19.5596 15.3845 22.1704 10.1123 27.7344L7.82192 30.1312V15.0656V-7.62939e-06H3.93257H0L0.129645 26.8356ZM35.9549 27.3064C41.5728 28.7616 46.8451 33.0416 49.1787 38.1348L50.3455 40.66H55.4448H60.5442L60.4578 48.6636L60.3281 56.71L55.1423 56.8384L49.9565 56.9668L48.6601 59.3636C44.5115 67.2388 34.7449 71.5188 25.324 69.6356C16.3353 67.7952 10.3284 61.9744 8.47014 53.286C5.87724 41.1736 12.4891 29.9172 23.6386 27.2208C27.0958 26.3648 32.4977 26.4504 35.9549 27.3064ZM90.8379 27.3064C96.3262 28.7616 101.426 32.7848 103.846 37.7068L104.969 40.018L96.1534 40.1464L87.3375 40.232V41.944V43.656H90.7515H94.1655L94.3383 55.5116C94.4248 62.06 94.3383 67.624 94.1655 67.8808C93.6901 68.5228 89.4983 69.6784 86.3868 70.0208L83.8803 70.3204V55.2548V40.232H81.7196H79.5588V54.9552V69.6784L77.9599 69.2504C73.2062 67.9664 67.7179 63.8148 65.7732 60.0056C65.2547 58.9784 64.8657 57.4376 64.8657 56.282V54.356H69.4033H73.9409V52.644V50.932H69.4033H64.8657V47.294V43.656H70.2676H75.6695V41.944V40.232H69.8354C66.6375 40.232 64.0014 40.1464 64.0014 40.018C64.0014 39.8896 64.52 38.7768 65.125 37.5784C67.5883 32.742 73.0334 28.5476 78.5217 27.2208C81.9789 26.3648 87.3807 26.4504 90.8379 27.3064ZM106.093 44.9828C106.741 48.364 105.92 54.2276 104.191 58.0796C103.241 60.2196 99.9995 64.628 99.3945 64.628C99.1784 64.628 99.0056 59.92 99.0056 54.142V43.656H102.42H105.834L106.093 44.9828Z" fill="black"/>
</svg>
