<svg width="1687" height="1198" viewBox="0 0 1687 1198" fill="none" xmlns="http://www.w3.org/2000/svg">
<path opacity="0.05" d="M74.5669 532.068C60.5014 536.056 48.7706 532.491 39.3747 521.372C30.0877 510.223 22.801 495.326 17.5144 476.681C14.6702 466.649 13.2426 456.629 13.2316 446.619C13.2206 436.609 15.2544 427.786 19.3329 420.151C23.4895 412.375 30.0383 407.22 38.9792 404.685C45.8484 402.737 52.4482 403.163 58.7785 405.962C65.2179 408.731 70.7744 413.163 75.448 419.26C80.1997 425.216 83.6266 431.901 85.7289 439.316L62.829 447.046C61.4378 442.139 59.0433 436.81 55.6456 431.059C52.217 425.198 48.0494 422.964 43.1428 424.355C38.0182 425.808 35.6338 430.902 35.9899 439.636C36.3459 448.37 38.147 458.461 41.3931 469.91C45.4121 484.085 49.7332 495.17 54.3562 503.165C58.9483 511.052 64.3519 514.114 70.5669 512.352C74.9283 511.115 77.3093 507.671 77.7098 502.021C78.0795 496.262 77.4858 489.598 75.9287 482.029L96.9293 478.195C99.1552 486.045 99.9181 493.722 99.218 501.224C98.487 508.617 96.0766 515.073 91.9868 520.591C87.897 526.109 82.0904 529.935 74.5669 532.068ZM159.69 507.933C145.842 511.859 134.399 508.683 125.359 498.406C116.398 487.989 109.227 473.294 103.848 454.322C98.1286 434.151 96.7216 417.763 99.6269 405.159C102.532 392.555 110.636 384.367 123.938 380.596C149.344 373.392 167.936 390.562 179.714 432.104C185.001 450.749 186.502 467.052 184.216 481.011C182.04 494.94 173.864 503.914 159.69 507.933ZM154.545 488.541C160.324 486.902 163.073 482.058 162.794 474.009C162.483 465.851 160.148 454.085 155.789 438.711C152.296 426.39 148.479 416.458 144.337 408.915C140.274 401.232 135.298 398.226 129.411 399.895C123.523 401.564 120.85 406.681 121.393 415.244C121.937 423.807 123.955 434.249 127.448 446.57C131.838 462.053 135.988 473.364 139.896 480.502C143.883 487.5 148.766 490.179 154.545 488.541ZM273.287 474.31L215.72 407.759L236.912 482.503L215.765 489.559L181.264 367.876L206.009 359.8L258.421 423.748L238.295 352.766L258.019 345.053L292.52 466.736L273.287 474.31ZM331.893 457.693L302.26 353.183L277.236 360.278L273.61 340.632L345.573 320.228L349.036 339.92L326.139 346.412L355.215 448.96L331.893 457.693ZM384.207 441.8L375.685 313.28L409.451 302.116L470.448 416.287L444.558 424.688L432.676 399.608L403.4 407.909L405.632 435.725L384.207 441.8ZM402.251 387.031L422.695 381.234L394.762 325.718L402.251 387.031ZM517.948 406.353C503.883 410.341 492.152 406.776 482.756 395.657C473.469 384.508 466.182 369.611 460.896 350.965C458.052 340.934 456.624 330.914 456.613 320.904C456.602 310.894 458.636 302.071 462.714 294.436C466.871 286.66 473.42 281.505 482.361 278.97C489.23 277.022 495.83 277.448 502.16 280.247C508.599 283.016 514.156 287.448 518.829 293.544C523.581 299.501 527.008 306.186 529.11 313.601L506.21 321.331C504.819 316.424 502.425 311.095 499.027 305.344C495.598 299.483 491.431 297.249 486.524 298.64C481.4 300.093 479.015 305.187 479.371 313.921C479.727 322.655 481.528 332.746 484.775 344.195C488.794 358.37 493.115 369.455 497.738 377.45C502.33 385.337 507.733 388.399 513.948 386.636C518.31 385.4 520.691 381.956 521.091 376.306C521.461 370.547 520.867 363.883 519.31 356.314L540.311 352.48C542.537 360.33 543.299 368.007 542.599 375.509C541.868 382.902 539.458 389.358 535.368 394.876C531.278 400.394 525.472 404.22 517.948 406.353ZM585.527 385.778L555.895 281.268L530.871 288.363L527.244 268.717L599.208 248.313L602.671 268.005L579.773 274.498L608.849 377.045L585.527 385.778ZM723.561 348.054C711.349 351.517 701.077 350.188 692.745 344.069C684.413 337.95 678.439 328.512 674.822 315.755L651.774 234.469L675.538 226.671L699.421 310.9C700.626 315.153 701.864 318.689 703.135 321.509C704.515 324.299 706.48 326.451 709.03 327.966C711.58 329.481 714.872 329.667 718.907 328.523C722.723 327.441 725.21 325.617 726.367 323.051C727.602 320.344 728.036 317.512 727.668 314.553C727.27 311.486 726.437 307.717 725.169 303.246L701.936 221.306L723.296 213.13L745.833 292.616C749.11 304.174 749.788 315.291 747.868 325.966C746.056 336.611 737.954 343.973 723.561 348.054ZM813.247 322.625C803.325 325.438 794.156 325.093 785.741 321.589C777.404 317.945 770.341 311.937 764.551 303.566L782.142 288.329L785.032 291.044C789.74 295.599 793.944 299.001 797.644 301.25C801.454 303.469 805.539 303.96 809.901 302.723C812.736 301.919 814.857 299.845 816.265 296.501C817.782 293.126 818.077 289.803 817.149 286.532C816.283 283.479 814.732 280.915 812.494 278.84C810.257 276.765 807.722 275.304 804.891 274.458L779.848 267.775C772.644 266.049 766.431 263.039 761.208 258.748C755.986 254.456 752.432 248.985 750.547 242.334C748.537 235.246 748.38 228.458 750.074 221.97C751.877 215.451 755.181 209.861 759.985 205.201C764.899 200.509 770.953 197.143 778.15 195.103C786.545 192.722 794.275 192.769 801.337 195.243C808.4 197.717 814.508 202.641 819.662 210.014L801.978 224.924C801.295 224.175 799.811 222.475 797.528 219.824C795.245 217.173 792.882 215.487 790.44 214.766C788.075 213.905 785.421 213.892 782.477 214.727C778.879 215.747 776.423 217.68 775.109 220.526C773.905 223.341 773.813 226.548 774.833 230.146C775.575 232.763 776.964 234.961 779 236.74C781.114 238.379 783.377 239.504 785.788 240.116L808.871 246.117C825.831 250.261 836.609 258.985 841.206 272.289C843.401 280.031 843.604 287.394 841.816 294.381C840.105 301.227 836.715 307.136 831.645 312.107C826.685 317.048 820.552 320.554 813.247 322.625ZM941.365 286.299C927.299 290.287 915.568 286.722 906.172 275.603C896.886 264.454 889.599 249.556 884.312 230.911C881.468 220.88 880.04 210.859 880.029 200.849C880.018 190.839 882.052 182.017 886.131 174.381C890.287 166.606 896.836 161.451 905.777 158.916C912.646 156.968 919.246 157.394 925.576 160.193C932.016 162.961 937.572 167.394 942.246 173.49C946.997 179.447 950.424 186.132 952.527 193.546L929.627 201.276C928.236 196.37 925.841 191.041 922.443 185.289C919.015 179.429 914.847 177.195 909.941 178.586C904.816 180.039 902.432 185.132 902.788 193.867C903.144 202.601 904.945 212.692 908.191 224.141C912.21 238.315 916.531 249.4 921.154 257.396C925.746 265.282 931.15 268.344 937.365 266.582C941.726 265.346 944.107 261.902 944.508 256.252C944.877 250.493 944.284 243.829 942.727 236.26L963.727 232.426C965.953 240.276 966.716 247.952 966.016 255.455C965.285 262.848 962.874 269.303 958.785 274.822C954.695 280.34 948.888 284.166 941.365 286.299ZM1026.49 262.163C1012.64 266.09 1001.2 262.914 992.157 252.637C983.195 242.22 976.025 227.525 970.646 208.553C964.926 188.381 963.519 171.994 966.425 159.39C969.33 146.786 977.434 138.598 990.736 134.826C1016.14 127.623 1034.73 144.793 1046.51 186.335C1051.8 204.98 1053.3 221.282 1051.01 235.242C1048.84 249.17 1040.66 258.144 1026.49 262.163ZM1021.34 242.771C1027.12 241.133 1029.87 236.289 1029.59 228.24C1029.28 220.082 1026.95 208.316 1022.59 192.942C1019.09 180.621 1015.28 170.689 1011.14 163.146C1007.07 155.463 1002.1 152.456 996.208 154.126C990.32 155.795 987.648 160.911 988.191 169.475C988.734 178.038 990.753 188.48 994.246 200.801C998.636 216.284 1002.79 227.594 1006.69 234.732C1010.68 241.73 1015.56 244.41 1021.34 242.771ZM1140.08 228.541L1082.52 161.99L1103.71 236.734L1082.56 243.79L1048.06 122.107L1072.81 114.03L1125.22 177.978L1105.09 106.996L1124.82 99.2836L1159.32 220.967L1140.08 228.541ZM1198.69 211.924L1169.06 107.414L1144.03 114.509L1140.41 94.8629L1212.37 74.4586L1215.83 94.1508L1192.94 100.643L1222.01 203.191L1198.69 211.924ZM1251 196.031L1242.48 67.511L1276.25 56.347L1337.25 170.518L1311.36 178.919L1299.47 153.839L1270.2 162.14L1272.43 189.956L1251 196.031ZM1269.05 141.261L1289.49 135.465L1261.56 79.9489L1269.05 141.261ZM1384.75 160.584C1370.68 164.572 1358.95 161.007 1349.55 149.888C1340.27 138.738 1332.98 123.841 1327.69 105.196C1324.85 95.1649 1323.42 85.1443 1323.41 75.1344C1323.4 65.1244 1325.43 56.3017 1329.51 48.6662C1333.67 40.8908 1340.22 35.7356 1349.16 33.2005C1356.03 31.2528 1362.63 31.6786 1368.96 34.478C1375.4 37.2464 1380.95 41.6788 1385.63 47.7751C1390.38 53.7315 1393.81 60.4169 1395.91 67.8313L1373.01 75.5612C1371.62 70.6546 1369.22 65.3256 1365.82 59.5744C1362.4 53.7141 1358.23 51.4795 1353.32 52.8707C1348.2 54.3237 1345.81 59.4173 1346.17 68.1514C1346.53 76.8855 1348.33 86.977 1351.57 98.4257C1355.59 112.6 1359.91 123.685 1364.54 131.681C1369.13 139.567 1374.53 142.629 1380.75 140.867C1385.11 139.63 1387.49 136.187 1387.89 130.537C1388.26 124.778 1387.67 118.113 1386.11 110.545L1407.11 106.71C1409.33 114.561 1410.1 122.237 1409.4 129.74C1408.67 137.133 1406.26 143.588 1402.17 149.107C1398.08 154.625 1392.27 158.451 1384.75 160.584ZM1452.32 140.009L1422.69 35.4987L1397.67 42.5939L1394.04 22.9481L1466.01 2.54382L1469.47 22.236L1446.57 28.7282L1475.65 131.276L1452.32 140.009ZM167.314 859.174C153.248 863.162 141.517 859.597 132.121 848.478C122.834 837.328 115.548 822.431 110.261 803.786C107.417 793.755 105.989 783.734 105.978 773.724C105.967 763.714 108.001 754.892 112.079 747.256C116.236 739.481 122.785 734.326 131.726 731.79C138.595 729.843 145.195 730.269 151.525 733.068C157.965 735.836 163.521 740.269 168.195 746.365C172.946 752.322 176.373 759.007 178.475 766.421L155.576 774.151C154.184 769.245 151.79 763.916 148.392 758.164C144.964 752.304 140.796 750.07 135.889 751.461C130.765 752.914 128.38 758.007 128.736 766.741C129.092 775.476 130.894 785.567 134.14 797.016C138.159 811.19 142.48 822.275 147.103 830.271C151.695 838.157 157.098 841.219 163.313 839.457C167.675 838.22 170.056 834.777 170.456 829.127C170.826 823.368 170.232 816.703 168.675 809.135L189.676 805.3C191.902 813.151 192.665 820.827 191.965 828.33C191.234 835.723 188.823 842.178 184.733 847.697C180.644 853.215 174.837 857.041 167.314 859.174ZM252.436 835.038C238.589 838.964 227.145 835.789 218.106 825.512C209.144 815.095 201.974 800.4 196.595 781.428C190.875 761.256 189.468 744.869 192.374 732.265C195.279 719.661 203.383 711.473 216.685 707.701C242.09 700.498 260.682 717.668 272.461 759.21C277.748 777.855 279.248 794.157 276.963 808.117C274.786 822.045 266.611 831.019 252.436 835.038ZM247.291 815.646C253.07 814.008 255.82 809.164 255.54 801.115C255.23 792.957 252.895 781.191 248.536 765.817C245.043 753.496 241.225 743.564 237.084 736.021C233.021 728.338 228.045 725.331 222.157 727.001C216.269 728.67 213.597 733.786 214.14 742.35C214.683 750.913 216.702 761.355 220.195 773.676C224.585 789.159 228.734 800.469 232.643 807.607C236.63 814.605 241.513 817.285 247.291 815.646ZM366.034 801.416L308.466 734.865L329.659 809.609L308.512 816.665L274.01 694.982L298.755 686.905L351.167 750.853L331.041 679.871L350.765 672.158L385.267 793.842L366.034 801.416ZM424.639 784.799L395.007 680.288L369.983 687.384L366.356 667.738L438.32 647.334L441.783 667.026L418.885 673.518L447.961 776.066L424.639 784.799ZM476.953 768.905L468.432 640.386L502.197 629.222L563.194 743.393L537.304 751.794L525.422 726.714L496.146 735.015L498.379 762.831L476.953 768.905ZM494.997 714.136L515.442 708.34L487.508 652.824L494.997 714.136ZM610.695 733.459C596.629 737.447 584.899 733.881 575.503 722.763C566.216 711.613 558.929 696.716 553.642 678.071C550.798 668.04 549.371 658.019 549.36 648.009C549.349 637.999 551.382 629.177 555.461 621.541C559.617 613.766 566.166 608.61 575.107 606.075C581.976 604.128 588.576 604.554 594.907 607.353C601.346 610.121 606.902 614.554 611.576 620.65C616.328 626.606 619.755 633.292 621.857 640.706L598.957 648.436C597.566 643.53 595.171 638.201 591.774 632.449C588.345 626.589 584.177 624.354 579.271 625.746C574.146 627.199 571.762 632.292 572.118 641.026C572.474 649.76 574.275 659.852 577.521 671.301C581.54 685.475 585.861 696.56 590.484 704.556C595.076 712.442 600.48 715.504 606.695 713.742C611.056 712.505 613.437 709.062 613.838 703.412C614.207 697.653 613.614 690.988 612.057 683.419L633.057 679.585C635.283 687.436 636.046 695.112 635.346 702.614C634.615 710.008 632.205 716.463 628.115 721.981C624.025 727.5 618.218 731.325 610.695 733.459ZM678.274 712.884L648.641 608.374L623.618 615.469L619.991 595.823L691.954 575.419L695.417 595.111L672.52 601.603L701.596 704.151L678.274 712.884ZM816.308 675.16C804.096 678.622 793.824 677.294 785.492 671.175C777.16 665.055 771.185 655.617 767.568 642.86L744.521 561.574L768.285 553.776L792.167 638.006C793.373 642.258 794.611 645.795 795.882 648.615C797.262 651.404 799.227 653.557 801.777 655.072C804.327 656.587 807.619 656.773 811.653 655.629C815.47 654.547 817.956 652.722 819.113 650.156C820.349 647.45 820.783 644.617 820.415 641.659C820.016 638.591 819.183 634.822 817.916 630.352L794.683 548.412L816.042 540.235L838.58 619.722C841.857 631.28 842.535 642.396 840.614 653.072C838.802 663.716 830.7 671.079 816.308 675.16ZM905.993 649.731C896.071 652.544 886.902 652.198 878.487 648.694C870.151 645.05 863.087 639.043 857.297 630.671L874.888 615.435L877.778 618.149C882.486 622.705 886.69 626.107 890.391 628.356C894.201 630.574 898.286 631.065 902.647 629.828C905.482 629.025 907.604 626.951 909.012 623.606C910.528 620.231 910.823 616.908 909.896 613.637C909.03 610.584 907.478 608.02 905.241 605.945C903.003 603.87 900.469 602.41 897.637 601.563L872.595 594.881C865.39 593.154 859.177 590.145 853.955 585.853C848.733 581.562 845.179 576.09 843.293 569.439C841.284 562.352 841.126 555.564 842.82 549.076C844.624 542.557 847.928 536.967 852.732 532.306C857.645 527.615 863.7 524.249 870.896 522.208C879.292 519.828 887.021 519.874 894.084 522.348C901.146 524.822 907.255 529.746 912.408 537.12L894.725 552.029C894.041 551.281 892.558 549.581 890.275 546.93C887.992 544.279 885.629 542.593 883.186 541.871C880.822 541.011 878.167 540.997 875.223 541.832C871.625 542.852 869.169 544.786 867.856 547.632C866.652 550.447 866.56 553.654 867.58 557.252C868.322 559.869 869.711 562.067 871.746 563.845C873.86 565.484 876.123 566.61 878.535 567.222L901.617 573.223C918.578 577.367 929.356 586.091 933.953 599.395C936.148 607.136 936.351 614.5 934.562 621.486C932.852 628.333 929.461 634.241 924.392 639.213C919.432 644.153 913.299 647.659 905.993 649.731ZM1034.11 613.404C1020.05 617.392 1008.32 613.827 998.919 602.709C989.632 591.559 982.345 576.662 977.059 558.017C974.215 547.986 972.787 537.965 972.776 527.955C972.765 517.945 974.799 509.122 978.877 501.487C983.034 493.711 989.583 488.556 998.524 486.021C1005.39 484.073 1011.99 484.499 1018.32 487.299C1024.76 490.067 1030.32 494.499 1034.99 500.596C1039.74 506.552 1043.17 513.238 1045.27 520.652L1022.37 528.382C1020.98 523.475 1018.59 518.146 1015.19 512.395C1011.76 506.535 1007.59 504.3 1002.69 505.691C997.563 507.144 995.178 512.238 995.534 520.972C995.89 529.706 997.691 539.798 1000.94 551.246C1004.96 565.421 1009.28 576.506 1013.9 584.501C1018.49 592.388 1023.9 595.45 1030.11 593.688C1034.47 592.451 1036.85 589.008 1037.25 583.357C1037.62 577.598 1037.03 570.934 1035.47 563.365L1056.47 559.531C1058.7 567.382 1059.46 575.058 1058.76 582.56C1058.03 589.953 1055.62 596.409 1051.53 601.927C1047.44 607.445 1041.63 611.271 1034.11 613.404ZM1119.23 589.269C1105.39 593.195 1093.94 590.02 1084.9 579.742C1075.94 569.325 1068.77 554.631 1063.39 535.658C1057.67 515.487 1056.27 499.099 1059.17 486.495C1062.08 473.892 1070.18 465.704 1083.48 461.932C1108.89 454.729 1127.48 471.898 1139.26 513.441C1144.55 532.086 1146.05 548.388 1143.76 562.347C1141.58 576.276 1133.41 585.25 1119.23 589.269ZM1114.09 569.877C1119.87 568.238 1122.62 563.395 1122.34 555.346C1122.03 547.188 1119.69 535.422 1115.33 520.048C1111.84 507.727 1108.02 497.795 1103.88 490.252C1099.82 482.569 1094.84 479.562 1088.95 481.231C1083.07 482.901 1080.39 488.017 1080.94 496.58C1081.48 505.144 1083.5 515.586 1086.99 527.907C1091.38 543.39 1095.53 554.7 1099.44 561.838C1103.43 568.836 1108.31 571.515 1114.09 569.877ZM1232.83 555.646L1175.26 489.096L1196.46 563.839L1175.31 570.896L1140.81 449.212L1165.55 441.136L1217.97 505.084L1197.84 434.102L1217.56 426.389L1252.06 548.072L1232.83 555.646ZM1291.44 539.029L1261.8 434.519L1236.78 441.614L1233.15 421.968L1305.12 401.564L1308.58 421.256L1285.68 427.749L1314.76 530.296L1291.44 539.029ZM1343.75 523.136L1335.23 394.617L1369 383.453L1429.99 497.623L1404.1 506.024L1392.22 480.944L1362.94 489.245L1365.18 517.061L1343.75 523.136ZM1361.8 468.367L1382.24 462.57L1354.31 407.055L1361.8 468.367ZM1477.49 487.689C1463.43 491.677 1451.7 488.112 1442.3 476.994C1433.01 465.844 1425.73 450.947 1420.44 432.302C1417.6 422.27 1416.17 412.25 1416.16 402.24C1416.15 392.23 1418.18 383.407 1422.26 375.772C1426.42 367.996 1432.96 362.841 1441.9 360.306C1448.77 358.358 1455.37 358.784 1461.7 361.584C1468.14 364.352 1473.7 368.784 1478.37 374.881C1483.13 380.837 1486.55 387.522 1488.65 394.937L1465.75 402.667C1464.36 397.76 1461.97 392.431 1458.57 386.68C1455.14 380.82 1450.98 378.585 1446.07 379.976C1440.94 381.429 1438.56 386.523 1438.92 395.257C1439.27 403.991 1441.07 414.083 1444.32 425.531C1448.34 439.706 1452.66 450.791 1457.28 458.786C1461.87 466.673 1467.28 469.735 1473.49 467.973C1477.85 466.736 1480.24 463.293 1480.64 457.642C1481.01 451.883 1480.41 445.219 1478.85 437.65L1499.86 433.816C1502.08 441.667 1502.84 449.343 1502.14 456.845C1501.41 464.238 1499 470.694 1494.91 476.212C1490.82 481.73 1485.02 485.556 1477.49 487.689ZM1545.07 467.115L1515.44 362.604L1490.42 369.699L1486.79 350.054L1558.75 329.649L1562.22 349.342L1539.32 355.834L1568.39 458.381L1545.07 467.115ZM260.06 1186.28C245.995 1190.27 234.264 1186.7 224.868 1175.58C215.581 1164.43 208.294 1149.54 203.008 1130.89C200.163 1120.86 198.736 1110.84 198.725 1100.83C198.714 1090.82 200.748 1082 204.826 1074.36C208.983 1066.59 215.531 1061.43 224.472 1058.9C231.342 1056.95 237.941 1057.37 244.272 1060.17C250.711 1062.94 256.268 1067.37 260.941 1073.47C265.693 1079.43 269.12 1086.11 271.222 1093.53L248.322 1101.26C246.931 1096.35 244.536 1091.02 241.139 1085.27C237.71 1079.41 233.543 1077.18 228.636 1078.57C223.511 1080.02 221.127 1085.11 221.483 1093.85C221.839 1102.58 223.64 1112.67 226.886 1124.12C230.905 1138.3 235.226 1149.38 239.849 1157.38C244.441 1165.26 249.845 1168.32 256.06 1166.56C260.421 1165.33 262.802 1161.88 263.203 1156.23C263.573 1150.47 262.979 1143.81 261.422 1136.24L282.422 1132.41C284.648 1140.26 285.411 1147.93 284.711 1155.44C283.98 1162.83 281.57 1169.28 277.48 1174.8C273.39 1180.32 267.584 1184.15 260.06 1186.28ZM345.183 1162.14C331.335 1166.07 319.892 1162.89 310.852 1152.62C301.891 1142.2 294.72 1127.51 289.341 1108.53C283.622 1088.36 282.215 1071.97 285.12 1059.37C288.025 1046.77 296.129 1038.58 309.432 1034.81C334.837 1027.6 353.429 1044.77 365.208 1086.32C370.494 1104.96 371.995 1121.26 369.709 1135.22C367.533 1149.15 359.357 1158.12 345.183 1162.14ZM340.038 1142.75C345.817 1141.11 348.566 1136.27 348.287 1128.22C347.976 1120.06 345.642 1108.3 341.283 1092.92C337.789 1080.6 333.972 1070.67 329.83 1063.13C325.767 1055.44 320.792 1052.44 314.904 1054.11C309.016 1055.78 306.343 1060.89 306.887 1069.46C307.43 1078.02 309.448 1088.46 312.942 1100.78C317.332 1116.26 321.481 1127.57 325.39 1134.71C329.376 1141.71 334.259 1144.39 340.038 1142.75ZM458.78 1128.52L401.213 1061.97L422.406 1136.71L401.258 1143.77L366.757 1022.09L391.502 1014.01L443.914 1077.96L423.788 1006.98L443.512 999.264L478.014 1120.95L458.78 1128.52ZM517.386 1111.9L487.753 1007.39L462.73 1014.49L459.103 994.843L531.066 974.439L534.529 994.131L511.632 1000.62L540.708 1103.17L517.386 1111.9ZM569.7 1096.01L561.179 967.491L594.944 956.327L655.941 1070.5L630.051 1078.9L618.169 1053.82L588.893 1062.12L591.125 1089.94L569.7 1096.01ZM587.744 1041.24L608.188 1035.45L580.255 979.929L587.744 1041.24ZM703.441 1060.56C689.376 1064.55 677.645 1060.99 668.249 1049.87C658.962 1038.72 651.675 1023.82 646.389 1005.18C643.545 995.145 642.117 985.125 642.106 975.115C642.095 965.105 644.129 956.282 648.207 948.647C652.364 940.871 658.913 935.716 667.854 933.181C674.723 931.233 681.323 931.659 687.653 934.458C694.092 937.227 699.649 941.659 704.323 947.756C709.074 953.712 712.501 960.397 714.603 967.812L691.704 975.542C690.312 970.635 687.918 965.306 684.52 959.555C681.092 953.695 676.924 951.46 672.017 952.851C666.893 954.304 664.508 959.398 664.864 968.132C665.22 976.866 667.022 986.957 670.268 998.406C674.287 1012.58 678.608 1023.67 683.231 1031.66C687.823 1039.55 693.226 1042.61 699.441 1040.85C703.803 1039.61 706.184 1036.17 706.584 1030.52C706.954 1024.76 706.36 1018.09 704.803 1010.53L725.804 1006.69C728.03 1014.54 728.793 1022.22 728.093 1029.72C727.362 1037.11 724.951 1043.57 720.861 1049.09C716.772 1054.61 710.965 1058.43 703.441 1060.56ZM771.02 1039.99L741.388 935.479L716.364 942.574L712.738 922.929L784.701 902.524L788.164 922.216L765.266 928.709L794.343 1031.26L771.02 1039.99ZM909.054 1002.27C896.842 1005.73 886.57 1004.4 878.238 998.28C869.907 992.161 863.932 982.723 860.315 969.966L837.267 888.68L861.031 880.882L884.914 965.111C886.119 969.364 887.358 972.9 888.628 975.72C890.008 978.51 891.973 980.662 894.523 982.177C897.073 983.692 900.366 983.878 904.4 982.734C908.216 981.652 910.703 979.828 911.86 977.262C913.095 974.555 913.529 971.723 913.161 968.764C912.763 965.697 911.93 961.928 910.662 957.457L887.429 875.517L908.789 867.341L931.326 946.827C934.603 958.385 935.281 969.502 933.361 980.177C931.549 990.822 923.447 998.185 909.054 1002.27ZM998.74 976.836C988.818 979.649 979.649 979.304 971.234 975.8C962.897 972.156 955.834 966.148 950.044 957.777L967.635 942.54L970.525 945.255C975.233 949.81 979.437 953.212 983.138 955.462C986.947 957.68 991.033 958.171 995.394 956.934C998.229 956.13 1000.35 954.056 1001.76 950.712C1003.27 947.337 1003.57 944.014 1002.64 940.743C1001.78 937.69 1000.22 935.126 997.987 933.051C995.75 930.976 993.215 929.515 990.384 928.669L965.341 921.987C958.137 920.26 951.924 917.25 946.702 912.959C941.48 908.667 937.926 903.196 936.04 896.545C934.03 889.457 933.873 882.67 935.567 876.181C937.37 869.662 940.674 864.072 945.478 859.412C950.392 854.72 956.446 851.354 963.643 849.314C972.038 846.933 979.768 846.98 986.83 849.454C993.893 851.928 1000 856.852 1005.15 864.226L987.471 879.135C986.788 878.386 985.304 876.686 983.021 874.035C980.738 871.384 978.375 869.698 975.933 868.977C973.568 868.116 970.914 868.103 967.97 868.938C964.372 869.958 961.916 871.891 960.603 874.737C959.398 877.553 959.306 880.759 960.326 884.358C961.068 886.974 962.457 889.172 964.493 890.951C966.607 892.59 968.87 893.715 971.281 894.327L994.364 900.328C1011.32 904.472 1022.1 913.196 1026.7 926.5C1028.89 934.242 1029.1 941.606 1027.31 948.592C1025.6 955.438 1022.21 961.347 1017.14 966.318C1012.18 971.259 1006.05 974.765 998.74 976.836ZM1126.86 940.51C1112.79 944.498 1101.06 940.933 1091.67 929.814C1082.38 918.665 1075.09 903.767 1069.81 885.122C1066.96 875.091 1065.53 865.071 1065.52 855.061C1065.51 845.051 1067.55 836.228 1071.62 828.592C1075.78 820.817 1082.33 815.662 1091.27 813.127C1098.14 811.179 1104.74 811.605 1111.07 814.404C1117.51 817.173 1123.07 821.605 1127.74 827.701C1132.49 833.658 1135.92 840.343 1138.02 847.758L1115.12 855.487C1113.73 850.581 1111.33 845.252 1107.94 839.501C1104.51 833.64 1100.34 831.406 1095.43 832.797C1090.31 834.25 1087.92 839.344 1088.28 848.078C1088.64 856.812 1090.44 866.903 1093.68 878.352C1097.7 892.526 1102.02 903.611 1106.65 911.607C1111.24 919.493 1116.64 922.556 1122.86 920.793C1127.22 919.557 1129.6 916.113 1130 910.463C1130.37 904.704 1129.78 898.04 1128.22 890.471L1149.22 886.637C1151.45 894.487 1152.21 902.164 1151.51 909.666C1150.78 917.059 1148.37 923.515 1144.28 929.033C1140.19 934.551 1134.38 938.377 1126.86 940.51ZM1211.98 916.374C1198.13 920.301 1186.69 917.125 1177.65 906.848C1168.69 896.431 1161.52 881.736 1156.14 862.764C1150.42 842.593 1149.01 826.205 1151.92 813.601C1154.82 800.997 1162.93 792.809 1176.23 789.038C1201.63 781.834 1220.23 799.004 1232.01 840.546C1237.29 859.191 1238.79 875.494 1236.51 889.453C1234.33 903.382 1226.16 912.355 1211.98 916.374ZM1206.84 896.982C1212.61 895.344 1215.36 890.5 1215.08 882.451C1214.77 874.293 1212.44 862.527 1208.08 847.153C1204.59 834.832 1200.77 824.9 1196.63 817.357C1192.56 809.674 1187.59 806.667 1181.7 808.337C1175.81 810.006 1173.14 815.123 1173.68 823.686C1174.23 832.249 1176.25 842.691 1179.74 855.012C1184.13 870.495 1188.28 881.806 1192.19 888.943C1196.17 895.941 1201.06 898.621 1206.84 896.982ZM1325.58 882.752L1268.01 816.201L1289.2 890.945L1268.06 898.001L1233.55 776.318L1258.3 768.241L1310.71 832.19L1290.59 761.208L1310.31 753.495L1344.81 875.178L1325.58 882.752ZM1384.18 866.135L1354.55 761.625L1329.53 768.72L1325.9 749.074L1397.86 728.67L1401.33 748.362L1378.43 754.854L1407.51 857.402L1384.18 866.135ZM1436.5 850.242L1427.98 721.722L1461.74 710.558L1522.74 824.729L1496.85 833.13L1484.97 808.05L1455.69 816.351L1457.92 844.167L1436.5 850.242ZM1454.54 795.472L1474.99 789.676L1447.05 734.16L1454.54 795.472ZM1570.24 814.795C1556.17 818.783 1544.44 815.218 1535.05 804.099C1525.76 792.95 1518.47 778.052 1513.19 759.407C1510.34 749.376 1508.91 739.355 1508.9 729.346C1508.89 719.336 1510.93 710.513 1515.01 702.877C1519.16 695.102 1525.71 689.947 1534.65 687.412C1541.52 685.464 1548.12 685.89 1554.45 688.689C1560.89 691.458 1566.45 695.89 1571.12 701.986C1575.87 707.943 1579.3 714.628 1581.4 722.042L1558.5 729.772C1557.11 724.866 1554.72 719.537 1551.32 713.786C1547.89 707.925 1543.72 705.691 1538.82 707.082C1533.69 708.535 1531.31 713.628 1531.66 722.363C1532.02 731.097 1533.82 741.188 1537.07 752.637C1541.08 766.811 1545.41 777.896 1550.03 785.892C1554.62 793.778 1560.02 796.84 1566.24 795.078C1570.6 793.842 1572.98 790.398 1573.38 784.748C1573.75 778.989 1573.16 772.325 1571.6 764.756L1592.6 760.922C1594.83 768.772 1595.59 776.449 1594.89 783.951C1594.16 791.344 1591.75 797.799 1587.66 803.318C1583.57 808.836 1577.76 812.662 1570.24 814.795ZM1637.82 794.22L1608.19 689.71L1583.16 696.805L1579.54 677.159L1651.5 656.755L1654.96 676.447L1632.06 682.939L1661.14 785.487L1637.82 794.22Z" fill="#6F2D28"/>
</svg>
