<svg width="1423" height="816" viewBox="0 0 1423 816" fill="none" xmlns="http://www.w3.org/2000/svg">
<path opacity="0.05" d="M196.18 169.38C183.6 169.38 174.363 163.09 168.47 150.51C162.69 137.93 159.8 122.007 159.8 102.74C159.8 91.9733 161.16 81.6033 163.88 71.63C166.713 61.6567 171.19 53.44 177.31 46.98C183.543 40.4067 191.477 37.12 201.11 37.12C209.383 37.12 216.24 39.16 221.68 43.24C227.233 47.2067 231.313 52.5333 233.92 59.22C236.64 65.7933 238 73.1033 238 81.15L214.37 82.68L213.86 79.11C213.18 72.4233 211.99 67.0967 210.29 63.13C208.59 59.1633 205.417 57.18 200.77 57.18C194.877 57.18 190.683 61.94 188.19 71.46C185.81 80.8667 184.62 91.7467 184.62 104.1C184.62 112.827 184.903 120.25 185.47 126.37C186.037 132.49 187.51 137.873 189.89 142.52C192.27 147.053 195.953 149.32 200.94 149.32C205.133 149.32 208.42 146.713 210.8 141.5C213.293 136.287 214.54 129.883 214.54 122.29H201.96L204 103.25H238.51V165.98L228.99 167L223.21 143.37C222.19 147.79 220.887 151.757 219.3 155.27C217.827 158.783 215.22 162.013 211.48 164.96C207.74 167.907 202.64 169.38 196.18 169.38ZM258.865 167V41.54L283.685 39.5V147.11H325.505L322.955 167H258.865ZM328.692 167L355.552 41.03L391.082 39.5L418.622 165.98L391.422 167L386.832 139.63H356.402L350.962 167H328.692ZM360.992 119.23H382.242L370.512 58.2L360.992 119.23ZM466.011 169.38C455.698 169.38 446.971 166.547 439.831 160.88C432.805 155.1 427.648 147.393 424.361 137.76L445.441 127.9L447.481 131.3C450.768 136.967 453.885 141.387 456.831 144.56C459.891 147.733 463.688 149.32 468.221 149.32C471.168 149.32 473.775 147.903 476.041 145.07C478.421 142.237 479.611 139.12 479.611 135.72C479.611 132.547 478.818 129.657 477.231 127.05C475.645 124.443 473.605 122.347 471.111 120.76L448.841 107.5C442.381 103.873 437.225 99.2833 433.371 93.73C429.518 88.1767 427.591 81.9433 427.591 75.03C427.591 67.6633 429.291 61.09 432.691 55.31C436.205 49.53 440.908 45.0533 446.801 41.88C452.808 38.7067 459.551 37.12 467.031 37.12C475.758 37.12 483.181 39.2733 489.301 43.58C495.421 47.8867 499.955 54.29 502.901 62.79L481.821 72.31C481.368 71.4033 480.405 69.3633 478.931 66.19C477.458 63.0167 475.645 60.75 473.491 59.39C471.451 57.9167 468.901 57.18 465.841 57.18C462.101 57.18 459.211 58.37 457.171 60.75C455.245 63.13 454.281 66.19 454.281 69.93C454.281 72.65 455.018 75.1433 456.491 77.41C458.078 79.5633 459.948 81.2633 462.101 82.51L482.671 94.58C497.858 103.193 505.848 114.527 506.641 128.58C506.641 136.627 504.828 143.767 501.201 150C497.688 156.12 492.815 160.88 486.581 164.28C480.461 167.68 473.605 169.38 466.011 169.38ZM556.656 169.38C546.342 169.38 537.616 166.547 530.476 160.88C523.449 155.1 518.292 147.393 515.006 137.76L536.086 127.9L538.126 131.3C541.412 136.967 544.529 141.387 547.476 144.56C550.536 147.733 554.332 149.32 558.866 149.32C561.812 149.32 564.419 147.903 566.686 145.07C569.066 142.237 570.256 139.12 570.256 135.72C570.256 132.547 569.462 129.657 567.876 127.05C566.289 124.443 564.249 122.347 561.756 120.76L539.486 107.5C533.026 103.873 527.869 99.2833 524.016 93.73C520.162 88.1767 518.236 81.9433 518.236 75.03C518.236 67.6633 519.936 61.09 523.336 55.31C526.849 49.53 531.552 45.0533 537.446 41.88C543.452 38.7067 550.196 37.12 557.676 37.12C566.402 37.12 573.826 39.2733 579.946 43.58C586.066 47.8867 590.599 54.29 593.546 62.79L572.466 72.31C572.012 71.4033 571.049 69.3633 569.576 66.19C568.102 63.0167 566.289 60.75 564.136 59.39C562.096 57.9167 559.546 57.18 556.486 57.18C552.746 57.18 549.856 58.37 547.816 60.75C545.889 63.13 544.926 66.19 544.926 69.93C544.926 72.65 545.662 75.1433 547.136 77.41C548.722 79.5633 550.592 81.2633 552.746 82.51L573.316 94.58C588.502 103.193 596.492 114.527 597.286 128.58C597.286 136.627 595.472 143.767 591.846 150C588.332 156.12 583.459 160.88 577.226 164.28C571.106 167.68 564.249 169.38 556.656 169.38ZM613.64 168.02V39.5H678.41L676.37 59.56H638.63V92.88H665.32V113.96H638.63V165.98L613.64 168.02ZM691.834 168.02V41.54L716.824 39.5V165.98L691.834 168.02ZM757.132 168.02V59.39H731.122L732.992 39.5H807.792L805.752 59.39H781.952V165.98L757.132 168.02ZM935.946 169.38C923.366 169.38 914.129 163.09 908.236 150.51C902.456 137.93 899.566 122.007 899.566 102.74C899.566 91.9733 900.926 81.6033 903.646 71.63C906.479 61.6567 910.956 53.44 917.076 46.98C923.309 40.4067 931.242 37.12 940.876 37.12C949.149 37.12 956.006 39.16 961.446 43.24C966.999 47.2067 971.079 52.5333 973.686 59.22C976.406 65.7933 977.766 73.1033 977.766 81.15L954.136 82.68L953.626 79.11C952.946 72.4233 951.756 67.0967 950.056 63.13C948.356 59.1633 945.182 57.18 940.536 57.18C934.642 57.18 930.449 61.94 927.956 71.46C925.576 80.8667 924.386 91.7467 924.386 104.1C924.386 112.827 924.669 120.25 925.236 126.37C925.802 132.49 927.276 137.873 929.656 142.52C932.036 147.053 935.719 149.32 940.706 149.32C944.899 149.32 948.186 146.713 950.566 141.5C953.059 136.287 954.306 129.883 954.306 122.29H941.726L943.766 103.25H978.276V165.98L968.756 167L962.976 143.37C961.956 147.79 960.652 151.757 959.066 155.27C957.592 158.783 954.986 162.013 951.246 164.96C947.506 167.907 942.406 169.38 935.946 169.38ZM998.63 167V41.54L1023.45 39.5V147.11H1065.27L1062.72 167H998.63ZM1068.46 167L1095.32 41.03L1130.85 39.5L1158.39 165.98L1131.19 167L1126.6 139.63H1096.17L1090.73 167H1068.46ZM1100.76 119.23H1122.01L1110.28 58.2L1100.76 119.23ZM1205.78 169.38C1195.46 169.38 1186.74 166.547 1179.6 160.88C1172.57 155.1 1167.41 147.393 1164.13 137.76L1185.21 127.9L1187.25 131.3C1190.53 136.967 1193.65 141.387 1196.6 144.56C1199.66 147.733 1203.45 149.32 1207.99 149.32C1210.93 149.32 1213.54 147.903 1215.81 145.07C1218.19 142.237 1219.38 139.12 1219.38 135.72C1219.38 132.547 1218.58 129.657 1217 127.05C1215.41 124.443 1213.37 122.347 1210.88 120.76L1188.61 107.5C1182.15 103.873 1176.99 99.2833 1173.14 93.73C1169.28 88.1767 1167.36 81.9433 1167.36 75.03C1167.36 67.6633 1169.06 61.09 1172.46 55.31C1175.97 49.53 1180.67 45.0533 1186.57 41.88C1192.57 38.7067 1199.32 37.12 1206.8 37.12C1215.52 37.12 1222.95 39.2733 1229.07 43.58C1235.19 47.8867 1239.72 54.29 1242.67 62.79L1221.59 72.31C1221.13 71.4033 1220.17 69.3633 1218.7 66.19C1217.22 63.0167 1215.41 60.75 1213.26 59.39C1211.22 57.9167 1208.67 57.18 1205.61 57.18C1201.87 57.18 1198.98 58.37 1196.94 60.75C1195.01 63.13 1194.05 66.19 1194.05 69.93C1194.05 72.65 1194.78 75.1433 1196.26 77.41C1197.84 79.5633 1199.71 81.2633 1201.87 82.51L1222.44 94.58C1237.62 103.193 1245.61 114.527 1246.41 128.58C1246.41 136.627 1244.59 143.767 1240.97 150C1237.45 156.12 1232.58 160.88 1226.35 164.28C1220.23 167.68 1213.37 169.38 1205.78 169.38ZM1296.42 169.38C1286.11 169.38 1277.38 166.547 1270.24 160.88C1263.21 155.1 1258.06 147.393 1254.77 137.76L1275.85 127.9L1277.89 131.3C1281.18 136.967 1284.29 141.387 1287.24 144.56C1290.3 147.733 1294.1 149.32 1298.63 149.32C1301.58 149.32 1304.18 147.903 1306.45 145.07C1308.83 142.237 1310.02 139.12 1310.02 135.72C1310.02 132.547 1309.23 129.657 1307.64 127.05C1306.05 124.443 1304.01 122.347 1301.52 120.76L1279.25 107.5C1272.79 103.873 1267.63 99.2833 1263.78 93.73C1259.93 88.1767 1258 81.9433 1258 75.03C1258 67.6633 1259.7 61.09 1263.1 55.31C1266.61 49.53 1271.32 45.0533 1277.21 41.88C1283.22 38.7067 1289.96 37.12 1297.44 37.12C1306.17 37.12 1313.59 39.2733 1319.71 43.58C1325.83 47.8867 1330.36 54.29 1333.31 62.79L1312.23 72.31C1311.78 71.4033 1310.81 69.3633 1309.34 66.19C1307.87 63.0167 1306.05 60.75 1303.9 59.39C1301.86 57.9167 1299.31 57.18 1296.25 57.18C1292.51 57.18 1289.62 58.37 1287.58 60.75C1285.65 63.13 1284.69 66.19 1284.69 69.93C1284.69 72.65 1285.43 75.1433 1286.9 77.41C1288.49 79.5633 1290.36 81.2633 1292.51 82.51L1313.08 94.58C1328.27 103.193 1336.26 114.527 1337.05 128.58C1337.05 136.627 1335.24 143.767 1331.61 150C1328.1 156.12 1323.22 160.88 1316.99 164.28C1310.87 167.68 1304.01 169.38 1296.42 169.38ZM1353.41 168.02V39.5H1418.18L1416.14 59.56H1378.4V92.88H1405.09V113.96H1378.4V165.98L1353.41 168.02ZM1431.6 168.02V41.54L1456.59 39.5V165.98L1431.6 168.02ZM196.18 373.38C183.6 373.38 174.363 367.09 168.47 354.51C162.69 341.93 159.8 326.007 159.8 306.74C159.8 295.973 161.16 285.603 163.88 275.63C166.713 265.657 171.19 257.44 177.31 250.98C183.543 244.407 191.477 241.12 201.11 241.12C209.383 241.12 216.24 243.16 221.68 247.24C227.233 251.207 231.313 256.533 233.92 263.22C236.64 269.793 238 277.103 238 285.15L214.37 286.68L213.86 283.11C213.18 276.423 211.99 271.097 210.29 267.13C208.59 263.163 205.417 261.18 200.77 261.18C194.877 261.18 190.683 265.94 188.19 275.46C185.81 284.867 184.62 295.747 184.62 308.1C184.62 316.827 184.903 324.25 185.47 330.37C186.037 336.49 187.51 341.873 189.89 346.52C192.27 351.053 195.953 353.32 200.94 353.32C205.133 353.32 208.42 350.713 210.8 345.5C213.293 340.287 214.54 333.883 214.54 326.29H201.96L204 307.25H238.51V369.98L228.99 371L223.21 347.37C222.19 351.79 220.887 355.757 219.3 359.27C217.827 362.783 215.22 366.013 211.48 368.96C207.74 371.907 202.64 373.38 196.18 373.38ZM258.865 371V245.54L283.685 243.5V351.11H325.505L322.955 371H258.865ZM328.692 371L355.552 245.03L391.082 243.5L418.622 369.98L391.422 371L386.832 343.63H356.402L350.962 371H328.692ZM360.992 323.23H382.242L370.512 262.2L360.992 323.23ZM466.011 373.38C455.698 373.38 446.971 370.547 439.831 364.88C432.805 359.1 427.648 351.393 424.361 341.76L445.441 331.9L447.481 335.3C450.768 340.967 453.885 345.387 456.831 348.56C459.891 351.733 463.688 353.32 468.221 353.32C471.168 353.32 473.775 351.903 476.041 349.07C478.421 346.237 479.611 343.12 479.611 339.72C479.611 336.547 478.818 333.657 477.231 331.05C475.645 328.443 473.605 326.347 471.111 324.76L448.841 311.5C442.381 307.873 437.225 303.283 433.371 297.73C429.518 292.177 427.591 285.943 427.591 279.03C427.591 271.663 429.291 265.09 432.691 259.31C436.205 253.53 440.908 249.053 446.801 245.88C452.808 242.707 459.551 241.12 467.031 241.12C475.758 241.12 483.181 243.273 489.301 247.58C495.421 251.887 499.955 258.29 502.901 266.79L481.821 276.31C481.368 275.403 480.405 273.363 478.931 270.19C477.458 267.017 475.645 264.75 473.491 263.39C471.451 261.917 468.901 261.18 465.841 261.18C462.101 261.18 459.211 262.37 457.171 264.75C455.245 267.13 454.281 270.19 454.281 273.93C454.281 276.65 455.018 279.143 456.491 281.41C458.078 283.563 459.948 285.263 462.101 286.51L482.671 298.58C497.858 307.193 505.848 318.527 506.641 332.58C506.641 340.627 504.828 347.767 501.201 354C497.688 360.12 492.815 364.88 486.581 368.28C480.461 371.68 473.605 373.38 466.011 373.38ZM556.656 373.38C546.342 373.38 537.616 370.547 530.476 364.88C523.449 359.1 518.292 351.393 515.006 341.76L536.086 331.9L538.126 335.3C541.412 340.967 544.529 345.387 547.476 348.56C550.536 351.733 554.332 353.32 558.866 353.32C561.812 353.32 564.419 351.903 566.686 349.07C569.066 346.237 570.256 343.12 570.256 339.72C570.256 336.547 569.462 333.657 567.876 331.05C566.289 328.443 564.249 326.347 561.756 324.76L539.486 311.5C533.026 307.873 527.869 303.283 524.016 297.73C520.162 292.177 518.236 285.943 518.236 279.03C518.236 271.663 519.936 265.09 523.336 259.31C526.849 253.53 531.552 249.053 537.446 245.88C543.452 242.707 550.196 241.12 557.676 241.12C566.402 241.12 573.826 243.273 579.946 247.58C586.066 251.887 590.599 258.29 593.546 266.79L572.466 276.31C572.012 275.403 571.049 273.363 569.576 270.19C568.102 267.017 566.289 264.75 564.136 263.39C562.096 261.917 559.546 261.18 556.486 261.18C552.746 261.18 549.856 262.37 547.816 264.75C545.889 267.13 544.926 270.19 544.926 273.93C544.926 276.65 545.662 279.143 547.136 281.41C548.722 283.563 550.592 285.263 552.746 286.51L573.316 298.58C588.502 307.193 596.492 318.527 597.286 332.58C597.286 340.627 595.472 347.767 591.846 354C588.332 360.12 583.459 364.88 577.226 368.28C571.106 371.68 564.249 373.38 556.656 373.38ZM613.64 372.02V243.5H678.41L676.37 263.56H638.63V296.88H665.32V317.96H638.63V369.98L613.64 372.02ZM691.834 372.02V245.54L716.824 243.5V369.98L691.834 372.02ZM757.132 372.02V263.39H731.122L732.992 243.5H807.792L805.752 263.39H781.952V369.98L757.132 372.02ZM935.946 373.38C923.366 373.38 914.129 367.09 908.236 354.51C902.456 341.93 899.566 326.007 899.566 306.74C899.566 295.973 900.926 285.603 903.646 275.63C906.479 265.657 910.956 257.44 917.076 250.98C923.309 244.407 931.242 241.12 940.876 241.12C949.149 241.12 956.006 243.16 961.446 247.24C966.999 251.207 971.079 256.533 973.686 263.22C976.406 269.793 977.766 277.103 977.766 285.15L954.136 286.68L953.626 283.11C952.946 276.423 951.756 271.097 950.056 267.13C948.356 263.163 945.182 261.18 940.536 261.18C934.642 261.18 930.449 265.94 927.956 275.46C925.576 284.867 924.386 295.747 924.386 308.1C924.386 316.827 924.669 324.25 925.236 330.37C925.802 336.49 927.276 341.873 929.656 346.52C932.036 351.053 935.719 353.32 940.706 353.32C944.899 353.32 948.186 350.713 950.566 345.5C953.059 340.287 954.306 333.883 954.306 326.29H941.726L943.766 307.25H978.276V369.98L968.756 371L962.976 347.37C961.956 351.79 960.652 355.757 959.066 359.27C957.592 362.783 954.986 366.013 951.246 368.96C947.506 371.907 942.406 373.38 935.946 373.38ZM998.63 371V245.54L1023.45 243.5V351.11H1065.27L1062.72 371H998.63ZM1068.46 371L1095.32 245.03L1130.85 243.5L1158.39 369.98L1131.19 371L1126.6 343.63H1096.17L1090.73 371H1068.46ZM1100.76 323.23H1122.01L1110.28 262.2L1100.76 323.23ZM1205.78 373.38C1195.46 373.38 1186.74 370.547 1179.6 364.88C1172.57 359.1 1167.41 351.393 1164.13 341.76L1185.21 331.9L1187.25 335.3C1190.53 340.967 1193.65 345.387 1196.6 348.56C1199.66 351.733 1203.45 353.32 1207.99 353.32C1210.93 353.32 1213.54 351.903 1215.81 349.07C1218.19 346.237 1219.38 343.12 1219.38 339.72C1219.38 336.547 1218.58 333.657 1217 331.05C1215.41 328.443 1213.37 326.347 1210.88 324.76L1188.61 311.5C1182.15 307.873 1176.99 303.283 1173.14 297.73C1169.28 292.177 1167.36 285.943 1167.36 279.03C1167.36 271.663 1169.06 265.09 1172.46 259.31C1175.97 253.53 1180.67 249.053 1186.57 245.88C1192.57 242.707 1199.32 241.12 1206.8 241.12C1215.52 241.12 1222.95 243.273 1229.07 247.58C1235.19 251.887 1239.72 258.29 1242.67 266.79L1221.59 276.31C1221.13 275.403 1220.17 273.363 1218.7 270.19C1217.22 267.017 1215.41 264.75 1213.26 263.39C1211.22 261.917 1208.67 261.18 1205.61 261.18C1201.87 261.18 1198.98 262.37 1196.94 264.75C1195.01 267.13 1194.05 270.19 1194.05 273.93C1194.05 276.65 1194.78 279.143 1196.26 281.41C1197.84 283.563 1199.71 285.263 1201.87 286.51L1222.44 298.58C1237.62 307.193 1245.61 318.527 1246.41 332.58C1246.41 340.627 1244.59 347.767 1240.97 354C1237.45 360.12 1232.58 364.88 1226.35 368.28C1220.23 371.68 1213.37 373.38 1205.78 373.38ZM1296.42 373.38C1286.11 373.38 1277.38 370.547 1270.24 364.88C1263.21 359.1 1258.06 351.393 1254.77 341.76L1275.85 331.9L1277.89 335.3C1281.18 340.967 1284.29 345.387 1287.24 348.56C1290.3 351.733 1294.1 353.32 1298.63 353.32C1301.58 353.32 1304.18 351.903 1306.45 349.07C1308.83 346.237 1310.02 343.12 1310.02 339.72C1310.02 336.547 1309.23 333.657 1307.64 331.05C1306.05 328.443 1304.01 326.347 1301.52 324.76L1279.25 311.5C1272.79 307.873 1267.63 303.283 1263.78 297.73C1259.93 292.177 1258 285.943 1258 279.03C1258 271.663 1259.7 265.09 1263.1 259.31C1266.61 253.53 1271.32 249.053 1277.21 245.88C1283.22 242.707 1289.96 241.12 1297.44 241.12C1306.17 241.12 1313.59 243.273 1319.71 247.58C1325.83 251.887 1330.36 258.29 1333.31 266.79L1312.23 276.31C1311.78 275.403 1310.81 273.363 1309.34 270.19C1307.87 267.017 1306.05 264.75 1303.9 263.39C1301.86 261.917 1299.31 261.18 1296.25 261.18C1292.51 261.18 1289.62 262.37 1287.58 264.75C1285.65 267.13 1284.69 270.19 1284.69 273.93C1284.69 276.65 1285.43 279.143 1286.9 281.41C1288.49 283.563 1290.36 285.263 1292.51 286.51L1313.08 298.58C1328.27 307.193 1336.26 318.527 1337.05 332.58C1337.05 340.627 1335.24 347.767 1331.61 354C1328.1 360.12 1323.22 364.88 1316.99 368.28C1310.87 371.68 1304.01 373.38 1296.42 373.38ZM1353.41 372.02V243.5H1418.18L1416.14 263.56H1378.4V296.88H1405.09V317.96H1378.4V369.98L1353.41 372.02ZM1431.6 372.02V245.54L1456.59 243.5V369.98L1431.6 372.02ZM196.18 577.38C183.6 577.38 174.363 571.09 168.47 558.51C162.69 545.93 159.8 530.007 159.8 510.74C159.8 499.973 161.16 489.603 163.88 479.63C166.713 469.657 171.19 461.44 177.31 454.98C183.543 448.407 191.477 445.12 201.11 445.12C209.383 445.12 216.24 447.16 221.68 451.24C227.233 455.207 231.313 460.533 233.92 467.22C236.64 473.793 238 481.103 238 489.15L214.37 490.68L213.86 487.11C213.18 480.423 211.99 475.097 210.29 471.13C208.59 467.163 205.417 465.18 200.77 465.18C194.877 465.18 190.683 469.94 188.19 479.46C185.81 488.867 184.62 499.747 184.62 512.1C184.62 520.827 184.903 528.25 185.47 534.37C186.037 540.49 187.51 545.873 189.89 550.52C192.27 555.053 195.953 557.32 200.94 557.32C205.133 557.32 208.42 554.713 210.8 549.5C213.293 544.287 214.54 537.883 214.54 530.29H201.96L204 511.25H238.51V573.98L228.99 575L223.21 551.37C222.19 555.79 220.887 559.757 219.3 563.27C217.827 566.783 215.22 570.013 211.48 572.96C207.74 575.907 202.64 577.38 196.18 577.38ZM258.865 575V449.54L283.685 447.5V555.11H325.505L322.955 575H258.865ZM328.692 575L355.552 449.03L391.082 447.5L418.622 573.98L391.422 575L386.832 547.63H356.402L350.962 575H328.692ZM360.992 527.23H382.242L370.512 466.2L360.992 527.23ZM466.011 577.38C455.698 577.38 446.971 574.547 439.831 568.88C432.805 563.1 427.648 555.393 424.361 545.76L445.441 535.9L447.481 539.3C450.768 544.967 453.885 549.387 456.831 552.56C459.891 555.733 463.688 557.32 468.221 557.32C471.168 557.32 473.775 555.903 476.041 553.07C478.421 550.237 479.611 547.12 479.611 543.72C479.611 540.547 478.818 537.657 477.231 535.05C475.645 532.443 473.605 530.347 471.111 528.76L448.841 515.5C442.381 511.873 437.225 507.283 433.371 501.73C429.518 496.177 427.591 489.943 427.591 483.03C427.591 475.663 429.291 469.09 432.691 463.31C436.205 457.53 440.908 453.053 446.801 449.88C452.808 446.707 459.551 445.12 467.031 445.12C475.758 445.12 483.181 447.273 489.301 451.58C495.421 455.887 499.955 462.29 502.901 470.79L481.821 480.31C481.368 479.403 480.405 477.363 478.931 474.19C477.458 471.017 475.645 468.75 473.491 467.39C471.451 465.917 468.901 465.18 465.841 465.18C462.101 465.18 459.211 466.37 457.171 468.75C455.245 471.13 454.281 474.19 454.281 477.93C454.281 480.65 455.018 483.143 456.491 485.41C458.078 487.563 459.948 489.263 462.101 490.51L482.671 502.58C497.858 511.193 505.848 522.527 506.641 536.58C506.641 544.627 504.828 551.767 501.201 558C497.688 564.12 492.815 568.88 486.581 572.28C480.461 575.68 473.605 577.38 466.011 577.38ZM556.656 577.38C546.342 577.38 537.616 574.547 530.476 568.88C523.449 563.1 518.292 555.393 515.006 545.76L536.086 535.9L538.126 539.3C541.412 544.967 544.529 549.387 547.476 552.56C550.536 555.733 554.332 557.32 558.866 557.32C561.812 557.32 564.419 555.903 566.686 553.07C569.066 550.237 570.256 547.12 570.256 543.72C570.256 540.547 569.462 537.657 567.876 535.05C566.289 532.443 564.249 530.347 561.756 528.76L539.486 515.5C533.026 511.873 527.869 507.283 524.016 501.73C520.162 496.177 518.236 489.943 518.236 483.03C518.236 475.663 519.936 469.09 523.336 463.31C526.849 457.53 531.552 453.053 537.446 449.88C543.452 446.707 550.196 445.12 557.676 445.12C566.402 445.12 573.826 447.273 579.946 451.58C586.066 455.887 590.599 462.29 593.546 470.79L572.466 480.31C572.012 479.403 571.049 477.363 569.576 474.19C568.102 471.017 566.289 468.75 564.136 467.39C562.096 465.917 559.546 465.18 556.486 465.18C552.746 465.18 549.856 466.37 547.816 468.75C545.889 471.13 544.926 474.19 544.926 477.93C544.926 480.65 545.662 483.143 547.136 485.41C548.722 487.563 550.592 489.263 552.746 490.51L573.316 502.58C588.502 511.193 596.492 522.527 597.286 536.58C597.286 544.627 595.472 551.767 591.846 558C588.332 564.12 583.459 568.88 577.226 572.28C571.106 575.68 564.249 577.38 556.656 577.38ZM613.64 576.02V447.5H678.41L676.37 467.56H638.63V500.88H665.32V521.96H638.63V573.98L613.64 576.02ZM691.834 576.02V449.54L716.824 447.5V573.98L691.834 576.02ZM757.132 576.02V467.39H731.122L732.992 447.5H807.792L805.752 467.39H781.952V573.98L757.132 576.02ZM935.946 577.38C923.366 577.38 914.129 571.09 908.236 558.51C902.456 545.93 899.566 530.007 899.566 510.74C899.566 499.973 900.926 489.603 903.646 479.63C906.479 469.657 910.956 461.44 917.076 454.98C923.309 448.407 931.242 445.12 940.876 445.12C949.149 445.12 956.006 447.16 961.446 451.24C966.999 455.207 971.079 460.533 973.686 467.22C976.406 473.793 977.766 481.103 977.766 489.15L954.136 490.68L953.626 487.11C952.946 480.423 951.756 475.097 950.056 471.13C948.356 467.163 945.182 465.18 940.536 465.18C934.642 465.18 930.449 469.94 927.956 479.46C925.576 488.867 924.386 499.747 924.386 512.1C924.386 520.827 924.669 528.25 925.236 534.37C925.802 540.49 927.276 545.873 929.656 550.52C932.036 555.053 935.719 557.32 940.706 557.32C944.899 557.32 948.186 554.713 950.566 549.5C953.059 544.287 954.306 537.883 954.306 530.29H941.726L943.766 511.25H978.276V573.98L968.756 575L962.976 551.37C961.956 555.79 960.652 559.757 959.066 563.27C957.592 566.783 954.986 570.013 951.246 572.96C947.506 575.907 942.406 577.38 935.946 577.38ZM998.63 575V449.54L1023.45 447.5V555.11H1065.27L1062.72 575H998.63ZM1068.46 575L1095.32 449.03L1130.85 447.5L1158.39 573.98L1131.19 575L1126.6 547.63H1096.17L1090.73 575H1068.46ZM1100.76 527.23H1122.01L1110.28 466.2L1100.76 527.23ZM1205.78 577.38C1195.46 577.38 1186.74 574.547 1179.6 568.88C1172.57 563.1 1167.41 555.393 1164.13 545.76L1185.21 535.9L1187.25 539.3C1190.53 544.967 1193.65 549.387 1196.6 552.56C1199.66 555.733 1203.45 557.32 1207.99 557.32C1210.93 557.32 1213.54 555.903 1215.81 553.07C1218.19 550.237 1219.38 547.12 1219.38 543.72C1219.38 540.547 1218.58 537.657 1217 535.05C1215.41 532.443 1213.37 530.347 1210.88 528.76L1188.61 515.5C1182.15 511.873 1176.99 507.283 1173.14 501.73C1169.28 496.177 1167.36 489.943 1167.36 483.03C1167.36 475.663 1169.06 469.09 1172.46 463.31C1175.97 457.53 1180.67 453.053 1186.57 449.88C1192.57 446.707 1199.32 445.12 1206.8 445.12C1215.52 445.12 1222.95 447.273 1229.07 451.58C1235.19 455.887 1239.72 462.29 1242.67 470.79L1221.59 480.31C1221.13 479.403 1220.17 477.363 1218.7 474.19C1217.22 471.017 1215.41 468.75 1213.26 467.39C1211.22 465.917 1208.67 465.18 1205.61 465.18C1201.87 465.18 1198.98 466.37 1196.94 468.75C1195.01 471.13 1194.05 474.19 1194.05 477.93C1194.05 480.65 1194.78 483.143 1196.26 485.41C1197.84 487.563 1199.71 489.263 1201.87 490.51L1222.44 502.58C1237.62 511.193 1245.61 522.527 1246.41 536.58C1246.41 544.627 1244.59 551.767 1240.97 558C1237.45 564.12 1232.58 568.88 1226.35 572.28C1220.23 575.68 1213.37 577.38 1205.78 577.38ZM1296.42 577.38C1286.11 577.38 1277.38 574.547 1270.24 568.88C1263.21 563.1 1258.06 555.393 1254.77 545.76L1275.85 535.9L1277.89 539.3C1281.18 544.967 1284.29 549.387 1287.24 552.56C1290.3 555.733 1294.1 557.32 1298.63 557.32C1301.58 557.32 1304.18 555.903 1306.45 553.07C1308.83 550.237 1310.02 547.12 1310.02 543.72C1310.02 540.547 1309.23 537.657 1307.64 535.05C1306.05 532.443 1304.01 530.347 1301.52 528.76L1279.25 515.5C1272.79 511.873 1267.63 507.283 1263.78 501.73C1259.93 496.177 1258 489.943 1258 483.03C1258 475.663 1259.7 469.09 1263.1 463.31C1266.61 457.53 1271.32 453.053 1277.21 449.88C1283.22 446.707 1289.96 445.12 1297.44 445.12C1306.17 445.12 1313.59 447.273 1319.71 451.58C1325.83 455.887 1330.36 462.29 1333.31 470.79L1312.23 480.31C1311.78 479.403 1310.81 477.363 1309.34 474.19C1307.87 471.017 1306.05 468.75 1303.9 467.39C1301.86 465.917 1299.31 465.18 1296.25 465.18C1292.51 465.18 1289.62 466.37 1287.58 468.75C1285.65 471.13 1284.69 474.19 1284.69 477.93C1284.69 480.65 1285.43 483.143 1286.9 485.41C1288.49 487.563 1290.36 489.263 1292.51 490.51L1313.08 502.58C1328.27 511.193 1336.26 522.527 1337.05 536.58C1337.05 544.627 1335.24 551.767 1331.61 558C1328.1 564.12 1323.22 568.88 1316.99 572.28C1310.87 575.68 1304.01 577.38 1296.42 577.38ZM1353.41 576.02V447.5H1418.18L1416.14 467.56H1378.4V500.88H1405.09V521.96H1378.4V573.98L1353.41 576.02ZM1431.6 576.02V449.54L1456.59 447.5V573.98L1431.6 576.02ZM196.18 781.38C183.6 781.38 174.363 775.09 168.47 762.51C162.69 749.93 159.8 734.007 159.8 714.74C159.8 703.973 161.16 693.603 163.88 683.63C166.713 673.657 171.19 665.44 177.31 658.98C183.543 652.407 191.477 649.12 201.11 649.12C209.383 649.12 216.24 651.16 221.68 655.24C227.233 659.207 231.313 664.533 233.92 671.22C236.64 677.793 238 685.103 238 693.15L214.37 694.68L213.86 691.11C213.18 684.423 211.99 679.097 210.29 675.13C208.59 671.163 205.417 669.18 200.77 669.18C194.877 669.18 190.683 673.94 188.19 683.46C185.81 692.867 184.62 703.747 184.62 716.1C184.62 724.827 184.903 732.25 185.47 738.37C186.037 744.49 187.51 749.873 189.89 754.52C192.27 759.053 195.953 761.32 200.94 761.32C205.133 761.32 208.42 758.713 210.8 753.5C213.293 748.287 214.54 741.883 214.54 734.29H201.96L204 715.25H238.51V777.98L228.99 779L223.21 755.37C222.19 759.79 220.887 763.757 219.3 767.27C217.827 770.783 215.22 774.013 211.48 776.96C207.74 779.907 202.64 781.38 196.18 781.38ZM258.865 779V653.54L283.685 651.5V759.11H325.505L322.955 779H258.865ZM328.692 779L355.552 653.03L391.082 651.5L418.622 777.98L391.422 779L386.832 751.63H356.402L350.962 779H328.692ZM360.992 731.23H382.242L370.512 670.2L360.992 731.23ZM466.011 781.38C455.698 781.38 446.971 778.547 439.831 772.88C432.805 767.1 427.648 759.393 424.361 749.76L445.441 739.9L447.481 743.3C450.768 748.967 453.885 753.387 456.831 756.56C459.891 759.733 463.688 761.32 468.221 761.32C471.168 761.32 473.775 759.903 476.041 757.07C478.421 754.237 479.611 751.12 479.611 747.72C479.611 744.547 478.818 741.657 477.231 739.05C475.645 736.443 473.605 734.347 471.111 732.76L448.841 719.5C442.381 715.873 437.225 711.283 433.371 705.73C429.518 700.177 427.591 693.943 427.591 687.03C427.591 679.663 429.291 673.09 432.691 667.31C436.205 661.53 440.908 657.053 446.801 653.88C452.808 650.707 459.551 649.12 467.031 649.12C475.758 649.12 483.181 651.273 489.301 655.58C495.421 659.887 499.955 666.29 502.901 674.79L481.821 684.31C481.368 683.403 480.405 681.363 478.931 678.19C477.458 675.017 475.645 672.75 473.491 671.39C471.451 669.917 468.901 669.18 465.841 669.18C462.101 669.18 459.211 670.37 457.171 672.75C455.245 675.13 454.281 678.19 454.281 681.93C454.281 684.65 455.018 687.143 456.491 689.41C458.078 691.563 459.948 693.263 462.101 694.51L482.671 706.58C497.858 715.193 505.848 726.527 506.641 740.58C506.641 748.627 504.828 755.767 501.201 762C497.688 768.12 492.815 772.88 486.581 776.28C480.461 779.68 473.605 781.38 466.011 781.38ZM556.656 781.38C546.342 781.38 537.616 778.547 530.476 772.88C523.449 767.1 518.292 759.393 515.006 749.76L536.086 739.9L538.126 743.3C541.412 748.967 544.529 753.387 547.476 756.56C550.536 759.733 554.332 761.32 558.866 761.32C561.812 761.32 564.419 759.903 566.686 757.07C569.066 754.237 570.256 751.12 570.256 747.72C570.256 744.547 569.462 741.657 567.876 739.05C566.289 736.443 564.249 734.347 561.756 732.76L539.486 719.5C533.026 715.873 527.869 711.283 524.016 705.73C520.162 700.177 518.236 693.943 518.236 687.03C518.236 679.663 519.936 673.09 523.336 667.31C526.849 661.53 531.552 657.053 537.446 653.88C543.452 650.707 550.196 649.12 557.676 649.12C566.402 649.12 573.826 651.273 579.946 655.58C586.066 659.887 590.599 666.29 593.546 674.79L572.466 684.31C572.012 683.403 571.049 681.363 569.576 678.19C568.102 675.017 566.289 672.75 564.136 671.39C562.096 669.917 559.546 669.18 556.486 669.18C552.746 669.18 549.856 670.37 547.816 672.75C545.889 675.13 544.926 678.19 544.926 681.93C544.926 684.65 545.662 687.143 547.136 689.41C548.722 691.563 550.592 693.263 552.746 694.51L573.316 706.58C588.502 715.193 596.492 726.527 597.286 740.58C597.286 748.627 595.472 755.767 591.846 762C588.332 768.12 583.459 772.88 577.226 776.28C571.106 779.68 564.249 781.38 556.656 781.38ZM613.64 780.02V651.5H678.41L676.37 671.56H638.63V704.88H665.32V725.96H638.63V777.98L613.64 780.02ZM691.834 780.02V653.54L716.824 651.5V777.98L691.834 780.02ZM757.132 780.02V671.39H731.122L732.992 651.5H807.792L805.752 671.39H781.952V777.98L757.132 780.02ZM935.946 781.38C923.366 781.38 914.129 775.09 908.236 762.51C902.456 749.93 899.566 734.007 899.566 714.74C899.566 703.973 900.926 693.603 903.646 683.63C906.479 673.657 910.956 665.44 917.076 658.98C923.309 652.407 931.242 649.12 940.876 649.12C949.149 649.12 956.006 651.16 961.446 655.24C966.999 659.207 971.079 664.533 973.686 671.22C976.406 677.793 977.766 685.103 977.766 693.15L954.136 694.68L953.626 691.11C952.946 684.423 951.756 679.097 950.056 675.13C948.356 671.163 945.182 669.18 940.536 669.18C934.642 669.18 930.449 673.94 927.956 683.46C925.576 692.867 924.386 703.747 924.386 716.1C924.386 724.827 924.669 732.25 925.236 738.37C925.802 744.49 927.276 749.873 929.656 754.52C932.036 759.053 935.719 761.32 940.706 761.32C944.899 761.32 948.186 758.713 950.566 753.5C953.059 748.287 954.306 741.883 954.306 734.29H941.726L943.766 715.25H978.276V777.98L968.756 779L962.976 755.37C961.956 759.79 960.652 763.757 959.066 767.27C957.592 770.783 954.986 774.013 951.246 776.96C947.506 779.907 942.406 781.38 935.946 781.38ZM998.63 779V653.54L1023.45 651.5V759.11H1065.27L1062.72 779H998.63ZM1068.46 779L1095.32 653.03L1130.85 651.5L1158.39 777.98L1131.19 779L1126.6 751.63H1096.17L1090.73 779H1068.46ZM1100.76 731.23H1122.01L1110.28 670.2L1100.76 731.23ZM1205.78 781.38C1195.46 781.38 1186.74 778.547 1179.6 772.88C1172.57 767.1 1167.41 759.393 1164.13 749.76L1185.21 739.9L1187.25 743.3C1190.53 748.967 1193.65 753.387 1196.6 756.56C1199.66 759.733 1203.45 761.32 1207.99 761.32C1210.93 761.32 1213.54 759.903 1215.81 757.07C1218.19 754.237 1219.38 751.12 1219.38 747.72C1219.38 744.547 1218.58 741.657 1217 739.05C1215.41 736.443 1213.37 734.347 1210.88 732.76L1188.61 719.5C1182.15 715.873 1176.99 711.283 1173.14 705.73C1169.28 700.177 1167.36 693.943 1167.36 687.03C1167.36 679.663 1169.06 673.09 1172.46 667.31C1175.97 661.53 1180.67 657.053 1186.57 653.88C1192.57 650.707 1199.32 649.12 1206.8 649.12C1215.52 649.12 1222.95 651.273 1229.07 655.58C1235.19 659.887 1239.72 666.29 1242.67 674.79L1221.59 684.31C1221.13 683.403 1220.17 681.363 1218.7 678.19C1217.22 675.017 1215.41 672.75 1213.26 671.39C1211.22 669.917 1208.67 669.18 1205.61 669.18C1201.87 669.18 1198.98 670.37 1196.94 672.75C1195.01 675.13 1194.05 678.19 1194.05 681.93C1194.05 684.65 1194.78 687.143 1196.26 689.41C1197.84 691.563 1199.71 693.263 1201.87 694.51L1222.44 706.58C1237.62 715.193 1245.61 726.527 1246.41 740.58C1246.41 748.627 1244.59 755.767 1240.97 762C1237.45 768.12 1232.58 772.88 1226.35 776.28C1220.23 779.68 1213.37 781.38 1205.78 781.38ZM1296.42 781.38C1286.11 781.38 1277.38 778.547 1270.24 772.88C1263.21 767.1 1258.06 759.393 1254.77 749.76L1275.85 739.9L1277.89 743.3C1281.18 748.967 1284.29 753.387 1287.24 756.56C1290.3 759.733 1294.1 761.32 1298.63 761.32C1301.58 761.32 1304.18 759.903 1306.45 757.07C1308.83 754.237 1310.02 751.12 1310.02 747.72C1310.02 744.547 1309.23 741.657 1307.64 739.05C1306.05 736.443 1304.01 734.347 1301.52 732.76L1279.25 719.5C1272.79 715.873 1267.63 711.283 1263.78 705.73C1259.93 700.177 1258 693.943 1258 687.03C1258 679.663 1259.7 673.09 1263.1 667.31C1266.61 661.53 1271.32 657.053 1277.21 653.88C1283.22 650.707 1289.96 649.12 1297.44 649.12C1306.17 649.12 1313.59 651.273 1319.71 655.58C1325.83 659.887 1330.36 666.29 1333.31 674.79L1312.23 684.31C1311.78 683.403 1310.81 681.363 1309.34 678.19C1307.87 675.017 1306.05 672.75 1303.9 671.39C1301.86 669.917 1299.31 669.18 1296.25 669.18C1292.51 669.18 1289.62 670.37 1287.58 672.75C1285.65 675.13 1284.69 678.19 1284.69 681.93C1284.69 684.65 1285.43 687.143 1286.9 689.41C1288.49 691.563 1290.36 693.263 1292.51 694.51L1313.08 706.58C1328.27 715.193 1336.26 726.527 1337.05 740.58C1337.05 748.627 1335.24 755.767 1331.61 762C1328.1 768.12 1323.22 772.88 1316.99 776.28C1310.87 779.68 1304.01 781.38 1296.42 781.38ZM1353.41 780.02V651.5H1418.18L1416.14 671.56H1378.4V704.88H1405.09V725.96H1378.4V777.98L1353.41 780.02ZM1431.6 780.02V653.54L1456.59 651.5V777.98L1431.6 780.02Z" fill="#6F2D28"/>
<path opacity="0.05" d="M11.9 168.02V41.54L36.89 39.5V165.98L11.9 168.02ZM77.1986 168.02V59.39H51.1886L53.0586 39.5H127.859L125.819 59.39H102.019V165.98L77.1986 168.02ZM11.9 372.02V245.54L36.89 243.5V369.98L11.9 372.02ZM77.1986 372.02V263.39H51.1886L53.0586 243.5H127.859L125.819 263.39H102.019V369.98L77.1986 372.02ZM11.9 576.02V449.54L36.89 447.5V573.98L11.9 576.02ZM77.1986 576.02V467.39H51.1886L53.0586 447.5H127.859L125.819 467.39H102.019V573.98L77.1986 576.02ZM11.9 780.02V653.54L36.89 651.5V777.98L11.9 780.02ZM77.1986 780.02V671.39H51.1886L53.0586 651.5H127.859L125.819 671.39H102.019V777.98L77.1986 780.02Z" fill="#6F2D28"/>
</svg>
