<svg width="1389" height="745" viewBox="0 0 1389 745" fill="none" xmlns="http://www.w3.org/2000/svg">
<path opacity="0.05" d="M37.18 132.38C24.6 132.38 15.3633 126.09 9.47 113.51C3.69 100.93 0.8 85.0067 0.8 65.74C0.8 54.9733 2.16 44.6033 4.88 34.63C7.71333 24.6567 12.19 16.44 18.31 9.97999C24.5433 3.40666 32.4767 0.11999 42.11 0.11999C50.3833 0.11999 57.24 2.15999 62.68 6.23999C68.2333 10.2067 72.3133 15.5333 74.92 22.22C77.64 28.7933 79 36.1033 79 44.15L55.37 45.68L54.86 42.11C54.18 35.4233 52.99 30.0967 51.29 26.13C49.59 22.1633 46.4167 20.18 41.77 20.18C35.8767 20.18 31.6833 24.94 29.19 34.46C26.81 43.8667 25.62 54.7467 25.62 67.1C25.62 75.8267 25.9033 83.25 26.47 89.37C27.0367 95.49 28.51 100.873 30.89 105.52C33.27 110.053 36.9533 112.32 41.94 112.32C46.1333 112.32 49.42 109.713 51.8 104.5C54.2933 99.2867 55.54 92.8833 55.54 85.29H42.96L45 66.25H79.51V128.98L69.99 130L64.21 106.37C63.19 110.79 61.8867 114.757 60.3 118.27C58.8267 121.783 56.22 125.013 52.48 127.96C48.74 130.907 43.64 132.38 37.18 132.38ZM99.8648 130V4.53999L124.685 2.49999V110.11H166.505L163.955 130H99.8648ZM169.692 130L196.552 4.02999L232.082 2.49999L259.622 128.98L232.422 130L227.832 102.63H197.402L191.962 130H169.692ZM201.992 82.23H223.242L211.512 21.2L201.992 82.23ZM307.011 132.38C296.698 132.38 287.971 129.547 280.831 123.88C273.805 118.1 268.648 110.393 265.361 100.76L286.441 90.9L288.481 94.3C291.768 99.9667 294.885 104.387 297.831 107.56C300.891 110.733 304.688 112.32 309.221 112.32C312.168 112.32 314.775 110.903 317.041 108.07C319.421 105.237 320.611 102.12 320.611 98.72C320.611 95.5467 319.818 92.6567 318.231 90.05C316.645 87.4433 314.605 85.3467 312.111 83.76L289.841 70.5C283.381 66.8733 278.225 62.2833 274.371 56.73C270.518 51.1767 268.591 44.9433 268.591 38.03C268.591 30.6633 270.291 24.09 273.691 18.31C277.205 12.53 281.908 8.05333 287.801 4.87999C293.808 1.70666 300.551 0.11999 308.031 0.11999C316.758 0.11999 324.181 2.27333 330.301 6.58C336.421 10.8867 340.955 17.29 343.901 25.79L322.821 35.31C322.368 34.4033 321.405 32.3633 319.931 29.19C318.458 26.0167 316.645 23.75 314.491 22.39C312.451 20.9167 309.901 20.18 306.841 20.18C303.101 20.18 300.211 21.37 298.171 23.75C296.245 26.13 295.281 29.19 295.281 32.93C295.281 35.65 296.018 38.1433 297.491 40.41C299.078 42.5633 300.948 44.2633 303.101 45.51L323.671 57.58C338.858 66.1933 346.848 77.5267 347.641 91.58C347.641 99.6267 345.828 106.767 342.201 113C338.688 119.12 333.815 123.88 327.581 127.28C321.461 130.68 314.605 132.38 307.011 132.38ZM397.656 132.38C387.342 132.38 378.616 129.547 371.476 123.88C364.449 118.1 359.292 110.393 356.006 100.76L377.086 90.9L379.126 94.3C382.412 99.9667 385.529 104.387 388.476 107.56C391.536 110.733 395.332 112.32 399.866 112.32C402.812 112.32 405.419 110.903 407.686 108.07C410.066 105.237 411.256 102.12 411.256 98.72C411.256 95.5467 410.462 92.6567 408.876 90.05C407.289 87.4433 405.249 85.3467 402.756 83.76L380.486 70.5C374.026 66.8733 368.869 62.2833 365.016 56.73C361.162 51.1767 359.236 44.9433 359.236 38.03C359.236 30.6633 360.936 24.09 364.336 18.31C367.849 12.53 372.552 8.05333 378.446 4.87999C384.452 1.70666 391.196 0.11999 398.676 0.11999C407.402 0.11999 414.826 2.27333 420.946 6.58C427.066 10.8867 431.599 17.29 434.546 25.79L413.466 35.31C413.012 34.4033 412.049 32.3633 410.576 29.19C409.102 26.0167 407.289 23.75 405.136 22.39C403.096 20.9167 400.546 20.18 397.486 20.18C393.746 20.18 390.856 21.37 388.816 23.75C386.889 26.13 385.926 29.19 385.926 32.93C385.926 35.65 386.662 38.1433 388.136 40.41C389.722 42.5633 391.592 44.2633 393.746 45.51L414.316 57.58C429.502 66.1933 437.492 77.5267 438.286 91.58C438.286 99.6267 436.472 106.767 432.846 113C429.332 119.12 424.459 123.88 418.226 127.28C412.106 130.68 405.249 132.38 397.656 132.38ZM454.64 131.02V2.49999H519.41L517.37 22.56H479.63V55.88H506.32V76.96H479.63V128.98L454.64 131.02ZM532.834 131.02V4.53999L557.824 2.49999V128.98L532.834 131.02ZM598.132 131.02V22.39H572.122L573.992 2.49999H648.792L646.752 22.39H622.952V128.98L598.132 131.02ZM776.946 132.38C764.366 132.38 755.129 126.09 749.236 113.51C743.456 100.93 740.566 85.0067 740.566 65.74C740.566 54.9733 741.926 44.6033 744.646 34.63C747.479 24.6567 751.956 16.44 758.076 9.97999C764.309 3.40666 772.242 0.11999 781.876 0.11999C790.149 0.11999 797.006 2.15999 802.446 6.23999C807.999 10.2067 812.079 15.5333 814.686 22.22C817.406 28.7933 818.766 36.1033 818.766 44.15L795.136 45.68L794.626 42.11C793.946 35.4233 792.756 30.0967 791.056 26.13C789.356 22.1633 786.182 20.18 781.536 20.18C775.642 20.18 771.449 24.94 768.956 34.46C766.576 43.8667 765.386 54.7467 765.386 67.1C765.386 75.8267 765.669 83.25 766.236 89.37C766.802 95.49 768.276 100.873 770.656 105.52C773.036 110.053 776.719 112.32 781.706 112.32C785.899 112.32 789.186 109.713 791.566 104.5C794.059 99.2867 795.306 92.8833 795.306 85.29H782.726L784.766 66.25H819.276V128.98L809.756 130L803.976 106.37C802.956 110.79 801.652 114.757 800.066 118.27C798.592 121.783 795.986 125.013 792.246 127.96C788.506 130.907 783.406 132.38 776.946 132.38ZM839.63 130V4.53999L864.45 2.49999V110.11H906.27L903.72 130H839.63ZM909.458 130L936.318 4.02999L971.848 2.49999L999.388 128.98L972.188 130L967.598 102.63H937.168L931.728 130H909.458ZM941.758 82.23H963.008L951.278 21.2L941.758 82.23ZM1046.78 132.38C1036.46 132.38 1027.74 129.547 1020.6 123.88C1013.57 118.1 1008.41 110.393 1005.13 100.76L1026.21 90.9L1028.25 94.3C1031.53 99.9667 1034.65 104.387 1037.6 107.56C1040.66 110.733 1044.45 112.32 1048.99 112.32C1051.93 112.32 1054.54 110.903 1056.81 108.07C1059.19 105.237 1060.38 102.12 1060.38 98.72C1060.38 95.5467 1059.58 92.6567 1058 90.05C1056.41 87.4433 1054.37 85.3467 1051.88 83.76L1029.61 70.5C1023.15 66.8733 1017.99 62.2833 1014.14 56.73C1010.28 51.1767 1008.36 44.9433 1008.36 38.03C1008.36 30.6633 1010.06 24.09 1013.46 18.31C1016.97 12.53 1021.67 8.05333 1027.57 4.87999C1033.57 1.70666 1040.32 0.11999 1047.8 0.11999C1056.52 0.11999 1063.95 2.27333 1070.07 6.58C1076.19 10.8867 1080.72 17.29 1083.67 25.79L1062.59 35.31C1062.13 34.4033 1061.17 32.3633 1059.7 29.19C1058.22 26.0167 1056.41 23.75 1054.26 22.39C1052.22 20.9167 1049.67 20.18 1046.61 20.18C1042.87 20.18 1039.98 21.37 1037.94 23.75C1036.01 26.13 1035.05 29.19 1035.05 32.93C1035.05 35.65 1035.78 38.1433 1037.26 40.41C1038.84 42.5633 1040.71 44.2633 1042.87 45.51L1063.44 57.58C1078.62 66.1933 1086.61 77.5267 1087.41 91.58C1087.41 99.6267 1085.59 106.767 1081.97 113C1078.45 119.12 1073.58 123.88 1067.35 127.28C1061.23 130.68 1054.37 132.38 1046.78 132.38ZM1137.42 132.38C1127.11 132.38 1118.38 129.547 1111.24 123.88C1104.21 118.1 1099.06 110.393 1095.77 100.76L1116.85 90.9L1118.89 94.3C1122.18 99.9667 1125.29 104.387 1128.24 107.56C1131.3 110.733 1135.1 112.32 1139.63 112.32C1142.58 112.32 1145.18 110.903 1147.45 108.07C1149.83 105.237 1151.02 102.12 1151.02 98.72C1151.02 95.5467 1150.23 92.6567 1148.64 90.05C1147.05 87.4433 1145.01 85.3467 1142.52 83.76L1120.25 70.5C1113.79 66.8733 1108.63 62.2833 1104.78 56.73C1100.93 51.1767 1099 44.9433 1099 38.03C1099 30.6633 1100.7 24.09 1104.1 18.31C1107.61 12.53 1112.32 8.05333 1118.21 4.87999C1124.22 1.70666 1130.96 0.11999 1138.44 0.11999C1147.17 0.11999 1154.59 2.27333 1160.71 6.58C1166.83 10.8867 1171.36 17.29 1174.31 25.79L1153.23 35.31C1152.78 34.4033 1151.81 32.3633 1150.34 29.19C1148.87 26.0167 1147.05 23.75 1144.9 22.39C1142.86 20.9167 1140.31 20.18 1137.25 20.18C1133.51 20.18 1130.62 21.37 1128.58 23.75C1126.65 26.13 1125.69 29.19 1125.69 32.93C1125.69 35.65 1126.43 38.1433 1127.9 40.41C1129.49 42.5633 1131.36 44.2633 1133.51 45.51L1154.08 57.58C1169.27 66.1933 1177.26 77.5267 1178.05 91.58C1178.05 99.6267 1176.24 106.767 1172.61 113C1169.1 119.12 1164.22 123.88 1157.99 127.28C1151.87 130.68 1145.01 132.38 1137.42 132.38ZM1194.41 131.02V2.49999H1259.18L1257.14 22.56H1219.4V55.88H1246.09V76.96H1219.4V128.98L1194.41 131.02ZM1272.6 131.02V4.53999L1297.59 2.49999V128.98L1272.6 131.02ZM1337.9 131.02V22.39H1311.89L1313.76 2.49999H1388.56L1386.52 22.39H1362.72V128.98L1337.9 131.02ZM37.18 336.38C24.6 336.38 15.3633 330.09 9.47 317.51C3.69 304.93 0.8 289.007 0.8 269.74C0.8 258.973 2.16 248.603 4.88 238.63C7.71333 228.657 12.19 220.44 18.31 213.98C24.5433 207.407 32.4767 204.12 42.11 204.12C50.3833 204.12 57.24 206.16 62.68 210.24C68.2333 214.207 72.3133 219.533 74.92 226.22C77.64 232.793 79 240.103 79 248.15L55.37 249.68L54.86 246.11C54.18 239.423 52.99 234.097 51.29 230.13C49.59 226.163 46.4167 224.18 41.77 224.18C35.8767 224.18 31.6833 228.94 29.19 238.46C26.81 247.867 25.62 258.747 25.62 271.1C25.62 279.827 25.9033 287.25 26.47 293.37C27.0367 299.49 28.51 304.873 30.89 309.52C33.27 314.053 36.9533 316.32 41.94 316.32C46.1333 316.32 49.42 313.713 51.8 308.5C54.2933 303.287 55.54 296.883 55.54 289.29H42.96L45 270.25H79.51V332.98L69.99 334L64.21 310.37C63.19 314.79 61.8867 318.757 60.3 322.27C58.8267 325.783 56.22 329.013 52.48 331.96C48.74 334.907 43.64 336.38 37.18 336.38ZM99.8648 334V208.54L124.685 206.5V314.11H166.505L163.955 334H99.8648ZM169.692 334L196.552 208.03L232.082 206.5L259.622 332.98L232.422 334L227.832 306.63H197.402L191.962 334H169.692ZM201.992 286.23H223.242L211.512 225.2L201.992 286.23ZM307.011 336.38C296.698 336.38 287.971 333.547 280.831 327.88C273.805 322.1 268.648 314.393 265.361 304.76L286.441 294.9L288.481 298.3C291.768 303.967 294.885 308.387 297.831 311.56C300.891 314.733 304.688 316.32 309.221 316.32C312.168 316.32 314.775 314.903 317.041 312.07C319.421 309.237 320.611 306.12 320.611 302.72C320.611 299.547 319.818 296.657 318.231 294.05C316.645 291.443 314.605 289.347 312.111 287.76L289.841 274.5C283.381 270.873 278.225 266.283 274.371 260.73C270.518 255.177 268.591 248.943 268.591 242.03C268.591 234.663 270.291 228.09 273.691 222.31C277.205 216.53 281.908 212.053 287.801 208.88C293.808 205.707 300.551 204.12 308.031 204.12C316.758 204.12 324.181 206.273 330.301 210.58C336.421 214.887 340.955 221.29 343.901 229.79L322.821 239.31C322.368 238.403 321.405 236.363 319.931 233.19C318.458 230.017 316.645 227.75 314.491 226.39C312.451 224.917 309.901 224.18 306.841 224.18C303.101 224.18 300.211 225.37 298.171 227.75C296.245 230.13 295.281 233.19 295.281 236.93C295.281 239.65 296.018 242.143 297.491 244.41C299.078 246.563 300.948 248.263 303.101 249.51L323.671 261.58C338.858 270.193 346.848 281.527 347.641 295.58C347.641 303.627 345.828 310.767 342.201 317C338.688 323.12 333.815 327.88 327.581 331.28C321.461 334.68 314.605 336.38 307.011 336.38ZM397.656 336.38C387.342 336.38 378.616 333.547 371.476 327.88C364.449 322.1 359.292 314.393 356.006 304.76L377.086 294.9L379.126 298.3C382.412 303.967 385.529 308.387 388.476 311.56C391.536 314.733 395.332 316.32 399.866 316.32C402.812 316.32 405.419 314.903 407.686 312.07C410.066 309.237 411.256 306.12 411.256 302.72C411.256 299.547 410.462 296.657 408.876 294.05C407.289 291.443 405.249 289.347 402.756 287.76L380.486 274.5C374.026 270.873 368.869 266.283 365.016 260.73C361.162 255.177 359.236 248.943 359.236 242.03C359.236 234.663 360.936 228.09 364.336 222.31C367.849 216.53 372.552 212.053 378.446 208.88C384.452 205.707 391.196 204.12 398.676 204.12C407.402 204.12 414.826 206.273 420.946 210.58C427.066 214.887 431.599 221.29 434.546 229.79L413.466 239.31C413.012 238.403 412.049 236.363 410.576 233.19C409.102 230.017 407.289 227.75 405.136 226.39C403.096 224.917 400.546 224.18 397.486 224.18C393.746 224.18 390.856 225.37 388.816 227.75C386.889 230.13 385.926 233.19 385.926 236.93C385.926 239.65 386.662 242.143 388.136 244.41C389.722 246.563 391.592 248.263 393.746 249.51L414.316 261.58C429.502 270.193 437.492 281.527 438.286 295.58C438.286 303.627 436.472 310.767 432.846 317C429.332 323.12 424.459 327.88 418.226 331.28C412.106 334.68 405.249 336.38 397.656 336.38ZM454.64 335.02V206.5H519.41L517.37 226.56H479.63V259.88H506.32V280.96H479.63V332.98L454.64 335.02ZM532.834 335.02V208.54L557.824 206.5V332.98L532.834 335.02ZM598.132 335.02V226.39H572.122L573.992 206.5H648.792L646.752 226.39H622.952V332.98L598.132 335.02ZM776.946 336.38C764.366 336.38 755.129 330.09 749.236 317.51C743.456 304.93 740.566 289.007 740.566 269.74C740.566 258.973 741.926 248.603 744.646 238.63C747.479 228.657 751.956 220.44 758.076 213.98C764.309 207.407 772.242 204.12 781.876 204.12C790.149 204.12 797.006 206.16 802.446 210.24C807.999 214.207 812.079 219.533 814.686 226.22C817.406 232.793 818.766 240.103 818.766 248.15L795.136 249.68L794.626 246.11C793.946 239.423 792.756 234.097 791.056 230.13C789.356 226.163 786.182 224.18 781.536 224.18C775.642 224.18 771.449 228.94 768.956 238.46C766.576 247.867 765.386 258.747 765.386 271.1C765.386 279.827 765.669 287.25 766.236 293.37C766.802 299.49 768.276 304.873 770.656 309.52C773.036 314.053 776.719 316.32 781.706 316.32C785.899 316.32 789.186 313.713 791.566 308.5C794.059 303.287 795.306 296.883 795.306 289.29H782.726L784.766 270.25H819.276V332.98L809.756 334L803.976 310.37C802.956 314.79 801.652 318.757 800.066 322.27C798.592 325.783 795.986 329.013 792.246 331.96C788.506 334.907 783.406 336.38 776.946 336.38ZM839.63 334V208.54L864.45 206.5V314.11H906.27L903.72 334H839.63ZM909.458 334L936.318 208.03L971.848 206.5L999.388 332.98L972.188 334L967.598 306.63H937.168L931.728 334H909.458ZM941.758 286.23H963.008L951.278 225.2L941.758 286.23ZM1046.78 336.38C1036.46 336.38 1027.74 333.547 1020.6 327.88C1013.57 322.1 1008.41 314.393 1005.13 304.76L1026.21 294.9L1028.25 298.3C1031.53 303.967 1034.65 308.387 1037.6 311.56C1040.66 314.733 1044.45 316.32 1048.99 316.32C1051.93 316.32 1054.54 314.903 1056.81 312.07C1059.19 309.237 1060.38 306.12 1060.38 302.72C1060.38 299.547 1059.58 296.657 1058 294.05C1056.41 291.443 1054.37 289.347 1051.88 287.76L1029.61 274.5C1023.15 270.873 1017.99 266.283 1014.14 260.73C1010.28 255.177 1008.36 248.943 1008.36 242.03C1008.36 234.663 1010.06 228.09 1013.46 222.31C1016.97 216.53 1021.67 212.053 1027.57 208.88C1033.57 205.707 1040.32 204.12 1047.8 204.12C1056.52 204.12 1063.95 206.273 1070.07 210.58C1076.19 214.887 1080.72 221.29 1083.67 229.79L1062.59 239.31C1062.13 238.403 1061.17 236.363 1059.7 233.19C1058.22 230.017 1056.41 227.75 1054.26 226.39C1052.22 224.917 1049.67 224.18 1046.61 224.18C1042.87 224.18 1039.98 225.37 1037.94 227.75C1036.01 230.13 1035.05 233.19 1035.05 236.93C1035.05 239.65 1035.78 242.143 1037.26 244.41C1038.84 246.563 1040.71 248.263 1042.87 249.51L1063.44 261.58C1078.62 270.193 1086.61 281.527 1087.41 295.58C1087.41 303.627 1085.59 310.767 1081.97 317C1078.45 323.12 1073.58 327.88 1067.35 331.28C1061.23 334.68 1054.37 336.38 1046.78 336.38ZM1137.42 336.38C1127.11 336.38 1118.38 333.547 1111.24 327.88C1104.21 322.1 1099.06 314.393 1095.77 304.76L1116.85 294.9L1118.89 298.3C1122.18 303.967 1125.29 308.387 1128.24 311.56C1131.3 314.733 1135.1 316.32 1139.63 316.32C1142.58 316.32 1145.18 314.903 1147.45 312.07C1149.83 309.237 1151.02 306.12 1151.02 302.72C1151.02 299.547 1150.23 296.657 1148.64 294.05C1147.05 291.443 1145.01 289.347 1142.52 287.76L1120.25 274.5C1113.79 270.873 1108.63 266.283 1104.78 260.73C1100.93 255.177 1099 248.943 1099 242.03C1099 234.663 1100.7 228.09 1104.1 222.31C1107.61 216.53 1112.32 212.053 1118.21 208.88C1124.22 205.707 1130.96 204.12 1138.44 204.12C1147.17 204.12 1154.59 206.273 1160.71 210.58C1166.83 214.887 1171.36 221.29 1174.31 229.79L1153.23 239.31C1152.78 238.403 1151.81 236.363 1150.34 233.19C1148.87 230.017 1147.05 227.75 1144.9 226.39C1142.86 224.917 1140.31 224.18 1137.25 224.18C1133.51 224.18 1130.62 225.37 1128.58 227.75C1126.65 230.13 1125.69 233.19 1125.69 236.93C1125.69 239.65 1126.43 242.143 1127.9 244.41C1129.49 246.563 1131.36 248.263 1133.51 249.51L1154.08 261.58C1169.27 270.193 1177.26 281.527 1178.05 295.58C1178.05 303.627 1176.24 310.767 1172.61 317C1169.1 323.12 1164.22 327.88 1157.99 331.28C1151.87 334.68 1145.01 336.38 1137.42 336.38ZM1194.41 335.02V206.5H1259.18L1257.14 226.56H1219.4V259.88H1246.09V280.96H1219.4V332.98L1194.41 335.02ZM1272.6 335.02V208.54L1297.59 206.5V332.98L1272.6 335.02ZM1337.9 335.02V226.39H1311.89L1313.76 206.5H1388.56L1386.52 226.39H1362.72V332.98L1337.9 335.02ZM37.18 540.38C24.6 540.38 15.3633 534.09 9.47 521.51C3.69 508.93 0.8 493.007 0.8 473.74C0.8 462.973 2.16 452.603 4.88 442.63C7.71333 432.657 12.19 424.44 18.31 417.98C24.5433 411.407 32.4767 408.12 42.11 408.12C50.3833 408.12 57.24 410.16 62.68 414.24C68.2333 418.207 72.3133 423.533 74.92 430.22C77.64 436.793 79 444.103 79 452.15L55.37 453.68L54.86 450.11C54.18 443.423 52.99 438.097 51.29 434.13C49.59 430.163 46.4167 428.18 41.77 428.18C35.8767 428.18 31.6833 432.94 29.19 442.46C26.81 451.867 25.62 462.747 25.62 475.1C25.62 483.827 25.9033 491.25 26.47 497.37C27.0367 503.49 28.51 508.873 30.89 513.52C33.27 518.053 36.9533 520.32 41.94 520.32C46.1333 520.32 49.42 517.713 51.8 512.5C54.2933 507.287 55.54 500.883 55.54 493.29H42.96L45 474.25H79.51V536.98L69.99 538L64.21 514.37C63.19 518.79 61.8867 522.757 60.3 526.27C58.8267 529.783 56.22 533.013 52.48 535.96C48.74 538.907 43.64 540.38 37.18 540.38ZM99.8648 538V412.54L124.685 410.5V518.11H166.505L163.955 538H99.8648ZM169.692 538L196.552 412.03L232.082 410.5L259.622 536.98L232.422 538L227.832 510.63H197.402L191.962 538H169.692ZM201.992 490.23H223.242L211.512 429.2L201.992 490.23ZM307.011 540.38C296.698 540.38 287.971 537.547 280.831 531.88C273.805 526.1 268.648 518.393 265.361 508.76L286.441 498.9L288.481 502.3C291.768 507.967 294.885 512.387 297.831 515.56C300.891 518.733 304.688 520.32 309.221 520.32C312.168 520.32 314.775 518.903 317.041 516.07C319.421 513.237 320.611 510.12 320.611 506.72C320.611 503.547 319.818 500.657 318.231 498.05C316.645 495.443 314.605 493.347 312.111 491.76L289.841 478.5C283.381 474.873 278.225 470.283 274.371 464.73C270.518 459.177 268.591 452.943 268.591 446.03C268.591 438.663 270.291 432.09 273.691 426.31C277.205 420.53 281.908 416.053 287.801 412.88C293.808 409.707 300.551 408.12 308.031 408.12C316.758 408.12 324.181 410.273 330.301 414.58C336.421 418.887 340.955 425.29 343.901 433.79L322.821 443.31C322.368 442.403 321.405 440.363 319.931 437.19C318.458 434.017 316.645 431.75 314.491 430.39C312.451 428.917 309.901 428.18 306.841 428.18C303.101 428.18 300.211 429.37 298.171 431.75C296.245 434.13 295.281 437.19 295.281 440.93C295.281 443.65 296.018 446.143 297.491 448.41C299.078 450.563 300.948 452.263 303.101 453.51L323.671 465.58C338.858 474.193 346.848 485.527 347.641 499.58C347.641 507.627 345.828 514.767 342.201 521C338.688 527.12 333.815 531.88 327.581 535.28C321.461 538.68 314.605 540.38 307.011 540.38ZM397.656 540.38C387.342 540.38 378.616 537.547 371.476 531.88C364.449 526.1 359.292 518.393 356.006 508.76L377.086 498.9L379.126 502.3C382.412 507.967 385.529 512.387 388.476 515.56C391.536 518.733 395.332 520.32 399.866 520.32C402.812 520.32 405.419 518.903 407.686 516.07C410.066 513.237 411.256 510.12 411.256 506.72C411.256 503.547 410.462 500.657 408.876 498.05C407.289 495.443 405.249 493.347 402.756 491.76L380.486 478.5C374.026 474.873 368.869 470.283 365.016 464.73C361.162 459.177 359.236 452.943 359.236 446.03C359.236 438.663 360.936 432.09 364.336 426.31C367.849 420.53 372.552 416.053 378.446 412.88C384.452 409.707 391.196 408.12 398.676 408.12C407.402 408.12 414.826 410.273 420.946 414.58C427.066 418.887 431.599 425.29 434.546 433.79L413.466 443.31C413.012 442.403 412.049 440.363 410.576 437.19C409.102 434.017 407.289 431.75 405.136 430.39C403.096 428.917 400.546 428.18 397.486 428.18C393.746 428.18 390.856 429.37 388.816 431.75C386.889 434.13 385.926 437.19 385.926 440.93C385.926 443.65 386.662 446.143 388.136 448.41C389.722 450.563 391.592 452.263 393.746 453.51L414.316 465.58C429.502 474.193 437.492 485.527 438.286 499.58C438.286 507.627 436.472 514.767 432.846 521C429.332 527.12 424.459 531.88 418.226 535.28C412.106 538.68 405.249 540.38 397.656 540.38ZM454.64 539.02V410.5H519.41L517.37 430.56H479.63V463.88H506.32V484.96H479.63V536.98L454.64 539.02ZM532.834 539.02V412.54L557.824 410.5V536.98L532.834 539.02ZM598.132 539.02V430.39H572.122L573.992 410.5H648.792L646.752 430.39H622.952V536.98L598.132 539.02ZM776.946 540.38C764.366 540.38 755.129 534.09 749.236 521.51C743.456 508.93 740.566 493.007 740.566 473.74C740.566 462.973 741.926 452.603 744.646 442.63C747.479 432.657 751.956 424.44 758.076 417.98C764.309 411.407 772.242 408.12 781.876 408.12C790.149 408.12 797.006 410.16 802.446 414.24C807.999 418.207 812.079 423.533 814.686 430.22C817.406 436.793 818.766 444.103 818.766 452.15L795.136 453.68L794.626 450.11C793.946 443.423 792.756 438.097 791.056 434.13C789.356 430.163 786.182 428.18 781.536 428.18C775.642 428.18 771.449 432.94 768.956 442.46C766.576 451.867 765.386 462.747 765.386 475.1C765.386 483.827 765.669 491.25 766.236 497.37C766.802 503.49 768.276 508.873 770.656 513.52C773.036 518.053 776.719 520.32 781.706 520.32C785.899 520.32 789.186 517.713 791.566 512.5C794.059 507.287 795.306 500.883 795.306 493.29H782.726L784.766 474.25H819.276V536.98L809.756 538L803.976 514.37C802.956 518.79 801.652 522.757 800.066 526.27C798.592 529.783 795.986 533.013 792.246 535.96C788.506 538.907 783.406 540.38 776.946 540.38ZM839.63 538V412.54L864.45 410.5V518.11H906.27L903.72 538H839.63ZM909.458 538L936.318 412.03L971.848 410.5L999.388 536.98L972.188 538L967.598 510.63H937.168L931.728 538H909.458ZM941.758 490.23H963.008L951.278 429.2L941.758 490.23ZM1046.78 540.38C1036.46 540.38 1027.74 537.547 1020.6 531.88C1013.57 526.1 1008.41 518.393 1005.13 508.76L1026.21 498.9L1028.25 502.3C1031.53 507.967 1034.65 512.387 1037.6 515.56C1040.66 518.733 1044.45 520.32 1048.99 520.32C1051.93 520.32 1054.54 518.903 1056.81 516.07C1059.19 513.237 1060.38 510.12 1060.38 506.72C1060.38 503.547 1059.58 500.657 1058 498.05C1056.41 495.443 1054.37 493.347 1051.88 491.76L1029.61 478.5C1023.15 474.873 1017.99 470.283 1014.14 464.73C1010.28 459.177 1008.36 452.943 1008.36 446.03C1008.36 438.663 1010.06 432.09 1013.46 426.31C1016.97 420.53 1021.67 416.053 1027.57 412.88C1033.57 409.707 1040.32 408.12 1047.8 408.12C1056.52 408.12 1063.95 410.273 1070.07 414.58C1076.19 418.887 1080.72 425.29 1083.67 433.79L1062.59 443.31C1062.13 442.403 1061.17 440.363 1059.7 437.19C1058.22 434.017 1056.41 431.75 1054.26 430.39C1052.22 428.917 1049.67 428.18 1046.61 428.18C1042.87 428.18 1039.98 429.37 1037.94 431.75C1036.01 434.13 1035.05 437.19 1035.05 440.93C1035.05 443.65 1035.78 446.143 1037.26 448.41C1038.84 450.563 1040.71 452.263 1042.87 453.51L1063.44 465.58C1078.62 474.193 1086.61 485.527 1087.41 499.58C1087.41 507.627 1085.59 514.767 1081.97 521C1078.45 527.12 1073.58 531.88 1067.35 535.28C1061.23 538.68 1054.37 540.38 1046.78 540.38ZM1137.42 540.38C1127.11 540.38 1118.38 537.547 1111.24 531.88C1104.21 526.1 1099.06 518.393 1095.77 508.76L1116.85 498.9L1118.89 502.3C1122.18 507.967 1125.29 512.387 1128.24 515.56C1131.3 518.733 1135.1 520.32 1139.63 520.32C1142.58 520.32 1145.18 518.903 1147.45 516.07C1149.83 513.237 1151.02 510.12 1151.02 506.72C1151.02 503.547 1150.23 500.657 1148.64 498.05C1147.05 495.443 1145.01 493.347 1142.52 491.76L1120.25 478.5C1113.79 474.873 1108.63 470.283 1104.78 464.73C1100.93 459.177 1099 452.943 1099 446.03C1099 438.663 1100.7 432.09 1104.1 426.31C1107.61 420.53 1112.32 416.053 1118.21 412.88C1124.22 409.707 1130.96 408.12 1138.44 408.12C1147.17 408.12 1154.59 410.273 1160.71 414.58C1166.83 418.887 1171.36 425.29 1174.31 433.79L1153.23 443.31C1152.78 442.403 1151.81 440.363 1150.34 437.19C1148.87 434.017 1147.05 431.75 1144.9 430.39C1142.86 428.917 1140.31 428.18 1137.25 428.18C1133.51 428.18 1130.62 429.37 1128.58 431.75C1126.65 434.13 1125.69 437.19 1125.69 440.93C1125.69 443.65 1126.43 446.143 1127.9 448.41C1129.49 450.563 1131.36 452.263 1133.51 453.51L1154.08 465.58C1169.27 474.193 1177.26 485.527 1178.05 499.58C1178.05 507.627 1176.24 514.767 1172.61 521C1169.1 527.12 1164.22 531.88 1157.99 535.28C1151.87 538.68 1145.01 540.38 1137.42 540.38ZM1194.41 539.02V410.5H1259.18L1257.14 430.56H1219.4V463.88H1246.09V484.96H1219.4V536.98L1194.41 539.02ZM1272.6 539.02V412.54L1297.59 410.5V536.98L1272.6 539.02ZM1337.9 539.02V430.39H1311.89L1313.76 410.5H1388.56L1386.52 430.39H1362.72V536.98L1337.9 539.02ZM37.18 744.38C24.6 744.38 15.3633 738.09 9.47 725.51C3.69 712.93 0.8 697.007 0.8 677.74C0.8 666.973 2.16 656.603 4.88 646.63C7.71333 636.657 12.19 628.44 18.31 621.98C24.5433 615.407 32.4767 612.12 42.11 612.12C50.3833 612.12 57.24 614.16 62.68 618.24C68.2333 622.207 72.3133 627.533 74.92 634.22C77.64 640.793 79 648.103 79 656.15L55.37 657.68L54.86 654.11C54.18 647.423 52.99 642.097 51.29 638.13C49.59 634.163 46.4167 632.18 41.77 632.18C35.8767 632.18 31.6833 636.94 29.19 646.46C26.81 655.867 25.62 666.747 25.62 679.1C25.62 687.827 25.9033 695.25 26.47 701.37C27.0367 707.49 28.51 712.873 30.89 717.52C33.27 722.053 36.9533 724.32 41.94 724.32C46.1333 724.32 49.42 721.713 51.8 716.5C54.2933 711.287 55.54 704.883 55.54 697.29H42.96L45 678.25H79.51V740.98L69.99 742L64.21 718.37C63.19 722.79 61.8867 726.757 60.3 730.27C58.8267 733.783 56.22 737.013 52.48 739.96C48.74 742.907 43.64 744.38 37.18 744.38ZM99.8648 742V616.54L124.685 614.5V722.11H166.505L163.955 742H99.8648ZM169.692 742L196.552 616.03L232.082 614.5L259.622 740.98L232.422 742L227.832 714.63H197.402L191.962 742H169.692ZM201.992 694.23H223.242L211.512 633.2L201.992 694.23ZM307.011 744.38C296.698 744.38 287.971 741.547 280.831 735.88C273.805 730.1 268.648 722.393 265.361 712.76L286.441 702.9L288.481 706.3C291.768 711.967 294.885 716.387 297.831 719.56C300.891 722.733 304.688 724.32 309.221 724.32C312.168 724.32 314.775 722.903 317.041 720.07C319.421 717.237 320.611 714.12 320.611 710.72C320.611 707.547 319.818 704.657 318.231 702.05C316.645 699.443 314.605 697.347 312.111 695.76L289.841 682.5C283.381 678.873 278.225 674.283 274.371 668.73C270.518 663.177 268.591 656.943 268.591 650.03C268.591 642.663 270.291 636.09 273.691 630.31C277.205 624.53 281.908 620.053 287.801 616.88C293.808 613.707 300.551 612.12 308.031 612.12C316.758 612.12 324.181 614.273 330.301 618.58C336.421 622.887 340.955 629.29 343.901 637.79L322.821 647.31C322.368 646.403 321.405 644.363 319.931 641.19C318.458 638.017 316.645 635.75 314.491 634.39C312.451 632.917 309.901 632.18 306.841 632.18C303.101 632.18 300.211 633.37 298.171 635.75C296.245 638.13 295.281 641.19 295.281 644.93C295.281 647.65 296.018 650.143 297.491 652.41C299.078 654.563 300.948 656.263 303.101 657.51L323.671 669.58C338.858 678.193 346.848 689.527 347.641 703.58C347.641 711.627 345.828 718.767 342.201 725C338.688 731.12 333.815 735.88 327.581 739.28C321.461 742.68 314.605 744.38 307.011 744.38ZM397.656 744.38C387.342 744.38 378.616 741.547 371.476 735.88C364.449 730.1 359.292 722.393 356.006 712.76L377.086 702.9L379.126 706.3C382.412 711.967 385.529 716.387 388.476 719.56C391.536 722.733 395.332 724.32 399.866 724.32C402.812 724.32 405.419 722.903 407.686 720.07C410.066 717.237 411.256 714.12 411.256 710.72C411.256 707.547 410.462 704.657 408.876 702.05C407.289 699.443 405.249 697.347 402.756 695.76L380.486 682.5C374.026 678.873 368.869 674.283 365.016 668.73C361.162 663.177 359.236 656.943 359.236 650.03C359.236 642.663 360.936 636.09 364.336 630.31C367.849 624.53 372.552 620.053 378.446 616.88C384.452 613.707 391.196 612.12 398.676 612.12C407.402 612.12 414.826 614.273 420.946 618.58C427.066 622.887 431.599 629.29 434.546 637.79L413.466 647.31C413.012 646.403 412.049 644.363 410.576 641.19C409.102 638.017 407.289 635.75 405.136 634.39C403.096 632.917 400.546 632.18 397.486 632.18C393.746 632.18 390.856 633.37 388.816 635.75C386.889 638.13 385.926 641.19 385.926 644.93C385.926 647.65 386.662 650.143 388.136 652.41C389.722 654.563 391.592 656.263 393.746 657.51L414.316 669.58C429.502 678.193 437.492 689.527 438.286 703.58C438.286 711.627 436.472 718.767 432.846 725C429.332 731.12 424.459 735.88 418.226 739.28C412.106 742.68 405.249 744.38 397.656 744.38ZM454.64 743.02V614.5H519.41L517.37 634.56H479.63V667.88H506.32V688.96H479.63V740.98L454.64 743.02ZM532.834 743.02V616.54L557.824 614.5V740.98L532.834 743.02ZM598.132 743.02V634.39H572.122L573.992 614.5H648.792L646.752 634.39H622.952V740.98L598.132 743.02ZM776.946 744.38C764.366 744.38 755.129 738.09 749.236 725.51C743.456 712.93 740.566 697.007 740.566 677.74C740.566 666.973 741.926 656.603 744.646 646.63C747.479 636.657 751.956 628.44 758.076 621.98C764.309 615.407 772.242 612.12 781.876 612.12C790.149 612.12 797.006 614.16 802.446 618.24C807.999 622.207 812.079 627.533 814.686 634.22C817.406 640.793 818.766 648.103 818.766 656.15L795.136 657.68L794.626 654.11C793.946 647.423 792.756 642.097 791.056 638.13C789.356 634.163 786.182 632.18 781.536 632.18C775.642 632.18 771.449 636.94 768.956 646.46C766.576 655.867 765.386 666.747 765.386 679.1C765.386 687.827 765.669 695.25 766.236 701.37C766.802 707.49 768.276 712.873 770.656 717.52C773.036 722.053 776.719 724.32 781.706 724.32C785.899 724.32 789.186 721.713 791.566 716.5C794.059 711.287 795.306 704.883 795.306 697.29H782.726L784.766 678.25H819.276V740.98L809.756 742L803.976 718.37C802.956 722.79 801.652 726.757 800.066 730.27C798.592 733.783 795.986 737.013 792.246 739.96C788.506 742.907 783.406 744.38 776.946 744.38ZM839.63 742V616.54L864.45 614.5V722.11H906.27L903.72 742H839.63ZM909.458 742L936.318 616.03L971.848 614.5L999.388 740.98L972.188 742L967.598 714.63H937.168L931.728 742H909.458ZM941.758 694.23H963.008L951.278 633.2L941.758 694.23ZM1046.78 744.38C1036.46 744.38 1027.74 741.547 1020.6 735.88C1013.57 730.1 1008.41 722.393 1005.13 712.76L1026.21 702.9L1028.25 706.3C1031.53 711.967 1034.65 716.387 1037.6 719.56C1040.66 722.733 1044.45 724.32 1048.99 724.32C1051.93 724.32 1054.54 722.903 1056.81 720.07C1059.19 717.237 1060.38 714.12 1060.38 710.72C1060.38 707.547 1059.58 704.657 1058 702.05C1056.41 699.443 1054.37 697.347 1051.88 695.76L1029.61 682.5C1023.15 678.873 1017.99 674.283 1014.14 668.73C1010.28 663.177 1008.36 656.943 1008.36 650.03C1008.36 642.663 1010.06 636.09 1013.46 630.31C1016.97 624.53 1021.67 620.053 1027.57 616.88C1033.57 613.707 1040.32 612.12 1047.8 612.12C1056.52 612.12 1063.95 614.273 1070.07 618.58C1076.19 622.887 1080.72 629.29 1083.67 637.79L1062.59 647.31C1062.13 646.403 1061.17 644.363 1059.7 641.19C1058.22 638.017 1056.41 635.75 1054.26 634.39C1052.22 632.917 1049.67 632.18 1046.61 632.18C1042.87 632.18 1039.98 633.37 1037.94 635.75C1036.01 638.13 1035.05 641.19 1035.05 644.93C1035.05 647.65 1035.78 650.143 1037.26 652.41C1038.84 654.563 1040.71 656.263 1042.87 657.51L1063.44 669.58C1078.62 678.193 1086.61 689.527 1087.41 703.58C1087.41 711.627 1085.59 718.767 1081.97 725C1078.45 731.12 1073.58 735.88 1067.35 739.28C1061.23 742.68 1054.37 744.38 1046.78 744.38ZM1137.42 744.38C1127.11 744.38 1118.38 741.547 1111.24 735.88C1104.21 730.1 1099.06 722.393 1095.77 712.76L1116.85 702.9L1118.89 706.3C1122.18 711.967 1125.29 716.387 1128.24 719.56C1131.3 722.733 1135.1 724.32 1139.63 724.32C1142.58 724.32 1145.18 722.903 1147.45 720.07C1149.83 717.237 1151.02 714.12 1151.02 710.72C1151.02 707.547 1150.23 704.657 1148.64 702.05C1147.05 699.443 1145.01 697.347 1142.52 695.76L1120.25 682.5C1113.79 678.873 1108.63 674.283 1104.78 668.73C1100.93 663.177 1099 656.943 1099 650.03C1099 642.663 1100.7 636.09 1104.1 630.31C1107.61 624.53 1112.32 620.053 1118.21 616.88C1124.22 613.707 1130.96 612.12 1138.44 612.12C1147.17 612.12 1154.59 614.273 1160.71 618.58C1166.83 622.887 1171.36 629.29 1174.31 637.79L1153.23 647.31C1152.78 646.403 1151.81 644.363 1150.34 641.19C1148.87 638.017 1147.05 635.75 1144.9 634.39C1142.86 632.917 1140.31 632.18 1137.25 632.18C1133.51 632.18 1130.62 633.37 1128.58 635.75C1126.65 638.13 1125.69 641.19 1125.69 644.93C1125.69 647.65 1126.43 650.143 1127.9 652.41C1129.49 654.563 1131.36 656.263 1133.51 657.51L1154.08 669.58C1169.27 678.193 1177.26 689.527 1178.05 703.58C1178.05 711.627 1176.24 718.767 1172.61 725C1169.1 731.12 1164.22 735.88 1157.99 739.28C1151.87 742.68 1145.01 744.38 1137.42 744.38ZM1194.41 743.02V614.5H1259.18L1257.14 634.56H1219.4V667.88H1246.09V688.96H1219.4V740.98L1194.41 743.02ZM1272.6 743.02V616.54L1297.59 614.5V740.98L1272.6 743.02ZM1337.9 743.02V634.39H1311.89L1313.76 614.5H1388.56L1386.52 634.39H1362.72V740.98L1337.9 743.02Z" fill="#6F2D28"/>
</svg>
