<svg width="42" height="44" viewBox="0 0 42 44" fill="none" xmlns="http://www.w3.org/2000/svg">
<path d="M41.9999 22.5133C41.9999 21.0667 41.8599 19.5733 41.6266 18.1733H21.4199V26.4333H32.9933C32.5266 29.0933 30.9866 31.4267 28.6999 32.92L35.6066 38.2867C39.6666 34.5067 41.9999 29 41.9999 22.5133Z" fill="#4280EF"/>
<path d="M21.42 43.42C27.2066 43.42 32.06 41.5067 35.6066 38.24L28.7 32.92C26.7866 34.2267 24.3133 34.9734 21.42 34.9734C15.82 34.9734 11.1066 31.1934 9.37995 26.1534L2.28662 31.6133C5.92662 38.8467 13.3 43.42 21.42 43.42Z" fill="#34A353"/>
<path d="M9.38005 26.1067C8.49338 23.4467 8.49338 20.5534 9.38005 17.8934L2.28672 12.3867C-0.746615 18.4534 -0.746615 25.5934 2.28672 31.6134L9.38005 26.1067Z" fill="#F6B704"/>
<path d="M21.42 9.07334C24.4533 9.02667 27.44 10.1933 29.6333 12.2933L35.7466 6.13334C31.8733 2.49334 26.74 0.533341 21.42 0.580008C13.3 0.580008 5.92662 5.15334 2.28662 12.3867L9.37995 17.8933C11.1066 12.8067 15.82 9.07334 21.42 9.07334Z" fill="#E54335"/>
</svg>
