<svg width="230" height="230" viewBox="0 0 230 230" fill="none" xmlns="http://www.w3.org/2000/svg">
<path d="M101.061 69.6325C100.785 67.2918 93.5764 66.4245 84.9394 66.8678C76.3863 67.3062 69.8601 68.885 70.5501 72.9412L71.288 77.2872C78.2191 78.097 85.0305 77.8023 91.3315 75.8545C96.8755 74.1415 101.289 71.5756 101.061 69.6325Z" fill="#999999"/>
<mask id="mask0_71_709" style="mask-type:luminance" maskUnits="userSpaceOnUse" x="23" y="47" width="180" height="138">
<path d="M23 47.2267H202.4V184.613H23V47.2267Z" fill="white"/>
</mask>
<g mask="url(#mask0_71_709)">
<path d="M198.27 81.2428C197.026 79.6735 194.54 79.1416 191.976 78.7799C187.757 78.1833 183.488 78.0827 180.565 76.0438C177.345 73.7965 175.806 69.2157 173.871 64.7882C172.103 60.7488 169.999 56.8987 166.906 54.1267C163.789 51.3332 159.68 49.704 155.313 48.7074C148.492 47.1501 141.165 47.2435 133.831 47.8161C125.793 48.4414 117.885 49.728 113.467 53.7434C111.014 55.9715 109.679 58.9999 107.803 61.6976C105.599 64.8673 102.738 67.5314 99.2955 69.3019C94.3098 71.8703 88.1142 72.5004 81.8682 72.855C78.3991 73.0514 74.9347 73.1712 71.4631 73.2766C69.9202 73.3222 68.3821 73.3797 66.8416 73.176C64.635 72.8861 62.3973 72.0787 60.1069 71.4822C54.6564 70.0614 48.8752 69.9033 43.1036 70.7035C38.4989 71.3408 34.0498 72.589 30.7723 75.3874C26.0214 79.4459 23.8939 86.4322 24.1502 93.7227C24.2556 96.7031 24.7635 99.6859 24.8761 102.76C25.0439 107.319 24.2772 112.051 23.8316 116.874C23.0218 125.671 23.2613 134.756 23.7237 143.841C24.0783 150.847 24.4856 157.804 24.8378 164.74C25.0271 168.458 25.2211 172.222 25.2691 175.861C25.2978 177.984 25.2283 180.059 26.3017 181.465C28.5969 184.474 35.7964 184.108 43.3624 184.216C47.8162 184.278 52.2677 184.522 56.1633 183.684C58.4298 183.195 60.4926 182.349 62.3518 181.077C68.5306 181.142 74.7047 181.173 80.8907 181.171C94.1133 181.166 107.384 180.931 120.628 180.998C128.769 181.039 136.905 181.139 145.039 181.036C153.664 180.929 162.282 180.512 170.883 180.639C182.958 180.814 194.475 181.889 198.809 176.741C201.303 173.779 201.26 168.868 201.162 163.911C201.056 158.532 200.802 153.154 201.025 147.801C201.202 143.491 201.691 139.191 201.9 134.816C202.264 127.272 201.763 119.533 201.102 111.747C200.419 103.694 199.573 95.486 199.475 88.0925C199.441 85.3828 199.52 82.8168 198.27 81.2428Z" fill="#F2DA7A"/>
</g>
<mask id="mask1_71_709" style="mask-type:luminance" maskUnits="userSpaceOnUse" x="23" y="88" width="64" height="89">
<path d="M23 88.9333H86.48V176.64H23V88.9333Z" fill="white"/>
</mask>
<g mask="url(#mask1_71_709)">
<path d="M85.9986 93.7299C83.1427 105.211 81.7268 116.924 81.48 128.687C81.1686 143.673 82.7953 158.719 85.862 173.588L63.7053 174.836C57.6511 175.699 51.5584 176.185 45.4563 176.333C38.6832 176.499 31.903 176.242 25.1396 175.612C23.9129 160.466 23.2133 145.293 23.1079 130.113C23.0145 116.488 23.3978 102.86 24.3106 89.252L30.65 89.1658C34.5912 89.1131 38.3862 90.3709 42.289 90.977C46.0073 91.5544 49.8239 91.5688 53.5254 90.9243C57.342 90.2607 61.0507 88.8735 64.3594 89.5683C67.1218 90.1505 69.5464 92.2037 72.7256 92.4984L85.9986 93.7299Z" fill="#CC824D"/>
</g>
<mask id="mask2_71_709" style="mask-type:luminance" maskUnits="userSpaceOnUse" x="181" y="93" width="22" height="80">
<path d="M181.096 93.6771H202.848V172.977H181.096V93.6771Z" fill="white"/>
</mask>
<g mask="url(#mask2_71_709)">
<path d="M200.021 93.6843L181.151 94.3384C186.362 120.994 191.001 148.65 188.411 165.629C188.008 168.274 187.508 170.677 186.48 172.974L200.687 172.742C202.232 159.486 202.956 146.17 202.834 132.854C202.714 119.763 201.779 106.689 200.021 93.6843Z" fill="#CC824D"/>
</g>
<path d="M76.5396 85.0928C76.5372 83.4253 77.8836 82.0765 79.5535 82.0789C81.221 82.0789 82.5651 83.4253 82.5651 85.0928C82.5651 86.7603 81.221 88.1068 79.5535 88.1092C77.8836 88.1116 76.5372 86.7627 76.5396 85.0928Z" fill="#999999"/>
<path d="M86.9616 104.743C100.259 76.8703 133.472 65.1211 161.35 78.5306C189.156 91.9041 200.869 125.142 187.539 152.981C174.208 180.823 140.988 192.508 113.153 179.194C85.2462 165.847 73.5857 132.576 86.9616 104.743Z" fill="#F2DA7A"/>
<mask id="mask3_71_709" style="mask-type:luminance" maskUnits="userSpaceOnUse" x="76" y="68" width="122" height="118">
<path d="M76.4893 68.08H197.956V185.124H76.4893V68.08Z" fill="white"/>
</mask>
<g mask="url(#mask3_71_709)">
<path d="M86.9636 104.741C100.258 76.8677 133.474 65.1209 161.352 78.5304C189.158 91.904 200.871 125.141 187.54 152.981C174.21 180.823 140.987 192.508 113.152 179.194C85.2458 165.847 73.5853 132.576 86.9636 104.741Z" stroke="#CC824D" stroke-width="1.88115"/>
</g>
<path d="M94.9133 109.408C106.27 85.5983 134.646 75.5621 158.46 87.0166C182.215 98.4424 192.222 126.835 180.835 150.619C169.448 174.402 141.067 184.386 117.286 173.013C93.4447 161.611 83.4852 133.187 94.9133 109.408Z" fill="#9A9A9A"/>
<path d="M111.114 117.657C118.093 103.026 135.528 96.8588 150.159 103.898C164.754 110.918 170.902 128.364 163.906 142.976C156.908 157.588 139.471 163.722 124.861 156.735C110.213 149.73 104.094 132.264 111.114 117.657Z" fill="#C7C6C5"/>
<path d="M122.149 123.055C126.246 114.468 136.478 110.848 145.067 114.979C153.635 119.099 157.246 129.342 153.139 137.919C149.03 146.498 138.795 150.099 130.218 145.995C121.619 141.884 118.026 131.632 122.149 123.055Z" fill="#5E6062"/>
<path d="M68.6214 95.68C67.9266 95.91 68.0847 99.1587 67.1336 102.374C66.5538 104.327 65.6002 106.183 64.7617 108.088C63.801 110.268 63.0008 112.515 62.5144 114.82C62.0951 116.809 61.9226 118.843 61.7334 120.877C61.477 123.606 61.1919 126.332 61.0122 129.061C60.8517 131.486 60.775 133.915 60.8038 136.342C60.8349 138.803 60.9739 141.263 61.1105 143.724C61.2446 146.131 61.374 148.542 61.5297 150.947C61.6926 153.472 61.8819 155.995 62.0281 158.518C62.1838 161.196 62.2964 163.877 62.4234 166.558C62.6198 170.749 62.8019 174.237 63.3146 174.251C63.8034 174.266 64.4455 171.23 64.7425 167.49C64.9414 165.015 64.9318 162.526 65.0157 160.037C65.1019 157.49 65.3032 154.948 65.2936 152.404C65.284 150.039 65.0995 147.677 65.066 145.312C65.0348 142.976 65.1594 140.64 65.26 138.304C65.3607 136.019 65.4397 133.731 65.5523 131.443C65.6601 129.205 65.7991 126.967 65.8662 124.727C65.9405 122.257 65.9189 119.777 66.4675 117.427C67.0114 115.093 68.0967 112.887 69.0598 110.625C70.0301 108.344 70.8327 106.023 71.0148 103.677C71.3982 98.6652 69.63 95.3373 68.6214 95.68Z" fill="#AF6834"/>
<path d="M200.694 117.657C201.358 117.731 201.545 123.651 201.588 130.681C201.624 136.721 201.47 142.787 201.101 148.786C200.881 152.38 200.56 155.945 200.541 159.522C200.517 164.11 200.955 168.528 198.885 170.329C197.575 171.472 195.296 171.477 193.016 171.666C191.348 171.803 189.824 172.014 189.587 171.628C189.201 170.995 192.402 169.067 194.451 165.768C196.995 161.668 197.163 156.036 197.323 150.329C197.484 144.466 197.783 138.618 198.27 132.777C198.979 124.26 199.971 117.571 200.694 117.657Z" fill="#AF6834"/>
<path d="M109.492 65.6818C120.817 64.8768 132.157 64.3737 143.494 64.2611C152.567 64.1724 161.637 64.3282 170.701 64.7882C161.685 68.4706 152.203 70.3968 142.631 70.7178C131.491 71.094 120.324 69.2851 109.492 65.6818Z" fill="#C4A953"/>
<path d="M42.3248 73.6623C42.308 71.7121 45.3292 70.0829 49.1457 69.9847C52.9695 69.8865 56.0984 71.3695 56.1487 73.3029C56.199 75.2388 53.1515 76.8823 49.3278 76.9805C45.5088 77.0812 42.4086 75.6101 42.3248 73.6623Z" fill="#9A9A9A"/>
<path d="M37.5737 77.6394C38.7956 78.4755 40.1756 79.0002 41.6059 79.2614C43.41 79.5896 45.3027 79.453 47.1834 79.2039C48.6712 79.0074 50.1471 78.7343 51.6301 78.4971C53.2281 78.2431 54.8309 78.0587 56.2588 77.4429C57.9766 76.7026 59.4573 75.3897 60.5186 73.703C61.3093 73.6647 61.9346 74.1223 62.1981 74.7812C62.6078 75.8114 62.0615 77.1842 61.0194 78.2527C59.8957 79.4051 58.3025 80.04 56.611 80.4833C54.898 80.9313 53.1419 81.1733 51.3641 81.2739C49.699 81.3721 48.0291 81.3601 46.3616 81.4152C44.4953 81.4799 42.6433 81.6716 41.0501 81.0918C39.5024 80.5312 38.1919 79.3165 37.5737 77.6394Z" fill="#FAD6AE"/>
<path d="M100.206 170.756C98.6126 169.45 97.0864 168.07 95.6633 166.594C94.5636 165.454 93.5238 164.261 92.5631 162.998C91.5688 164.148 91.0561 165.545 91.0394 166.98C91.025 168.496 91.5449 169.948 92.5895 170.935C93.6388 171.93 95.1242 172.363 96.6432 172.256C97.9394 172.162 99.1828 171.664 100.206 170.756Z" fill="#999999"/>
<path d="M154.97 58.1254L154.205 55.478C154.09 55.0707 153.987 54.661 153.901 54.2465C153.832 54.6634 153.736 55.0731 153.618 55.478L152.847 58.1254H154.97ZM156.024 61.7359L155.207 59.019H152.576L151.769 61.7359H150.997L153.592 53.1588H154.234L156.814 61.7359H156.024ZM146.977 57.3299H148.024C148.508 57.3299 148.937 57.203 149.21 56.9131C149.497 56.6064 149.589 56.1392 149.586 55.66C149.584 55.1833 149.49 54.7257 149.203 54.4382C148.922 54.1602 148.477 54.0644 147.971 54.0644H146.977V57.3299ZM146.977 58.1829V61.7359H146.215V53.1947H148.014C148.733 53.1947 149.373 53.3768 149.799 53.7961C150.257 54.2441 150.441 54.9221 150.377 55.6073C150.293 56.4698 149.804 57.2652 149.057 57.8977L150.839 61.7359H149.936L148.347 58.1829H146.977ZM144.761 61.7359H141.102V53.1947H144.761V54.0764H141.864V56.8268H144.586V57.7037H141.864V60.847H144.761V61.7359ZM135.705 61.7359L133.479 54.1626H133.443C133.486 54.8766 133.505 55.5882 133.505 56.3021V61.7359H132.801V53.1947H133.951L136.028 60.2385H136.064L138.16 53.1947H139.301V61.7359H138.539V56.2326C138.539 55.545 138.561 54.8598 138.601 54.1746H138.565L136.32 61.7359H135.705ZM130.053 58.1254L129.291 55.478C129.174 55.0707 129.071 54.661 128.987 54.2465C128.915 54.6634 128.819 55.0731 128.702 55.478L127.93 58.1254H130.053ZM131.109 61.7359L130.292 59.019H127.662L126.852 61.7359H126.081L128.675 53.1588H129.317L131.9 61.7359H131.109ZM123.994 53.959C123.316 54.0045 122.691 54.3519 122.286 54.8958C121.785 55.569 121.667 56.5034 121.658 57.4641C121.651 58.4416 121.754 59.3927 122.262 60.0564C122.669 60.5811 123.299 60.8997 123.984 60.9692C124.516 61.0243 125.062 60.9285 125.551 60.6482V61.5179C125.024 61.803 124.439 61.8964 123.867 61.8509C122.978 61.7838 122.161 61.3789 121.629 60.7057C120.973 59.8743 120.822 58.6836 120.841 57.4521C120.855 56.6543 120.944 55.8637 121.222 55.1401C121.454 54.5268 121.814 53.9782 122.317 53.6092C122.796 53.257 123.392 53.0797 124.001 53.0725C124.626 53.063 125.247 53.2283 125.807 53.5613L125.484 54.4142C125.048 54.0644 124.514 53.9231 123.994 53.959Z" fill="#999999"/>
<path d="M154.972 58.1208L154.21 55.4758C154.093 55.0685 153.99 54.6565 153.903 54.242C153.834 54.6588 153.74 55.0709 153.623 55.4758L152.849 58.1208H154.972ZM156.029 61.7313L155.212 59.0145H152.581L151.771 61.7313H151L153.594 53.1543H154.236L156.819 61.7313H156.029ZM146.982 57.3254H148.029C148.513 57.3254 148.942 57.2008 149.212 56.9085C149.5 56.6019 149.591 56.1371 149.589 55.6555C149.589 55.1811 149.495 54.7211 149.205 54.436C148.925 54.1557 148.482 54.0599 147.974 54.0599H146.982V57.3254ZM146.982 58.1783V61.7313H146.218V53.1902H148.019C148.738 53.1902 149.375 53.3723 149.802 53.7916C150.259 54.2396 150.446 54.9176 150.382 55.6028C150.298 56.4677 149.807 57.2607 149.061 57.8932L150.842 61.7313H149.941L148.35 58.1783H146.982ZM144.763 61.7313H141.105V53.1902H144.763V54.0719H141.869V56.8247H144.588V57.7015H141.869V60.8449H144.763V61.7313ZM135.709 61.7313L133.481 54.1605H133.445C133.489 54.8721 133.51 55.586 133.51 56.2976V61.7313H132.803V53.1902H133.953L136.033 60.2363H136.069L138.165 53.1902H139.306V61.7313H138.541V56.2281C138.541 55.5429 138.563 54.8577 138.604 54.1725H138.568L136.323 61.7313H135.709ZM130.058 58.1208L129.293 55.4758C129.176 55.0685 129.073 54.6565 128.989 54.242C128.917 54.6588 128.824 55.0709 128.706 55.4758L127.933 58.1208H130.058ZM131.112 61.7313L130.295 59.0145H127.664L126.857 61.7313H126.083L128.678 53.1543H129.32L131.902 61.7313H131.112ZM123.996 53.9569C123.318 54.0024 122.693 54.3498 122.288 54.8936C121.787 55.5669 121.67 56.4988 121.66 57.462C121.653 58.4395 121.756 59.3882 122.266 60.0519C122.671 60.5765 123.301 60.8976 123.987 60.9671C124.519 61.0198 125.065 60.9239 125.554 60.646V61.5157C125.026 61.8008 124.442 61.8919 123.869 61.8487C122.983 61.7816 122.163 61.3767 121.632 60.7035C120.975 59.8698 120.824 58.679 120.846 57.45C120.858 56.6498 120.946 55.8616 121.224 55.1356C121.457 54.5247 121.816 53.976 122.319 53.6047C122.801 53.2525 123.395 53.0752 124.006 53.068C124.629 53.0584 125.249 53.2237 125.81 53.5592L125.486 54.4121C125.05 54.0599 124.519 53.9209 123.996 53.9569Z" stroke="#999999" stroke-width="0.470306"/>
<path d="M69.4073 165.681C69.1725 164.701 69.0264 163.71 68.9138 162.711C68.7724 161.462 68.7461 160.221 69.1102 159.598C69.23 159.39 69.3858 159.253 69.6014 159.177C70.289 158.932 71.5779 159.421 72.8573 159.404C74.1175 159.39 75.3801 158.887 76.0797 159.09C76.2977 159.155 76.4631 159.277 76.5757 159.471C76.8799 159.998 76.8104 161.055 76.729 162.126C76.6379 163.278 76.7386 164.428 76.7601 165.578C76.0965 165.641 75.4352 165.717 74.7764 165.796C74.211 165.861 73.6503 165.935 73.0873 166.005C72.5722 166.07 72.0595 166.137 71.5444 166.122C70.828 166.103 70.1021 165.94 69.4073 165.681Z" fill="#5E6062"/>
<path d="M31.9052 93.8328C31.6968 96.8276 31.553 99.8271 31.4716 102.827C31.3949 105.704 31.3781 108.582 31.3853 111.459C31.3925 114.298 31.4164 117.137 31.6033 119.967C31.8333 123.512 32.3197 127.039 32.5185 130.58C32.7126 134.037 32.6623 137.509 32.5952 140.98C32.5305 144.373 32.473 147.765 32.5952 151.151C32.7102 154.272 32.9953 157.375 33.417 160.466C33.9105 164.074 34.5454 167.485 36.6681 168.961C38.6447 170.334 41.4957 170.042 43.3453 168.293C45.4464 166.304 45.7268 162.576 45.6741 158.642C45.6285 155.31 45.3386 151.989 45.0751 148.649C44.8068 145.228 44.5792 141.795 44.6942 138.381C44.8116 134.893 45.2907 131.416 45.6956 127.933C46.0933 124.497 46.412 121.054 46.5964 117.602C46.7666 114.396 46.8001 111.195 46.3233 108.066C45.8346 104.861 44.8451 101.761 42.9188 99.3623C40.4032 96.231 36.4189 94.2832 31.9052 93.8328Z" fill="#AF6834"/>
<path d="M103.799 111.052C108.984 102.192 117.022 96.2025 126.26 93.4928C137.614 90.1602 149.73 91.8612 159.411 98.4234C167.44 103.864 173.125 112.281 175.384 121.876C177.507 130.889 176.417 140.437 171.901 149.143" stroke="#C7C6C5" stroke-width="4.70291"/>
<path d="M183.178 129.421C184.115 129.325 184.771 141.083 176.017 155.674C172.531 161.486 167.615 166.431 161.769 169.836C150.295 176.518 141.347 176.549 141.428 175.845C141.479 175.411 146.658 174.517 151.826 172.292C158.312 169.498 163.937 164.79 168.865 159.433C172.066 155.954 174.96 152.2 177.1 148.067C181.777 139.028 182.603 129.48 183.178 129.421Z" fill="#76787A"/>
<path d="M139.469 117.784C139.619 117.243 139.737 116.708 139.521 116.33C138.973 115.379 136.637 115.431 134.092 116.109C130.899 116.957 128.074 118.658 126.071 121.167C124.461 123.182 123.515 125.628 122.983 128.225C122.456 130.791 122.484 133.683 123.151 135.647C123.359 136.258 123.611 136.771 124.047 137.013C124.451 137.241 125.005 137.205 125.597 137.013C127.111 136.529 128.814 135.039 130.767 134.04C133.469 132.66 136.62 132.257 137.638 130.554C138.781 128.644 137.123 125.285 137.83 122.166C138.165 120.681 139.033 119.269 139.469 117.784Z" fill="#999999"/>
<path d="M147.08 131.658C143.717 131.411 140.552 130.489 139.703 131.479C138.738 132.605 140.973 136.033 142.171 140.058C142.631 141.601 142.9 143.151 143.724 143.573C144.744 144.097 146.436 142.892 148.163 141.443C149.855 140.024 151.388 138.494 152.207 136.632C152.878 135.103 153.06 133.496 152.313 132.626C151.434 131.608 149.287 131.816 147.08 131.658Z" fill="#9A9A9A"/>
<path d="M134.401 131.098C134.399 129.159 135.959 127.595 137.899 127.597C139.833 127.6 141.395 129.162 141.395 131.098C141.395 133.033 139.833 134.596 137.899 134.598C135.959 134.598 134.399 133.033 134.401 131.098Z" fill="#5E6062"/>
</svg>
