<svg width="157" height="157" viewBox="0 0 157 157" fill="none" xmlns="http://www.w3.org/2000/svg">
<path d="M111.168 71.0687C110.247 71.6247 109.174 71.9501 108.026 71.9501H104.137C104.611 73.8243 104.333 75.9978 102.048 78.3544C101.918 78.4902 101.762 78.6112 101.599 78.7011C96.8249 81.3652 91.9792 77.9816 91.9792 73.4645C91.9792 72.9412 92.0528 72.4359 92.1754 71.9501H83.7939C82.901 71.9501 82.1699 71.2207 82.1699 70.3278V61.2005C80.1404 62.468 77.3389 62.6135 74.5963 60.6249C74.4295 60.5039 74.2807 60.3518 74.1629 60.1833C70.6452 55.1708 74.1482 49.7837 78.9089 49.7837C80.1077 49.7837 81.223 50.1304 82.1699 50.7224V41.5952C82.1699 40.7022 82.901 39.9712 83.7939 39.9712H92.1754C92.1182 39.7504 92.0773 39.5247 92.0446 39.2974C83.7906 35.7175 73.7377 35.5049 63.5916 40.5076C58.131 43.2011 53.7497 47.7051 51.115 53.1935C46.405 62.9995 46.5522 72.6943 49.8721 80.7421H49.8688L66.3309 125.183H92.4109L108.87 80.7421H108.868C110.114 77.7232 110.904 74.4703 111.168 71.0687Z" fill="#F6C054"/>
<path d="M111.167 71.0671L110.865 70.565C110.029 71.0704 109.063 71.3647 108.026 71.3647H104.138C103.958 71.3647 103.787 71.4481 103.675 71.5904C103.566 71.7311 103.525 71.9191 103.569 72.0941C103.682 72.539 103.746 72.9952 103.747 73.4646C103.746 74.1368 103.615 74.8351 103.288 75.5808C102.961 76.3233 102.434 77.1149 101.628 77.9456C101.535 78.0421 101.423 78.1288 101.314 78.1893C100.226 78.7944 99.1584 79.0561 98.1559 79.0561C96.6104 79.0561 95.2171 78.4314 94.2031 77.419C93.1908 76.4051 92.5661 75.0101 92.5661 73.4646C92.5661 72.9952 92.6315 72.539 92.7427 72.0941C92.7868 71.9191 92.7476 71.7311 92.638 71.5904C92.5252 71.4481 92.3551 71.3647 92.1752 71.3647H83.7937C83.5091 71.3647 83.2524 71.2486 83.061 71.0589C82.8713 70.8676 82.7568 70.6108 82.7568 70.3262V61.199C82.7568 60.9864 82.6423 60.7901 82.4543 60.6871C82.2678 60.5841 82.0405 60.589 81.8606 60.7018C81.0004 61.2382 79.993 61.5522 78.9087 61.5522C77.6674 61.5506 76.3166 61.145 74.9395 60.149C74.8283 60.0689 74.722 59.961 74.6419 59.8465C73.7081 58.5136 73.3188 57.1857 73.3172 55.9607C73.3188 54.4153 73.9419 53.0203 74.9559 52.0063C75.9682 50.994 77.3632 50.3693 78.9087 50.3693C79.993 50.3693 81.0004 50.6816 81.8606 51.2197C82.0405 51.3309 82.2678 51.3374 82.4543 51.2344C82.6423 51.1314 82.7568 50.9351 82.7568 50.7225V41.5952C82.7568 41.309 82.8713 41.0539 83.061 40.8626C83.2524 40.6729 83.5091 40.5568 83.7937 40.5568H92.1752C92.3551 40.5568 92.5268 40.4733 92.638 40.3311C92.7476 40.1888 92.7868 40.0023 92.7427 39.8274C92.6936 39.6327 92.656 39.4267 92.6249 39.2141C92.5955 39.0129 92.4647 38.8396 92.2766 38.7594C88.3205 37.0439 83.9572 36.0872 79.3699 36.0872C74.2134 36.0872 68.7789 37.2974 63.333 39.9827C57.7513 42.7351 53.2768 47.3356 50.5865 52.9401C48.0337 58.2536 46.8823 63.5523 46.8823 68.5829C46.8823 72.9674 47.7556 77.1492 49.3305 80.9679L49.8719 80.7438V80.1567H49.8686C49.6773 80.1567 49.4974 80.25 49.3878 80.4086C49.2782 80.5656 49.2537 80.7667 49.3191 80.9466L65.7812 125.386C65.8662 125.616 66.0838 125.769 66.3307 125.769H92.4107C92.656 125.769 92.8735 125.616 92.9602 125.386L109.419 80.9466C109.488 80.7667 109.462 80.5656 109.352 80.4086C109.241 80.25 109.063 80.1567 108.87 80.1567H108.868V80.7438L109.409 80.9663C110.678 77.89 111.483 74.5767 111.751 71.1129C111.767 70.8954 111.661 70.6828 111.475 70.5683C111.288 70.4538 111.051 70.4538 110.865 70.565L111.167 71.0671L110.583 71.0229C110.323 74.3624 109.548 77.5564 108.327 80.5198C108.251 80.7013 108.273 80.9058 108.381 81.0693C108.49 81.2312 108.672 81.3293 108.868 81.3293H108.87V80.7438L108.32 80.5394L92.0018 124.596H66.7379L50.4181 80.5394L49.8686 80.7438V81.3293H49.8719C50.0681 81.3293 50.2496 81.2312 50.3592 81.0693C50.4688 80.9058 50.4884 80.7013 50.4132 80.5198C48.8955 76.8401 48.0533 72.8121 48.0533 68.5829C48.0549 63.7306 49.1621 58.6134 51.643 53.4471C54.2221 48.0731 58.5118 43.6657 63.8498 41.0343C69.1453 38.4242 74.3966 37.2598 79.3699 37.2598C83.7937 37.2598 87.9967 38.1805 91.8121 39.8355L92.0444 39.2975L91.4638 39.3809C91.4998 39.6246 91.5439 39.8699 91.6061 40.1152L92.1752 39.9713V39.3858H83.7937C82.5753 39.3874 81.5875 40.3769 81.5842 41.5952V50.7225H82.1697L82.4804 50.2253C81.4452 49.5777 80.2219 49.1967 78.9087 49.1967C75.1734 49.1967 72.1462 52.2255 72.1462 55.9607C72.1446 57.4375 72.6221 59.0108 73.6835 60.5203C73.8405 60.7427 74.0319 60.9373 74.251 61.0976C75.8014 62.2244 77.4074 62.7265 78.9087 62.7248C80.2219 62.7248 81.4452 62.3438 82.4804 61.6961L82.1697 61.199H81.5842V70.3262C81.5875 71.5463 82.5753 72.5341 83.7937 72.5373H92.1752V71.9502L91.6061 71.8063C91.4736 72.3329 91.3935 72.8873 91.3935 73.4646C91.3935 77.1999 94.4206 80.2271 98.1559 80.2287C99.3628 80.2287 100.637 79.9098 101.885 79.2131C102.104 79.0904 102.298 78.9367 102.469 78.7617C103.357 77.8475 103.97 76.9415 104.362 76.0518C104.753 75.1622 104.918 74.2905 104.918 73.4646C104.918 72.8873 104.838 72.3329 104.706 71.8063L104.138 71.9502V72.5373H108.026C109.285 72.5373 110.464 72.1775 111.47 71.5708L111.167 71.0671Z" fill="#1D1D1B"/>
<path d="M119.549 37.1468L117.751 29.4685C117.498 28.3842 116.404 27.7039 115.32 27.959L107.55 29.776C107.584 27.856 106.828 25.8183 104.109 24.0504C103.919 23.9261 103.705 23.828 103.487 23.7675C98.2589 22.307 94.3421 26.69 95.3675 31.0729C95.4868 31.5831 95.6717 32.059 95.9022 32.5039L88.1307 34.3208C87.0465 34.5743 86.3678 35.67 86.6229 36.7543L88.6099 45.2503C86.358 44.4833 83.617 44.9674 81.4075 47.4892C81.244 47.6756 81.1099 47.8931 81.02 48.1237C78.7925 53.7774 83.4142 58.1914 88.0326 57.1103C89.2003 56.8372 90.2077 56.2452 90.996 55.452L92.983 63.9497C93.2365 65.0323 94.3322 65.7126 95.4149 65.4591L103.185 63.6406C103.152 65.5622 103.908 67.6015 106.629 69.3694C106.819 69.4921 107.033 69.5902 107.249 69.6524C112.479 71.1111 116.394 66.7266 115.369 62.3453C115.248 61.8351 115.063 61.3608 114.834 60.916L122.604 59.0974C123.688 58.8422 124.367 57.7482 124.115 56.6639L122.317 48.9856C119.377 49.1524 116.656 47.1964 115.961 44.2298C115.266 41.2648 116.84 38.3014 119.549 37.1468Z" fill="#F6C054"/>
<path d="M119.549 37.1484L120.118 37.0143L118.323 29.336C118.182 28.7358 117.84 28.2289 117.389 27.8773C116.937 27.524 116.373 27.3196 115.78 27.3196C115.582 27.3196 115.384 27.3425 115.186 27.3899L107.416 29.2068L107.55 29.7776L108.136 29.7874C108.137 29.7433 108.137 29.6991 108.137 29.6566C108.137 28.6344 107.921 27.5551 107.341 26.5117C106.76 25.4666 105.821 24.4641 104.426 23.5598H104.428C104.189 23.4044 103.926 23.2817 103.645 23.2032C102.896 22.9939 102.165 22.8941 101.466 22.8958C99.4842 22.8941 97.7605 23.6906 96.547 24.9351C95.3335 26.1781 94.6172 27.8691 94.6172 29.6615C94.6172 30.1717 94.6745 30.6902 94.7971 31.207C94.928 31.7695 95.1324 32.2912 95.381 32.7737L95.901 32.5038L95.7669 31.9331L87.9987 33.7517C87.3985 33.8907 86.8915 34.2341 86.5399 34.6855C86.1867 35.1369 85.9822 35.7011 85.9822 36.2964C85.9822 36.491 86.0051 36.6905 86.0509 36.8884L88.0396 45.3844L88.6087 45.2503L88.7968 44.6959C88.105 44.4604 87.3691 44.3328 86.6135 44.3328C84.6853 44.3295 82.6476 45.18 80.9664 47.1016C80.7587 47.3403 80.5903 47.6151 80.4741 47.9095C80.0522 48.9823 79.856 50.0257 79.856 51.0102C79.8543 52.9923 80.6524 54.7177 81.8953 55.9296C83.1382 57.1447 84.8276 57.8593 86.62 57.861C87.1303 57.861 87.6487 57.8021 88.1655 57.6811C89.4444 57.3818 90.5499 56.7309 91.4102 55.8658L90.9948 55.4536L90.424 55.5861L92.4127 64.0837C92.5517 64.6839 92.8935 65.1909 93.3465 65.5425C93.7979 65.8958 94.3621 66.0986 94.9558 66.1002C95.152 66.1002 95.3515 66.0757 95.5478 66.0299L103.319 64.2113L103.185 63.6422L102.6 63.6307C102.598 63.6733 102.598 63.7174 102.598 63.7616C102.596 64.7837 102.812 65.8631 103.395 66.9081C103.977 67.9548 104.914 68.9557 106.31 69.8617C106.548 70.0154 106.813 70.1381 107.092 70.2166C107.841 70.4259 108.571 70.524 109.269 70.524C111.249 70.5257 112.975 69.7292 114.188 68.4846C115.402 67.2417 116.116 65.5507 116.118 63.7583C116.118 63.248 116.059 62.7296 115.938 62.2128V62.2112C115.807 61.6502 115.603 61.1285 115.354 60.6461L114.833 60.9159L114.967 61.4867L122.737 59.6681C123.337 59.5275 123.844 59.1857 124.195 58.7343C124.549 58.2829 124.753 57.7187 124.753 57.1234C124.753 56.9272 124.73 56.7293 124.684 56.5314L122.887 48.8531C122.823 48.5751 122.568 48.3854 122.284 48.4017C122.179 48.4066 122.073 48.4099 121.968 48.4099C119.431 48.4099 117.134 46.6747 116.532 44.0973C116.43 43.6672 116.383 43.2404 116.383 42.8201C116.381 40.6024 117.719 38.5647 119.778 37.6881C120.04 37.5753 120.184 37.2923 120.118 37.0143L119.549 37.1484L119.319 36.6087C116.825 37.6734 115.212 40.1298 115.212 42.8201C115.21 43.3303 115.269 43.8471 115.39 44.3639C116.121 47.4843 118.898 49.5825 121.968 49.5809C122.096 49.5809 122.223 49.5776 122.351 49.5711L122.316 48.9856L121.747 49.1197L123.543 56.798C123.567 56.9075 123.58 57.0171 123.58 57.1234C123.58 57.4472 123.468 57.7612 123.271 58.0131C123.075 58.2633 122.8 58.4481 122.47 58.5266L114.7 60.3452C114.525 60.3861 114.376 60.5071 114.301 60.6706C114.226 60.8342 114.231 61.0255 114.313 61.1841C114.524 61.593 114.69 62.0215 114.797 62.4794C114.898 62.9079 114.945 63.3364 114.945 63.7583C114.945 65.2367 114.353 66.6366 113.349 67.6653C112.342 68.6923 110.935 69.3498 109.269 69.3514C108.68 69.3514 108.057 69.2696 107.408 69.0881C107.251 69.0456 107.089 68.9704 106.948 68.8788C105.679 68.0529 104.894 67.1927 104.418 66.339C103.944 65.4837 103.771 64.6251 103.769 63.7616C103.769 63.7239 103.769 63.6896 103.771 63.6536C103.774 63.4737 103.692 63.2987 103.553 63.1859C103.413 63.0731 103.226 63.0305 103.051 63.0714L95.2812 64.89C95.1716 64.9145 95.0637 64.926 94.9558 64.926C94.632 64.9276 94.318 64.8148 94.0677 64.6185C93.8159 64.4223 93.6311 64.1459 93.5526 63.8172L91.5655 55.3195C91.5181 55.1118 91.3611 54.9483 91.1551 54.8894C90.9506 54.8306 90.7298 54.8894 90.5794 55.0399C89.8647 55.7578 88.9571 56.2926 87.8989 56.5396C87.4705 56.641 87.042 56.6884 86.62 56.6884C85.1416 56.6884 83.7433 56.0964 82.7147 55.0922C81.6876 54.0848 81.0302 52.6783 81.0286 51.0102C81.0286 50.1827 81.1921 49.2865 81.565 48.3396C81.6304 48.1728 81.7285 48.0109 81.8479 47.8751C83.3427 46.1776 85.0271 45.5087 86.6135 45.5054C87.2366 45.5054 87.845 45.6101 88.4206 45.8063C88.6218 45.875 88.8442 45.8276 89.0028 45.6853C89.1598 45.543 89.2285 45.3255 89.1795 45.1178L87.1924 36.6202H87.1908C87.1663 36.5106 87.1548 36.4027 87.1548 36.2964C87.1548 35.9726 87.266 35.6586 87.4623 35.4067C87.6585 35.1549 87.9333 34.9701 88.2653 34.8932L96.0351 33.0746C96.2101 33.0337 96.3573 32.9127 96.4342 32.7492C96.5094 32.5856 96.5045 32.3943 96.4227 32.234C96.2118 31.8268 96.045 31.3967 95.937 30.9404C95.8356 30.5103 95.7882 30.0834 95.7882 29.6615C95.7882 28.1831 96.3802 26.7832 97.386 25.7545C98.3918 24.7258 99.7999 24.0684 101.466 24.0684C102.055 24.0684 102.678 24.1501 103.329 24.3317C103.486 24.3758 103.646 24.4494 103.789 24.5426C105.056 25.3669 105.841 26.2271 106.317 27.0808C106.79 27.9345 106.965 28.7947 106.965 29.6566C106.965 29.6942 106.965 29.7318 106.965 29.7678C106.961 29.9477 107.041 30.121 107.182 30.2339C107.323 30.3467 107.509 30.3893 107.684 30.3484L115.454 28.5298C115.564 28.5036 115.672 28.4922 115.78 28.4922C116.103 28.4922 116.416 28.605 116.666 28.8013C116.918 28.9975 117.104 29.2723 117.181 29.6026L118.977 37.2825L119.549 37.1484Z" fill="#1D1D1B"/>
<path d="M88.8963 38.7807L90.8261 48.0044C90.8261 48.0044 85.3278 45.8898 82.9336 49.2752C82.9336 49.2752 90.5644 47.7313 92.6529 52.0014L101.736 33.5964C101.736 33.5964 97.0734 30.8342 100.434 25.3817C100.434 25.3817 94.2278 28.0474 98.0726 33.6504L89.4442 35.8304C88.2487 36.0806 88.6314 37.196 88.8963 38.7807Z" fill="#F8D386"/>
<path d="M65.7749 134.344C67.3302 140.412 72.8186 144.903 79.3701 144.903C85.9216 144.903 91.4101 140.412 92.9653 134.344H65.7749Z" fill="#61C0C6"/>
<mask id="mask0_71_757" style="mask-type:luminance" maskUnits="userSpaceOnUse" x="64" y="133" width="30" height="13">
<path d="M64.8936 133.555H93.7816V145.485H64.8936V133.555Z" fill="white"/>
</mask>
<g mask="url(#mask0_71_757)">
<path d="M65.7752 134.345L65.2077 134.49C66.8284 140.811 72.5442 145.488 79.3704 145.488C86.1967 145.488 91.9141 140.811 93.5331 134.49C93.5789 134.314 93.5397 134.129 93.4285 133.985C93.3173 133.841 93.1472 133.758 92.9657 133.758H65.7752C65.5937 133.758 65.4236 133.841 65.3124 133.985C65.2012 134.129 65.1619 134.314 65.2077 134.49L65.7752 134.345V134.93H92.9657V134.345L92.3982 134.199C90.9067 140.013 85.6472 144.317 79.3704 144.317C73.0937 144.317 67.8342 140.013 66.3427 134.199L65.7752 134.345Z" fill="#1D1D1B"/>
</g>
<path d="M93.9348 128.599H64.8048C63.5946 128.599 62.6035 127.608 62.6035 126.397V125.056C62.6035 123.844 63.5946 122.854 64.8048 122.854H93.9348C95.145 122.854 96.1361 123.844 96.1361 125.056V126.397C96.1361 127.608 95.145 128.599 93.9348 128.599Z" fill="#61C0C6"/>
<path d="M93.9349 128.599V128.012H64.8048C64.3616 128.012 63.9609 127.832 63.6649 127.538C63.3706 127.242 63.1907 126.841 63.1907 126.396V125.055C63.1907 124.612 63.3706 124.21 63.6649 123.914C63.9609 123.621 64.3616 123.44 64.8048 123.44H93.9349C94.3781 123.44 94.7787 123.621 95.0747 123.914C95.3691 124.21 95.5507 124.612 95.5507 125.055V126.396C95.5507 126.841 95.3691 127.242 95.0747 127.538C94.7787 127.832 94.3781 128.012 93.9349 128.012V129.185C95.4722 129.183 96.72 127.934 96.7216 126.396V125.055C96.72 123.518 95.4705 122.27 93.9349 122.269H64.8048C63.2692 122.27 62.0197 123.518 62.0181 125.055V126.396C62.0197 127.934 63.2692 129.183 64.8048 129.185H93.9349V128.599Z" fill="#1D1D1B"/>
<path d="M93.9348 134.345H64.8048C63.5946 134.345 62.6035 133.354 62.6035 132.143V130.801C62.6035 129.589 63.5946 128.599 64.8048 128.599H93.9348C95.145 128.599 96.1361 129.589 96.1361 130.801V132.143C96.1361 133.354 95.145 134.345 93.9348 134.345Z" fill="#61C0C6"/>
<path d="M93.9349 134.345V133.757H64.8048C64.3616 133.757 63.9609 133.578 63.6649 133.283C63.3706 132.987 63.1907 132.586 63.1907 132.143V130.801C63.1907 130.356 63.3706 129.955 63.6649 129.661C63.9609 129.365 64.3616 129.185 64.8048 129.185H93.9349C94.3781 129.185 94.7787 129.365 95.0747 129.661C95.3691 129.955 95.5507 130.356 95.5507 130.801V132.143C95.5507 132.586 95.3691 132.987 95.0747 133.283C94.7787 133.578 94.3781 133.757 93.9349 133.757V134.93C95.4705 134.928 96.72 133.679 96.7216 132.143V130.801C96.72 129.263 95.4705 128.015 93.9349 128.012H64.8048C63.2692 128.015 62.0197 129.263 62.0181 130.801V132.143C62.0197 133.679 63.2692 134.928 64.8048 134.93H93.9349V134.345Z" fill="#1D1D1B"/>
<path d="M78.6719 38.6924C78.6719 38.6924 52.5919 50.4919 61.9056 79.6825C71.2209 108.876 76.693 120.674 76.693 120.674H67.3695L50.9614 78.1337C50.9614 78.1337 46.9088 64.9997 54.4546 52.667C62.0004 40.3343 78.6719 38.6924 78.6719 38.6924Z" fill="#F8D386"/>
<path d="M93.0697 124.678H82.6309C83.3275 125.379 84.0291 126.076 84.7275 126.774H93.0697C93.6454 126.774 94.118 126.303 94.118 125.726C94.118 125.15 93.6454 124.678 93.0697 124.678Z" fill="#4A9194"/>
<path d="M93.0697 130.423H82.6309C83.3275 131.124 84.0291 131.821 84.7275 132.519H93.0697C93.6454 132.519 94.118 132.048 94.118 131.471C94.118 130.895 93.6454 130.423 93.0697 130.423Z" fill="#4A9194"/>
<path d="M82.6311 136.091C82.6311 136.091 86.3565 140.129 80.0684 143.272C80.0684 143.272 87.171 142.653 90.4696 136.091H82.6311Z" fill="#4A9194"/>
<path d="M69.1438 96.03C68.6139 95.9171 68.0873 95.7863 67.6572 95.6211C67.3072 95.487 66.7937 95.1779 66.4126 94.9015C65.6096 94.3111 64.9489 93.5654 64.5515 92.7362C64.3487 92.3127 64.2277 91.876 64.244 91.6503C64.6823 91.7861 65.7895 92.4239 66.4584 92.8818C67.6621 93.6652 68.5485 94.7625 69.255 96.0463C69.219 96.0398 69.1797 96.0365 69.1438 96.03ZM89.6584 93.4231C89.907 93.3364 90.414 93.3168 90.6397 93.4084C90.9046 93.518 90.8032 93.5131 90.8212 93.5409C90.8376 93.567 90.7345 93.9088 90.463 94.2114C90.4009 94.2882 90.3273 94.3618 90.2554 94.4354C90.1883 94.4829 90.1327 94.5303 90.0689 94.5826C89.9037 94.6873 89.7206 94.7969 89.4982 94.8966C89.1057 95.0683 88.6788 95.2106 88.2422 95.3447C88.6183 94.3929 89.2561 93.5016 89.6584 93.4231ZM73.1423 111.768C73.7246 115.421 74.1661 119.098 74.6371 122.777H74.9904C74.9102 119.057 74.7385 115.341 74.5112 111.615C74.3362 109.225 74.0958 106.835 73.772 104.441C73.5398 102.727 73.2421 101.016 72.8153 99.309C73.8685 99.3826 74.9168 99.4267 75.9683 99.4496C78.4117 99.4742 80.8452 99.358 83.2852 99.0915C83.8347 99.0293 84.3858 98.9574 84.937 98.8756C84.2272 103.509 84.201 108.104 84.2763 112.685C84.4104 116.059 84.5968 119.425 84.9141 122.777H85.3965C85.4194 119.413 85.4848 116.054 85.6893 112.703C85.9378 107.965 86.2797 103.188 87.2364 98.6499C87.2527 98.5812 87.2723 98.5158 87.2887 98.4471C88.4057 98.1953 89.5276 97.9074 90.6871 97.3432C91.0044 97.1895 91.3331 96.9916 91.6618 96.7577C91.8286 96.6236 91.9971 96.4732 92.1573 96.326C92.2914 96.1853 92.4223 96.0414 92.5449 95.8828C93.0061 95.2679 93.5147 94.4698 93.4264 93.2857C93.3708 92.7084 93.1108 92.1409 92.6987 91.7206C92.2882 91.2922 91.7943 91.0648 91.3478 90.9389C90.4222 90.7132 89.6813 90.7656 88.8031 91.0567C87.8546 91.4181 87.2871 92.0919 86.8798 92.6921C86.4677 93.3086 86.1946 93.9285 85.9624 94.5434C85.7923 95.016 85.6533 95.487 85.5274 95.958C84.6851 96.0987 83.8298 96.2148 82.9876 96.3064C80.6783 96.5402 78.3332 96.6154 76.0027 96.5909C74.6453 96.5778 73.2797 96.5206 71.9403 96.4012C71.6034 95.5017 71.1897 94.6104 70.6532 93.7551C69.9582 92.6185 68.9606 91.6127 67.8943 90.849C67.3628 90.4614 66.8215 90.1277 66.2932 89.8137C65.7372 89.5128 65.0928 89.0386 63.9186 89.0418C63.3233 89.0353 62.5579 89.4229 62.1965 89.9168C61.7958 90.4139 61.6454 90.9962 61.6094 91.4737C61.5538 92.45 61.8236 93.1827 62.0984 93.8434C62.6888 95.1959 63.6618 96.2949 64.7739 97.1208C65.3627 97.5395 65.8647 97.8764 66.6219 98.1936C67.3055 98.4651 67.9417 98.6205 68.5763 98.7627C69.2321 98.8952 69.883 98.9982 70.529 99.0849C71.1242 100.905 71.5495 102.825 71.9518 104.748C72.4228 107.064 72.7891 109.414 73.1423 111.768Z" fill="#1D1D1B"/>
<path d="M101.95 88.2536L99.314 96.133L96.6221 103.991C95.7177 106.608 94.9098 109.261 93.8762 111.83C92.8508 114.402 91.7796 116.958 90.5253 119.446L90.4451 119.472L90.4141 119.405C91.065 116.695 91.8974 114.052 92.7756 111.426C93.6473 108.798 94.743 106.25 95.7423 103.667L98.7645 95.9302L101.839 88.2143L101.916 88.1816L101.95 88.2536Z" fill="#1D1D1B"/>
<path d="M65.2188 125.667C66.3979 125.345 67.5771 125.219 68.7562 125.14C69.9353 125.054 71.1145 125.206 72.2952 125.257L75.8326 125.433C77.0118 125.512 78.1909 125.574 79.3701 125.667L79.424 125.731L79.3701 125.785C78.1909 125.878 77.0118 125.94 75.8326 126.019L72.2952 126.195C71.1145 126.246 69.9353 126.398 68.7562 126.313C67.5771 126.233 66.3979 126.109 65.2188 125.785L65.1763 125.71L65.2188 125.667Z" fill="#1D1D1B"/>
<path d="M65.219 131.412C66.506 131.09 67.7947 130.964 69.0818 130.886C70.3689 130.799 71.6576 130.951 72.9447 131.002L76.8092 131.178C78.0962 131.257 79.3833 131.319 80.672 131.412L80.726 131.476L80.672 131.53C79.3833 131.623 78.0962 131.685 76.8092 131.764L72.9447 131.94C71.6576 131.991 70.3689 132.143 69.0818 132.058C67.7947 131.978 66.506 131.854 65.219 131.53L65.1748 131.456L65.219 131.412Z" fill="#1D1D1B"/>
<path d="M68.8494 136.059C69.6246 136.597 70.2804 137.187 70.928 137.779C71.5822 138.361 72.1023 139.073 72.7368 139.681C73.3713 140.284 74.0517 140.836 74.7664 141.351C75.4827 141.866 76.2644 142.278 77.0821 142.648H77.0854L77.1148 142.726L77.0478 142.761C76.163 142.568 75.2962 142.254 74.4687 141.856C73.6526 141.441 72.8644 140.955 72.1317 140.397C71.4023 139.843 70.6271 139.308 70.0662 138.572C69.7849 138.206 69.5199 137.83 69.2975 137.421C69.0702 137.017 68.8756 136.59 68.7529 136.124L68.7971 136.047L68.8494 136.059Z" fill="#1D1D1B"/>
<path d="M111.598 66.2425C111.899 65.7437 112.036 65.1877 112.093 64.648C112.152 64.1034 112.115 63.5572 112.031 63.0159C112.003 62.746 111.92 62.4762 111.874 62.2063L111.666 61.4001L111.428 60.5905L111.153 59.7794L111.128 59.7042C111.04 59.4425 111.181 59.1579 111.444 59.0696L111.505 59.0533C113.053 58.7425 114.597 58.4007 116.143 58.0753C116.915 57.9068 117.693 57.7613 118.467 57.6026L120.794 57.1464L120.864 57.1922L120.825 57.2592L118.565 57.9837C117.811 58.2192 117.058 58.4661 116.301 58.6918C114.792 59.1547 113.276 59.6011 111.768 60.0754L112.118 59.3509L112.514 60.1866C112.633 60.4712 112.734 60.7672 112.836 61.0616C113.004 61.6634 113.125 62.2897 113.124 62.9325C113.143 63.5686 113.053 64.2228 112.824 64.8296C112.589 65.4281 112.224 66.0005 111.673 66.3325L111.593 66.3129V66.2524L111.598 66.2425Z" fill="#1D1D1B"/>
<path d="M108.808 31.5259C109.285 31.3215 109.771 31.1481 110.253 30.9568C110.737 30.7769 111.223 30.6068 111.714 30.4449C112.201 30.283 112.667 30.0197 113.186 29.9902C113.442 29.9673 113.706 29.9624 113.974 29.9886C114.24 30.0115 114.515 30.0557 114.801 30.1636C114.837 30.1767 114.855 30.2176 114.842 30.2535L114.828 30.2781C114.615 30.4989 114.389 30.6575 114.155 30.7932C113.925 30.9322 113.688 31.0418 113.446 31.1334C112.965 31.3313 112.432 31.2953 111.921 31.3591C111.41 31.4261 110.898 31.4817 110.384 31.5292C109.866 31.5652 109.354 31.6175 108.832 31.6404L108.77 31.5831L108.808 31.5259Z" fill="#1D1D1B"/>
<path d="M102.312 26.0751C102.619 26.08 102.92 26.1258 103.216 26.2108C103.366 26.2484 103.51 26.3057 103.659 26.3547C103.801 26.4218 103.949 26.4807 104.089 26.5559C104.647 26.8617 105.146 27.3393 105.47 27.9345C105.78 28.5217 106.042 29.1938 105.949 29.8545C105.91 30.18 105.807 30.4923 105.694 30.79C105.546 31.0778 105.378 31.3542 105.152 31.5995L105.059 31.6028L105.041 31.5733L105.04 31.5684C104.941 31.2381 104.899 30.9421 104.881 30.6575C104.819 30.3713 104.809 30.0982 104.778 29.8382C104.729 29.5814 104.748 29.323 104.721 29.0761C104.732 28.816 104.678 28.5724 104.616 28.3221C104.452 27.8446 104.156 27.4047 103.752 27.0367C103.357 26.6589 102.84 26.3842 102.297 26.1912L102.29 26.1879L102.254 26.1127L102.312 26.0751Z" fill="#1D1D1B"/>
<path d="M69.7017 57.2118C69.6428 58.3582 69.7966 59.5194 70.1514 60.5922C70.5129 61.6617 71.1098 62.6397 71.9226 63.3724C72.7305 64.1132 73.7428 64.5973 74.8091 64.8541C75.8787 65.1288 77.0006 65.1468 78.1143 65.1321C78.4496 65.1288 78.7259 65.3954 78.7308 65.7307V65.7421C78.7292 66.272 78.7194 66.8019 78.69 67.3317C78.6654 67.8616 78.6344 68.3915 78.5902 68.923C78.5477 69.4512 78.4953 69.9827 78.4283 70.5126C78.3629 71.0425 78.286 71.5724 78.1797 72.1022L78.1078 72.1497L78.062 72.1022C77.954 71.5724 77.8772 71.0425 77.8117 70.5126C77.7447 69.9827 77.694 69.4512 77.6515 68.923C77.6057 68.3915 77.5746 67.8616 77.5501 67.3317C77.5206 66.8019 77.5108 66.272 77.5108 65.7421L78.1257 66.3538C76.9221 66.3603 75.7053 66.1542 74.5409 65.7781C73.3814 65.4052 72.2677 64.7821 71.4205 63.8859C70.5619 63.0012 69.9944 61.876 69.7246 60.7148C69.4515 59.5521 69.3975 58.3566 69.5856 57.1938L69.6526 57.1464L69.7017 57.2069V57.2118Z" fill="#1D1D1B"/>
<path d="M80.0685 31.9691C81.3212 31.9691 82.3466 14.2723 82.3466 14.2723C82.3466 13.0179 81.3212 11.9941 80.0685 11.9941C78.8158 11.9941 77.792 13.0179 77.792 14.2723C77.792 14.2723 78.8158 31.9691 80.0685 31.9691Z" fill="#F6C054"/>
<mask id="mask1_71_757" style="mask-type:luminance" maskUnits="userSpaceOnUse" x="77" y="11" width="7" height="22">
<path d="M77.0347 11.407H83.3147V32.656H77.0347V11.407Z" fill="white"/>
</mask>
<g mask="url(#mask1_71_757)">
<path d="M80.0682 31.9691V32.5546C80.1745 32.5546 80.2775 32.53 80.3609 32.494C80.5294 32.4172 80.6259 32.3141 80.7027 32.2209C80.845 32.0345 80.9252 31.8432 81.0102 31.6126C81.1623 31.1808 81.2948 30.615 81.4223 29.9232C81.8672 27.5175 82.24 23.6301 82.5082 20.3233C82.7732 17.0197 82.9302 14.3082 82.9318 14.3049V14.2706C82.9302 12.6924 81.648 11.4103 80.0682 11.407C78.49 11.4103 77.2079 12.6924 77.2046 14.2706L77.2062 14.3049C77.2062 14.3082 77.463 18.7369 77.8767 23.1738C78.0844 25.3947 78.3298 27.614 78.6061 29.2984C78.7452 30.1423 78.8891 30.8488 79.051 31.3803C79.1327 31.6469 79.2162 31.8677 79.3323 32.0672C79.3911 32.167 79.4582 32.2651 79.5678 32.3616C79.6234 32.409 79.6904 32.4564 79.7755 32.494C79.8589 32.53 79.9619 32.5546 80.0682 32.5546V31.382V31.8219L80.2448 31.4196C80.199 31.4 80.1353 31.382 80.0682 31.382V31.8219L80.2448 31.4196L80.1025 31.745L80.3348 31.4752C80.3184 31.4605 80.2906 31.4392 80.2448 31.4196L80.1025 31.745L80.3348 31.4752L80.2301 31.5962L80.356 31.4964L80.3348 31.4752L80.2301 31.5962L80.356 31.4964C80.3528 31.4964 80.289 31.3885 80.2317 31.2201C80.1173 30.9011 79.9881 30.3713 79.867 29.7138C79.4402 27.4063 79.0624 23.5189 78.7975 20.2301C78.665 18.5865 78.5604 17.0868 78.4868 15.9992C78.4508 15.4546 78.423 15.0147 78.405 14.7105C78.3854 14.4047 78.3755 14.2379 78.3755 14.2379L77.7917 14.2706H78.3772C78.3772 13.8061 78.5653 13.3875 78.8744 13.0767C79.1834 12.7693 79.6037 12.5796 80.0682 12.5796C80.5343 12.5796 80.953 12.7693 81.2621 13.0767C81.5712 13.3858 81.7592 13.8061 81.7609 14.2706H82.3463L81.7609 14.2379C81.7609 14.2379 81.7445 14.5126 81.7151 14.9951C81.6088 16.6845 81.3242 20.9137 80.9317 24.7111C80.7371 26.6065 80.5114 28.399 80.2726 29.6926C80.1549 30.3386 80.0306 30.8635 79.9161 31.189C79.8621 31.3493 79.8049 31.4621 79.7853 31.4899L79.7804 31.4964L79.8589 31.5553L79.7902 31.4866L79.7804 31.4964L79.8589 31.5553L79.7902 31.4866L80.0175 31.7156L79.8736 31.4278C79.8262 31.4523 79.8016 31.4752 79.7902 31.4866L80.0175 31.7156L79.8736 31.4278L80.0682 31.8186V31.382C79.9913 31.382 79.9194 31.4049 79.8736 31.4278L80.0682 31.8186V31.382V31.9691Z" fill="#1D1D1B"/>
</g>
<path d="M61.4345 36.6644C62.6055 36.2196 57.2724 19.3143 57.2724 19.3143C56.8259 18.1434 55.5045 17.5481 54.3335 17.9945C53.1626 18.441 52.5689 19.7624 53.0154 20.9334C53.0154 20.9334 60.2635 37.1093 61.4345 36.6644Z" fill="#F6C054"/>
<path d="M61.4342 36.6644L61.6435 37.2122C61.8022 37.1517 61.9215 37.0372 61.9919 36.9358C62.0982 36.7756 62.1309 36.6382 62.157 36.5024C62.1799 36.3667 62.1881 36.2293 62.1881 36.0821C62.1881 35.6357 62.1145 35.0698 61.9935 34.3846C61.5683 32.0018 60.5314 28.2092 59.596 24.9875C58.6605 21.7706 57.8314 19.1392 57.8297 19.1376L57.8183 19.1049C57.3833 17.9634 56.2924 17.2601 55.1362 17.2601C54.7993 17.2601 54.4559 17.3206 54.1239 17.4466C52.9824 17.8832 52.2808 18.974 52.2808 20.1287C52.2808 20.4655 52.3396 20.8106 52.4672 21.1426L52.4803 21.1737C52.4819 21.177 54.2465 25.115 56.1796 29.0613C57.1461 31.0352 58.1552 33.0092 59.0121 34.5056C59.4423 35.2546 59.8331 35.8826 60.1749 36.3454C60.3483 36.5777 60.5069 36.769 60.6737 36.926C60.7588 37.0045 60.8454 37.0748 60.9517 37.137C61.0597 37.1959 61.1938 37.258 61.3835 37.2596C61.4653 37.2596 61.5568 37.2449 61.6403 37.2139L61.6435 37.2122L61.4342 36.6644L61.2298 36.1149L61.3835 36.5286V36.087C61.3377 36.087 61.2805 36.0952 61.2298 36.1149L61.3835 36.5286V36.087V36.3847L61.5356 36.1198C61.5323 36.1198 61.4914 36.0903 61.3835 36.087V36.3847L61.5356 36.1198L61.5323 36.1181C61.5094 36.105 61.4064 36.0135 61.2886 35.8679C61.0597 35.5932 60.7489 35.1336 60.4006 34.5547C59.174 32.5267 57.4536 29.0466 56.0488 26.0914C55.3455 24.613 54.7208 23.2621 54.2711 22.2825C54.047 21.7935 53.8655 21.3961 53.7412 21.1197C53.6169 20.845 53.5498 20.6945 53.5498 20.6929L53.0151 20.9333L53.5613 20.7239C53.4877 20.5277 53.4517 20.3282 53.4517 20.1287C53.4517 19.4467 53.8704 18.7958 54.5409 18.5423C54.7372 18.4671 54.9383 18.4311 55.1362 18.4311C55.8198 18.4311 56.4707 18.8514 56.7242 19.5219L57.2721 19.3142L56.7127 19.4892C56.7127 19.4908 56.7798 19.7034 56.8975 20.0829C57.3113 21.4141 58.3465 24.788 59.2754 28.1536C59.7399 29.8381 60.1798 31.5193 60.5004 32.9356C60.6606 33.6454 60.7915 34.2881 60.8798 34.8278C60.9697 35.3675 61.0172 35.8074 61.0172 36.0821C61.0172 36.2179 61.0024 36.3111 60.9975 36.3242L61.2412 36.4092L61.0401 36.2506C61.0073 36.2947 60.9992 36.3193 60.9975 36.3242L61.2412 36.4092L61.0401 36.2506L61.3786 36.5155L61.2265 36.1165C61.1382 36.1492 61.0711 36.2097 61.0401 36.2506L61.3786 36.5155L61.2265 36.1165L61.2298 36.1149L61.4342 36.6644Z" fill="#1D1D1B"/>
<path d="M44.5177 59.3346C44.3639 58.0901 26.6785 59.2414 26.6785 59.2414C25.4356 59.3951 24.5427 60.5366 24.6964 61.7812C24.8501 63.0241 25.9933 63.917 27.2362 63.7633C27.2362 63.7633 44.6714 60.5775 44.5177 59.3346Z" fill="#F6C054"/>
<mask id="mask2_71_757" style="mask-type:luminance" maskUnits="userSpaceOnUse" x="24" y="57" width="22" height="8">
<path d="M24.0537 57.776H45.216V64.4747H24.0537V57.776Z" fill="white"/>
</mask>
<g mask="url(#mask2_71_757)">
<path d="M44.5175 59.3346L45.0981 59.261C45.0801 59.1122 45.0147 58.9813 44.9411 58.8914C44.8004 58.7197 44.6581 58.651 44.5191 58.5872C44.2755 58.4842 44.0056 58.4253 43.6736 58.373C42.6907 58.2209 41.1731 58.1702 39.4068 58.1702C34.1032 58.1702 26.6457 58.6559 26.6391 58.6559L26.6064 58.6592C25.1574 58.8407 24.0944 60.0754 24.0928 61.5015C24.0928 61.6176 24.101 61.7354 24.1157 61.8548V61.8531C24.2972 63.3021 25.5303 64.3651 26.9564 64.3668C27.0725 64.3668 27.1903 64.3586 27.308 64.3455L27.3407 64.339C27.3456 64.339 31.6697 63.5491 36.0019 62.5989C38.1704 62.1246 40.3374 61.6111 41.981 61.1319C42.8052 60.8915 43.4954 60.6609 44.0089 60.4369C44.2689 60.3224 44.4832 60.2144 44.668 60.0803C44.7612 60.0116 44.8495 59.9381 44.9329 59.8285C45.0147 59.7238 45.103 59.5619 45.103 59.3509L45.1013 59.2822L45.0981 59.261L44.5175 59.3346L43.9336 59.3853L44.3294 59.3509H43.932L43.9336 59.3853L44.3294 59.3509H43.932H44.3065L44.0023 59.1171C43.9876 59.1367 43.9336 59.2152 43.932 59.3509H44.3065L44.0023 59.1171L44.1185 59.2054L44.0121 59.1073L44.0023 59.1171L44.1185 59.2054L44.0121 59.1073H44.0105C43.9974 59.1236 43.8862 59.2005 43.7194 59.2806C43.4038 59.436 42.8853 59.6273 42.2426 59.8285C39.9858 60.5366 36.1916 61.3805 32.9813 62.0412C31.3753 62.3732 29.9116 62.6594 28.8502 62.8622C28.3203 62.9652 27.8886 63.0453 27.5926 63.1009C27.2949 63.1566 27.1314 63.186 27.1314 63.186L27.236 63.7633L27.1641 63.1811C27.0938 63.1893 27.0251 63.1942 26.9564 63.1942C26.1207 63.1958 25.3798 62.5596 25.2785 61.7092V61.7076C25.2703 61.6389 25.2654 61.5718 25.2654 61.5015C25.2637 60.6658 25.8999 59.925 26.7503 59.8236L26.6784 59.2414L26.716 59.8268C26.7176 59.8268 27.1804 59.7958 27.9589 59.75C30.2975 59.6142 35.4769 59.3428 39.4068 59.3428C40.8198 59.3428 42.0725 59.3771 42.9524 59.4638C43.3891 59.5063 43.7374 59.5652 43.9336 59.6224C43.9827 59.6355 44.022 59.6502 44.0481 59.6617L44.0825 59.6764L44.2231 59.4589L44.022 59.6175C44.0547 59.66 44.0776 59.6731 44.0825 59.6764L44.2231 59.4589L44.022 59.6175L44.3589 59.3526L43.9353 59.4049C43.9467 59.4981 43.9876 59.5766 44.022 59.6175L44.3589 59.3526L43.9353 59.4049L44.5175 59.3346Z" fill="#1D1D1B"/>
</g>
<path d="M115.032 76.0861C114.499 77.2195 130.07 85.6844 130.07 85.6844C131.203 86.2175 132.567 85.7269 133.1 84.5936C133.633 83.4602 133.143 82.0963 132.009 81.5631C132.009 81.5631 115.565 74.9528 115.032 76.0861Z" fill="#F6C054"/>
<path d="M115.03 76.0862L114.502 75.836C114.451 75.9374 114.43 76.0518 114.432 76.15C114.433 76.3299 114.486 76.4591 114.54 76.5654C114.649 76.7698 114.788 76.9252 114.963 77.1001C115.289 77.4223 115.747 77.7837 116.319 78.1942C118.309 79.622 121.664 81.6139 124.537 83.2608C127.407 84.906 129.787 86.1996 129.788 86.1996L129.819 86.216C130.21 86.3991 130.624 86.4874 131.031 86.4874C132.107 86.4874 133.141 85.8807 133.63 84.8455C133.813 84.4546 133.9 84.0392 133.9 83.632C133.9 82.5559 133.293 81.5223 132.259 81.0333L132.227 81.0202C132.223 81.0186 128.733 79.6154 124.908 78.2106C122.996 77.5074 121 76.8025 119.309 76.2726C118.461 76.0077 117.693 75.7853 117.042 75.6266C116.715 75.5481 116.419 75.4844 116.152 75.4418C115.887 75.3977 115.655 75.3699 115.439 75.3699C115.29 75.3715 115.15 75.3797 114.991 75.4287C114.911 75.4533 114.826 75.4909 114.736 75.5547C114.648 75.6168 114.556 75.7149 114.5 75.8392L114.502 75.836L115.03 76.0862L115.562 76.3348L115.169 76.1516L115.424 76.5032C115.469 76.4721 115.526 76.4133 115.562 76.3348L115.169 76.1516L115.424 76.5032L115.236 76.2448L115.352 76.5425L115.424 76.5032L115.236 76.2448L115.352 76.5425L115.305 76.4214L115.336 76.549L115.352 76.5425L115.305 76.4214L115.336 76.549C115.336 76.549 115.374 76.5425 115.439 76.5425C115.55 76.5425 115.734 76.5588 115.959 76.5964C116.816 76.7387 118.27 77.1574 119.923 77.702C122.411 78.5197 125.381 79.622 127.726 80.5198C128.897 80.9679 129.914 81.3653 130.637 81.6499C131 81.7922 131.288 81.9066 131.486 81.9868C131.684 82.0636 131.79 82.1078 131.79 82.1078L132.009 81.5632L131.759 82.0947C132.367 82.3793 132.729 82.9942 132.729 83.632C132.729 83.8708 132.678 84.1128 132.568 84.345C132.282 84.9534 131.669 85.3148 131.031 85.3148C130.791 85.3148 130.55 85.2641 130.318 85.1562L130.068 85.6861L130.348 85.1709C130.348 85.1709 130.114 85.0434 129.705 84.8177C128.267 84.0278 124.671 82.0293 121.441 80.0881C119.827 79.1182 118.304 78.1599 117.199 77.3814C116.649 76.9938 116.201 76.6488 115.912 76.3855C115.768 76.2563 115.665 76.1434 115.614 76.078L115.586 76.0388L115.581 76.0273L115.452 76.0927L115.59 76.0535L115.581 76.0273L115.452 76.0927L115.59 76.0535L115.258 76.15H115.603C115.603 76.1042 115.595 76.0715 115.59 76.0535L115.258 76.15H115.603H115.164L115.56 76.338C115.591 76.2726 115.603 76.2023 115.603 76.15H115.164L115.56 76.338L115.562 76.3348L115.03 76.0862Z" fill="#1D1D1B"/>
<path d="M111.943 87.0646C110.817 87.6158 117.68 103.96 117.68 103.96C118.229 105.087 119.601 105.556 120.725 105.005C121.85 104.454 122.319 103.084 121.768 101.958C121.768 101.958 113.066 86.5151 111.943 87.0646Z" fill="#F6C054"/>
<path d="M111.943 87.0647L111.684 86.5397C111.568 86.5953 111.475 86.682 111.413 86.7687C111.32 86.8995 111.284 87.0206 111.261 87.1301C111.238 87.2397 111.231 87.3427 111.231 87.449C111.231 87.6633 111.261 87.8939 111.307 88.1572C111.48 89.1352 111.928 90.589 112.507 92.2653C114.237 97.2795 117.137 104.183 117.139 104.188L117.153 104.22C117.65 105.233 118.673 105.823 119.731 105.823C120.153 105.823 120.581 105.728 120.983 105.532C121.997 105.033 122.586 104.011 122.586 102.953C122.586 102.531 122.493 102.101 122.295 101.7L122.28 101.669C122.277 101.666 120.176 97.937 117.899 94.2C116.761 92.3308 115.58 90.4598 114.587 89.0436C114.09 88.3338 113.642 87.7401 113.258 87.3035C113.063 87.0843 112.886 86.9044 112.708 86.7605C112.618 86.6886 112.527 86.6248 112.42 86.5708C112.312 86.5185 112.185 86.4662 112.008 86.4662C111.909 86.4645 111.792 86.4858 111.683 86.5397H111.684L111.943 87.0647L112.203 87.5913L112.008 87.1988V87.6371C112.059 87.6371 112.131 87.6257 112.203 87.5913L112.008 87.1988V87.6371V87.2986L111.913 87.6257C111.931 87.6306 111.962 87.6371 112.008 87.6371V87.2986L111.913 87.6257L111.949 87.5014L111.892 87.6158L111.913 87.6257L111.949 87.5014L111.892 87.6158C111.902 87.6191 112.008 87.6927 112.136 87.8203C112.383 88.0623 112.733 88.4859 113.13 89.0239C114.532 90.9161 116.574 94.236 118.254 97.0653C119.095 98.4799 119.845 99.7768 120.387 100.717C120.658 101.188 120.877 101.571 121.026 101.834C121.176 102.099 121.258 102.245 121.258 102.245L121.768 101.958L121.242 102.215C121.36 102.454 121.414 102.704 121.414 102.953C121.414 103.581 121.064 104.188 120.468 104.479C120.23 104.595 119.979 104.65 119.731 104.65C119.103 104.649 118.496 104.3 118.205 103.703L117.68 103.96L118.22 103.735C118.22 103.735 118.128 103.519 117.968 103.133C117.408 101.782 116.008 98.3671 114.749 95.0177C114.121 93.3447 113.528 91.6864 113.094 90.3176C112.878 89.6356 112.702 89.0239 112.582 88.5251C112.461 88.0296 112.401 87.6338 112.402 87.449L112.407 87.3754L112.409 87.3656V87.364L112.16 87.3035L112.373 87.4409C112.402 87.3951 112.407 87.3689 112.409 87.364L112.16 87.3035L112.373 87.4409L112.012 87.2086L112.2 87.5913C112.285 87.5504 112.345 87.485 112.373 87.4409L112.012 87.2086L112.2 87.5913H112.203L111.943 87.0647Z" fill="#1D1D1B"/>
<path d="M120.811 65.5753C121.014 66.8117 138.639 64.949 138.639 64.949C139.875 64.7446 140.719 63.5671 140.517 62.3307C140.314 61.0943 139.135 60.2488 137.9 60.4532C137.9 60.4532 120.607 64.339 120.811 65.5753Z" fill="#F6C054"/>
<mask id="mask3_71_757" style="mask-type:luminance" maskUnits="userSpaceOnUse" x="120" y="59" width="22" height="8">
<path d="M120.157 59.4507H141.176V66.9867H120.157V59.4507Z" fill="white"/>
</mask>
<g mask="url(#mask3_71_757)">
<path d="M120.811 65.5753L120.232 65.6702C120.249 65.7749 120.291 65.8714 120.342 65.9499C120.437 66.0938 120.548 66.1739 120.649 66.2328C120.828 66.3309 120.998 66.3783 121.196 66.4225C121.492 66.4863 121.842 66.5239 122.255 66.5484C122.669 66.5746 123.142 66.5844 123.665 66.5844C126.22 66.5844 129.968 66.3211 133.09 66.0578C136.21 65.7945 138.7 65.5312 138.7 65.5312L138.734 65.5263C139.434 65.4118 140.036 65.0471 140.459 64.5418C140.883 64.0381 141.133 63.3888 141.133 62.7003C141.133 62.5449 141.12 62.3912 141.095 62.2358C140.862 60.8343 139.646 59.8383 138.268 59.8367C138.116 59.8367 137.96 59.8481 137.805 59.8743L137.771 59.8825C137.767 59.8825 133.491 60.8441 129.206 61.9643C127.064 62.5237 124.92 63.1239 123.292 63.6685C122.48 63.9432 121.796 64.2 121.289 64.4453C121.034 64.5679 120.823 64.6857 120.641 64.8263C120.551 64.8966 120.465 64.9735 120.386 65.0815C120.308 65.1878 120.224 65.3431 120.223 65.5525C120.223 65.5868 120.224 65.6326 120.236 65.6882L120.811 65.5753L121.385 65.4625L120.923 65.5525H121.395C121.395 65.5361 121.394 65.5034 121.385 65.4625L120.923 65.5525H121.395H121.031L121.331 65.7732C121.345 65.7569 121.394 65.6849 121.395 65.5525H121.031L121.331 65.7732L121.235 65.7029L121.323 65.783L121.331 65.7732L121.235 65.7029L121.323 65.783L121.327 65.7798C121.345 65.7601 121.454 65.6784 121.621 65.5901C121.933 65.4216 122.448 65.209 123.083 64.9817C125.315 64.1836 129.067 63.1893 132.241 62.401C133.831 62.0052 135.277 61.6618 136.327 61.4165C136.852 61.2938 137.278 61.1957 137.573 61.1286C137.866 61.0616 138.027 61.0256 138.027 61.024L137.9 60.4532L137.995 61.0305C138.086 61.0158 138.178 61.0093 138.268 61.0093C139.077 61.0076 139.805 61.6029 139.938 62.4255C139.954 62.5171 139.96 62.6103 139.96 62.7003C139.96 63.1026 139.813 63.4869 139.561 63.7895C139.308 64.0888 138.956 64.3014 138.544 64.37L138.639 64.9473L138.579 64.3651C138.577 64.3651 138.423 64.3815 138.144 64.4109C137.161 64.5107 134.632 64.7625 131.8 64.9866C128.972 65.2123 125.835 65.4134 123.665 65.4134C122.843 65.4134 122.159 65.384 121.709 65.3219C121.485 65.2924 121.318 65.2515 121.255 65.2254L121.23 65.2139L121.124 65.4102L121.287 65.2613C121.25 65.2221 121.23 65.2139 121.23 65.2139L121.124 65.4102L121.287 65.2613L120.972 65.5492L121.389 65.4805C121.374 65.3791 121.322 65.299 121.287 65.2613L120.972 65.5492L121.389 65.4805L121.385 65.4625L120.811 65.5753Z" fill="#1D1D1B"/>
</g>
<path d="M49.8443 46.6356C50.5884 45.6282 36.9556 34.2997 36.9556 34.2997C35.9482 33.5555 34.5139 33.773 33.7715 34.7805C33.0273 35.7895 33.2448 37.2221 34.2523 37.9663C34.2523 37.9663 49.1018 47.6447 49.8443 46.6356Z" fill="#F6C054"/>
<path d="M49.8442 46.6355L50.3169 46.9838C50.4264 46.835 50.4608 46.6633 50.4591 46.5341C50.4591 46.382 50.4248 46.2659 50.3839 46.1596C50.3054 45.9535 50.1909 45.7704 50.0454 45.5627C49.7706 45.18 49.3781 44.7286 48.8891 44.2118C47.1834 42.4112 44.3034 39.8322 41.8372 37.6898C39.3743 35.5474 37.3333 33.8514 37.33 33.8498L37.3039 33.8286C36.7952 33.4524 36.1967 33.2709 35.6079 33.2709C34.7313 33.2709 33.8597 33.6732 33.3004 34.4337C32.9242 34.9406 32.7427 35.5408 32.7427 36.1279C32.7427 37.0045 33.145 37.8778 33.9055 38.4388L33.9333 38.4568C33.9349 38.4601 37.2924 40.6466 40.9018 42.8397C42.7073 43.9354 44.5733 45.0312 46.1253 45.8603C46.9005 46.2757 47.5972 46.6224 48.1761 46.8726C48.4672 46.9969 48.7272 47.0983 48.9627 47.1703C49.2015 47.2439 49.4059 47.2929 49.6333 47.2962C49.7297 47.2962 49.8344 47.2864 49.9554 47.2455C50.0732 47.2063 50.2155 47.1212 50.3152 46.9855L50.3169 46.9838L49.8442 46.6355L49.3732 46.2872L49.7101 46.5357L49.5727 46.1367C49.5253 46.1531 49.437 46.2005 49.3732 46.2872L49.7101 46.5357L49.5727 46.1367L49.6627 46.3967L49.6251 46.1252L49.5727 46.1367L49.6627 46.3967L49.6251 46.1252L49.6414 46.2528L49.6333 46.1236L49.6251 46.1252L49.6414 46.2528L49.6333 46.1236C49.6169 46.1269 49.4861 46.1073 49.3111 46.0517C48.9775 45.9486 48.4705 45.7327 47.8654 45.4384C45.7442 44.4015 42.4047 42.4047 39.6163 40.6744C38.2197 39.8076 36.9588 39.0096 36.0462 38.4241C35.5899 38.133 35.222 37.8958 34.9668 37.7307C34.7117 37.5671 34.5727 37.4755 34.5727 37.4755L34.2522 37.9662L34.6005 37.4952C34.1524 37.1648 33.9153 36.6513 33.9153 36.1279C33.9153 35.778 34.0216 35.4296 34.2424 35.1287C34.5711 34.6822 35.0846 34.4435 35.6079 34.4435C35.9595 34.4435 36.3079 34.5498 36.6072 34.7706L36.9555 34.2996L36.581 34.7509C36.581 34.7509 36.7822 34.9177 37.1338 35.2121C38.3669 36.2473 41.4545 38.8591 44.2266 41.3695C45.6118 42.6238 46.9185 43.8537 47.8686 44.8398C48.3413 45.3321 48.7272 45.7638 48.9791 46.0942C49.105 46.2577 49.1966 46.3967 49.2473 46.4883C49.2735 46.5357 49.2866 46.5684 49.2915 46.5832L49.5319 46.5341H49.2882L49.2915 46.5832L49.5319 46.5341H49.2882H49.7069L49.3732 46.2888C49.3029 46.382 49.2866 46.4867 49.2882 46.5341H49.7069L49.3732 46.2888V46.2872L49.8442 46.6355Z" fill="#1D1D1B"/>
</svg>
