<svg width="469" height="44" viewBox="0 0 469 44" fill="none" xmlns="http://www.w3.org/2000/svg">
<path d="M233.3 18.18C232.233 18.18 231.273 17.9467 230.42 17.48C229.567 17 228.893 16.3267 228.4 15.46C227.92 14.5933 227.68 13.5933 227.68 12.46C227.68 11.3267 227.927 10.3267 228.42 9.46C228.927 8.59333 229.613 7.92667 230.48 7.46C231.347 6.98 232.313 6.74 233.38 6.74C234.447 6.74 235.413 6.98 236.28 7.46C237.147 7.92667 237.827 8.59333 238.32 9.46C238.827 10.3267 239.08 11.3267 239.08 12.46C239.08 13.5933 238.82 14.5933 238.3 15.46C237.793 16.3267 237.1 17 236.22 17.48C235.353 17.9467 234.38 18.18 233.3 18.18ZM233.3 15.74C233.807 15.74 234.28 15.62 234.72 15.38C235.173 15.1267 235.533 14.7533 235.8 14.26C236.067 13.7667 236.2 13.1667 236.2 12.46C236.2 11.4067 235.92 10.6 235.36 10.04C234.813 9.46667 234.14 9.18 233.34 9.18C232.54 9.18 231.867 9.46667 231.32 10.04C230.787 10.6 230.52 11.4067 230.52 12.46C230.52 13.5133 230.78 14.3267 231.3 14.9C231.833 15.46 232.5 15.74 233.3 15.74ZM243.934 8.64C244.294 8.05333 244.761 7.59333 245.334 7.26C245.921 6.92667 246.587 6.76 247.334 6.76V9.7H246.594C245.714 9.7 245.047 9.90667 244.594 10.32C244.154 10.7333 243.934 11.4533 243.934 12.48V18H241.134V6.92H243.934V8.64Z" fill="#5F5757"/>
<line y1="12.7" x2="203" y2="12.7" stroke="black" stroke-width="0.6"/>
<line x1="266" y1="12.7" x2="469" y2="12.7" stroke="black" stroke-width="0.6"/>
</svg>
